#N canvas 242 131 559 480 10;
#X floatatom 70 160 5 0 0 1 MIDI_note - -;
#X obj 70 77 kbd;
#X text 172 85 keyboard;
#X obj 70 206 pack 0 100;
#X obj 70 307 note_basic;
#X obj 91 327 note_basic;
#X obj 113 347 note_basic;
#X obj 134 367 note_basic;
#X obj 70 254 pack;
#X obj 70 230 poly 4 1;
#X text 134 230 poly with note-stealing;
#X obj 74 327 bng 15 250 50 0 empty empty empty 17 7 0 10 -262144 -1
-1;
#X obj 96 347 bng 15 250 50 0 empty empty empty 17 7 0 10 -262144 -1
-1;
#X obj 117 367 bng 15 250 50 0 empty empty empty 17 7 0 10 -262144
-1 -1;
#X obj 70 285 route 1 2 3 4;
#X obj 53 308 bng 15 250 50 0 empty empty empty 17 7 0 10 -262144 -1
-1;
#X obj 70 115 unpack;
#X obj 70 134 spigot;
#X obj 70 403 out-mono;
#X text 75 442 audio out;
#X obj 27 11 cnv 15 500 40 empty empty Polyphonic_player 10 10 0 14
-233017 -66577 0;
#X text 414 14 grrrr.org \, 2011;
#X text 34 32 native Pure Data approach using [poly];
#X connect 0 0 3 0;
#X connect 1 0 16 0;
#X connect 3 0 9 0;
#X connect 4 0 18 0;
#X connect 5 0 18 0;
#X connect 6 0 18 0;
#X connect 7 0 18 0;
#X connect 8 0 14 0;
#X connect 9 0 8 0;
#X connect 9 1 8 1;
#X connect 14 0 4 0;
#X connect 14 0 15 0;
#X connect 14 1 5 0;
#X connect 14 1 11 0;
#X connect 14 2 6 0;
#X connect 14 2 12 0;
#X connect 14 3 7 0;
#X connect 14 3 13 0;
#X connect 16 0 17 0;
#X connect 16 1 17 1;
#X connect 17 0 0 0;
