#N canvas 202 89 513 374 10;
#X floatatom 71 80 5 0 0 0 - - -;
#X obj 71 49 kbd;
#X obj 263 263 *~ 0;
#X obj 321 243 hsl 128 15 0 127 0 0 empty empty empty -2 -8 0 10 -262144
-1 -1 0 1;
#X obj 318 263 dbtopow;
#X obj 263 304 dac~;
#X text 127 52 keyboard;
#X text 382 263 gain (dB);
#X text 314 305 audio out;
#X obj 54 79 bng 15 250 50 0 empty empty empty 17 7 0 10 -262144 -1
-1;
#X text 125 80 MIDI note;
#X obj 71 188 flowctrl;
#X obj 70 302 bng 15 250 50 0 empty empty empty 17 7 0 10 -262144 -1
-1;
#X obj 71 215 flowctrl;
#X obj 71 242 flowctrl;
#X obj 71 271 flowctrl;
#X text 87 304 overflow;
#X text 114 169 voices;
#X obj 141 188 note_alt;
#X obj 141 215 note_alt;
#X obj 141 242 note_alt;
#X obj 141 271 note_alt;
#X connect 0 0 11 0;
#X connect 1 0 9 0;
#X connect 1 0 0 0;
#X connect 2 0 5 0;
#X connect 2 0 5 1;
#X connect 3 0 4 0;
#X connect 4 0 2 1;
#X connect 11 0 13 0;
#X connect 11 1 18 0;
#X connect 13 0 14 0;
#X connect 13 1 19 0;
#X connect 14 0 15 0;
#X connect 14 1 20 0;
#X connect 15 0 12 0;
#X connect 15 1 21 0;
#X connect 18 0 11 1;
#X connect 18 1 2 0;
#X connect 19 0 13 1;
#X connect 19 1 2 0;
#X connect 20 0 14 1;
#X connect 20 1 2 0;
#X connect 21 0 15 1;
#X connect 21 1 2 0;
