#N canvas 202 89 550 416 10;
#X floatatom 45 167 5 0 0 0 - - -;
#X obj 45 87 kbd;
#X obj 237 313 *~ 0;
#X obj 295 293 hsl 128 15 0 127 0 0 empty empty gain(dB) -2 -8 0 10
-204786 -1 -1 9200 1;
#X obj 292 313 dbtopow;
#X obj 237 354 dac~;
#X text 288 355 audio out;
#X text 84 167 MIDI note;
#X obj 45 238 flowctrl;
#X obj 45 352 bng 15 250 50 0 empty empty overflow 17 7 0 10 -262144
-1 -1;
#X obj 45 265 flowctrl;
#X obj 45 292 flowctrl;
#X obj 45 321 flowctrl;
#X text 88 219 voices;
#X obj 45 124 unpack;
#X obj 45 143 spigot;
#X obj 115 238 note_alt;
#X obj 115 265 note_alt;
#X obj 115 292 note_alt;
#X obj 115 321 note_alt;
#X obj 27 11 cnv 15 500 40 empty empty Polyphonic_player 10 10 0 14
-233017 -66577 0;
#X text 414 14 grrrr.org \, 2011;
#X text 34 32 can play as many events as there are voices;
#X connect 0 0 8 0;
#X connect 1 0 14 0;
#X connect 2 0 5 0;
#X connect 2 0 5 1;
#X connect 3 0 4 0;
#X connect 4 0 2 1;
#X connect 8 0 10 0;
#X connect 8 1 16 0;
#X connect 10 0 11 0;
#X connect 10 1 17 0;
#X connect 11 0 12 0;
#X connect 11 1 18 0;
#X connect 12 0 9 0;
#X connect 12 1 19 0;
#X connect 14 0 15 0;
#X connect 14 1 15 1;
#X connect 15 0 0 0;
#X connect 16 0 8 1;
#X connect 16 1 2 0;
#X connect 17 0 10 1;
#X connect 17 1 2 0;
#X connect 18 0 11 1;
#X connect 18 1 2 0;
#X connect 19 0 12 1;
#X connect 19 1 2 0;
