#N canvas 202 89 559 391 10;
#X floatatom 45 176 5 0 0 1 MIDI_note - -;
#X obj 45 87 kbd;
#X obj 45 238 flowctrl;
#X obj 45 352 bng 15 250 50 0 empty empty overflow 17 7 0 10 -262144
-1 -1;
#X obj 45 265 flowctrl;
#X obj 45 292 flowctrl;
#X obj 45 319 flowctrl;
#X obj 45 126 unpack;
#X obj 45 145 spigot;
#X obj 115 238 note_alt;
#X obj 115 265 note_alt;
#X obj 115 292 note_alt;
#X obj 115 319 note_alt;
#X obj 27 11 cnv 15 500 40 empty empty Universal_Polyphonic_Player
10 10 0 14 -233017 -66577 0;
#X text 34 32 can play as many events as there are voices;
#X obj 251 322 out-mono;
#X text 51 217 daisy-chained voices;
#X text 414 14 grrrr.org \, 2012;
#X connect 0 0 2 0;
#X connect 1 0 7 0;
#X connect 2 0 4 0;
#X connect 2 1 9 0;
#X connect 4 0 5 0;
#X connect 4 1 10 0;
#X connect 5 0 6 0;
#X connect 5 1 11 0;
#X connect 6 0 3 0;
#X connect 6 1 12 0;
#X connect 7 0 8 0;
#X connect 7 1 8 1;
#X connect 8 0 0 0;
#X connect 9 0 2 1;
#X connect 9 1 15 0;
#X connect 10 0 4 1;
#X connect 10 1 15 0;
#X connect 11 0 5 1;
#X connect 11 1 15 0;
#X connect 12 0 6 1;
#X connect 12 1 15 0;
