#N canvas 214 259 552 402 10;
#X floatatom 70 174 5 0 0 0 - - -;
#X obj 70 83 kbd;
#X obj 271 286 *~ 0;
#X obj 329 266 hsl 128 15 0 127 0 0 empty empty gain(dB) -2 -8 0 10
-204786 -1 -1 8000 1;
#X obj 326 286 dbtopow;
#X obj 271 327 dac~;
#X text 322 328 audio out;
#X text 124 174 MIDI note;
#X obj 70 329 bng 15 250 50 0 empty empty overflow 17 7 0 10 -262144
-1 -1;
#X obj 271 233 catch~ bus;
#X text 136 209 partials;
#N canvas 112 75 750 604 timbre 0;
#X obj 90 28 inlet;
#X obj 82 538 outlet;
#N canvas 0 22 450 300 (subpatch) 0;
#X array formant 150 float 1;
#A 0 63.3924 63.7495 63.7495 64.1067 64.821 66.2496 67.321 68.0353
69.1068 69.1068 69.8211 70.1782 71.2496 71.9639 72.6782 73.3925 73.9282
74.464 74.8211 75.1783 75.5354 76.2497 76.6068 77.6783 81.2498 81.9641
81.9641 82.3212 82.6784 82.6784 83.0355 83.0355 83.0355 83.0355 83.0355
83.3926 83.3926 83.3926 83.3926 83.3926 83.3926 83.0355 83.0355 82.6784
82.6784 83.0355 84.1069 86.2498 86.9641 88.3927 88.7499 89.4641 90.8927
92.3213 91.2499 90.5356 90.1784 89.107 90.1784 91.9642 93.0356 93.3928
93.3928 90.5356 90.1784 90.1784 90.5356 92.3213 93.3928 93.3928 93.3928
93.0356 90.1784 90.1784 90.1784 90.1784 86.9641 86.2498 86.2498 83.3926
82.6784 82.3212 81.9641 81.6069 81.2498 81.0712 80.8926 80.8926 80.8926
80.8926 81.2498 81.6069 81.9641 83.0355 84.1069 85.1784 85.1784 85.1784
85.1784 85.1784 85.1784 84.8212 81.9641 81.9641 81.6069 81.2498 77.6783
77.6783 77.3211 76.964 76.6068 75.8926 74.1068 72.3211 71.6068 71.2496
71.2496 71.2496 71.2496 70.5353 70.3568 70.1782 69.1068 68.7496 68.0353
67.321 66.7853 66.2496 65.7139 65.1781 64.1067 63.571 63.0353 62.321
61.6067 61.0709 60.5352 59.8209 59.2852 58.7495 58.3923 58.0352 57.678
56.9638 56.6066 55.8923 55.8923 55.178 55.178 55.178;
#X coords 0 100 149 50 400 140 1;
#X restore 310 34 graph;
#X obj 115 425 tabread formant;
#X floatatom 53 137 5 0 0 0 - - -;
#X floatatom 171 135 5 0 0 0 - - -;
#X obj 54 247 until;
#X obj 54 203 f;
#X obj 53 224 t a b;
#X obj 52 280 f;
#X obj 86 279 + 1;
#X obj 67 167 t b a;
#X obj 84 328 *;
#X msg 108 249 1;
#X obj 83 399 t a a;
#X obj 83 511 pack;
#X obj 115 448 dbtopow;
#X msg 309 215 \; formant const 80;
#X obj 91 61 unpack;
#X text 171 116 partials;
#X text 254 35 dB;
#X text 253 52 50..100;
#X text 589 177 MIDI note 0...150;
#X text 116 281 count partials;
#X text 49 346 partial frequencies;
#X text 226 424 fetch gain from table;
#X obj 53 94 mtof;
#X text 24 117 fundamental frq;
#X obj 83 372 ftom;
#X text 45 491 midinote volume;
#X connect 0 0 18 0;
#X connect 3 0 16 0;
#X connect 4 0 11 0;
#X connect 5 0 7 1;
#X connect 6 0 9 0;
#X connect 7 0 8 0;
#X connect 8 0 6 0;
#X connect 8 1 13 0;
#X connect 9 0 10 0;
#X connect 9 0 12 0;
#X connect 10 0 9 1;
#X connect 11 0 7 0;
#X connect 11 1 12 1;
#X connect 12 0 28 0;
#X connect 13 0 9 1;
#X connect 14 0 15 0;
#X connect 14 1 3 0;
#X connect 15 0 1 0;
#X connect 16 0 15 1;
#X connect 18 0 26 0;
#X connect 18 1 5 0;
#X connect 26 0 4 0;
#X connect 28 0 14 0;
#X restore 70 230 pd timbre;
#X obj 70 208 pack 0 8;
#N canvas 0 22 1015 370 50voices 0;
#X obj 56 42 inlet;
#X obj 783 313 outlet;
#X obj 55 77 voice-mono bus note_alt;
#X obj 55 99 voice-mono bus note_alt;
#X obj 55 121 voice-mono bus note_alt;
#X obj 55 143 voice-mono bus note_alt;
#X obj 55 165 voice-mono bus note_alt;
#X obj 55 187 voice-mono bus note_alt;
#X obj 55 209 voice-mono bus note_alt;
#X obj 55 231 voice-mono bus note_alt;
#X obj 55 253 voice-mono bus note_alt;
#X obj 55 275 voice-mono bus note_alt;
#X obj 235 76 voice-mono bus note_alt;
#X obj 235 98 voice-mono bus note_alt;
#X obj 235 120 voice-mono bus note_alt;
#X obj 235 142 voice-mono bus note_alt;
#X obj 235 164 voice-mono bus note_alt;
#X obj 235 186 voice-mono bus note_alt;
#X obj 235 208 voice-mono bus note_alt;
#X obj 235 230 voice-mono bus note_alt;
#X obj 235 252 voice-mono bus note_alt;
#X obj 235 274 voice-mono bus note_alt;
#X obj 783 76 voice-mono bus note_alt;
#X obj 783 98 voice-mono bus note_alt;
#X obj 783 120 voice-mono bus note_alt;
#X obj 783 142 voice-mono bus note_alt;
#X obj 783 164 voice-mono bus note_alt;
#X obj 783 186 voice-mono bus note_alt;
#X obj 783 208 voice-mono bus note_alt;
#X obj 783 230 voice-mono bus note_alt;
#X obj 783 252 voice-mono bus note_alt;
#X obj 783 274 voice-mono bus note_alt;
#X text 837 314 overflow;
#X text 104 41 message;
#X obj 416 76 voice-mono bus note_alt;
#X obj 416 98 voice-mono bus note_alt;
#X obj 416 120 voice-mono bus note_alt;
#X obj 416 142 voice-mono bus note_alt;
#X obj 416 164 voice-mono bus note_alt;
#X obj 416 186 voice-mono bus note_alt;
#X obj 416 208 voice-mono bus note_alt;
#X obj 416 230 voice-mono bus note_alt;
#X obj 416 252 voice-mono bus note_alt;
#X obj 416 274 voice-mono bus note_alt;
#X obj 598 75 voice-mono bus note_alt;
#X obj 598 97 voice-mono bus note_alt;
#X obj 598 119 voice-mono bus note_alt;
#X obj 598 141 voice-mono bus note_alt;
#X obj 598 163 voice-mono bus note_alt;
#X obj 598 185 voice-mono bus note_alt;
#X obj 598 207 voice-mono bus note_alt;
#X obj 598 229 voice-mono bus note_alt;
#X obj 598 251 voice-mono bus note_alt;
#X obj 598 273 voice-mono bus note_alt;
#X connect 0 0 2 0;
#X connect 2 0 3 0;
#X connect 3 0 4 0;
#X connect 4 0 5 0;
#X connect 5 0 6 0;
#X connect 6 0 7 0;
#X connect 7 0 8 0;
#X connect 8 0 9 0;
#X connect 9 0 10 0;
#X connect 10 0 11 0;
#X connect 11 0 12 0;
#X connect 12 0 13 0;
#X connect 13 0 14 0;
#X connect 14 0 15 0;
#X connect 15 0 16 0;
#X connect 16 0 17 0;
#X connect 17 0 18 0;
#X connect 18 0 19 0;
#X connect 19 0 20 0;
#X connect 20 0 21 0;
#X connect 21 0 34 0;
#X connect 22 0 23 0;
#X connect 23 0 24 0;
#X connect 24 0 25 0;
#X connect 25 0 26 0;
#X connect 26 0 27 0;
#X connect 27 0 28 0;
#X connect 28 0 29 0;
#X connect 29 0 30 0;
#X connect 30 0 31 0;
#X connect 31 0 1 0;
#X connect 34 0 35 0;
#X connect 35 0 36 0;
#X connect 36 0 37 0;
#X connect 37 0 38 0;
#X connect 38 0 39 0;
#X connect 39 0 40 0;
#X connect 40 0 41 0;
#X connect 41 0 42 0;
#X connect 42 0 43 0;
#X connect 43 0 44 0;
#X connect 44 0 45 0;
#X connect 45 0 46 0;
#X connect 46 0 47 0;
#X connect 47 0 48 0;
#X connect 48 0 49 0;
#X connect 49 0 50 0;
#X connect 50 0 51 0;
#X connect 51 0 52 0;
#X connect 52 0 53 0;
#X connect 53 0 22 0;
#X restore 70 274 pd 50voices;
#X obj 27 11 cnv 15 500 40 empty empty Polyphonic_player 10 10 0 14
-233017 -66577 0;
#X text 414 14 grrrr.org \, 2011;
#X obj 70 121 unpack;
#X obj 70 142 spigot;
#X text 34 34 playing notes with a formant-defined timbre;
#X connect 0 0 12 0;
#X connect 1 0 16 0;
#X connect 2 0 5 0;
#X connect 2 0 5 1;
#X connect 3 0 4 0;
#X connect 4 0 2 1;
#X connect 9 0 2 0;
#X connect 11 0 13 0;
#X connect 12 0 11 0;
#X connect 13 0 8 0;
#X connect 16 0 17 0;
#X connect 16 1 17 1;
#X connect 17 0 0 0;
