#N canvas 86 244 668 428 10;
#X obj 39 385 bng 15 250 50 0 empty empty overflow 17 7 0 10 -262144
-1 -1;
#X obj 42 95 hsl 250 30 0 1 0 0 empty empty scrub -2 -8 0 10 -257985
-1 -1 14600 1;
#X obj 39 173 *;
#X text 142 195 position in buffer(ms);
#X text 161 279 attack sustain decay;
#X text 433 204 half window for one grain;
#X floatatom 117 242 5 0 0 0 - - -;
#X text 299 102 0...1;
#X obj 39 195 nbx 10 14 -1e+37 1e+37 0 0 empty empty empty 0 -8 0 10
-262144 -1 -1 8421.9 256;
#X obj 438 357 out-mono;
#X obj 376 88 sample \$0-sample;
#X obj 39 316 list prepend \$0-sample;
#X obj 39 280 pack 0 100 0 100;
#X text 160 241 change attack+decay;
#X obj 27 11 cnv 15 500 40 empty empty Universal_Polyphonic_Player
10 10 0 14 -233017 -66577 0;
#X text 34 34 granular scrubbing through audio buffer;
#X floatatom 324 383 5 0 0 0 voices_active - -;
#X obj 436 226 wnd-sin \$0-wnd 1024;
#X obj 438 337 catch~ \$0-bus;
#X text 414 14 grrrr.org \, 2012;
#X obj 39 352 upp.xf 50 spat-mono \$0-bus syn-grain \$0-wnd 1024;
#X connect 1 0 2 0;
#X connect 2 0 8 0;
#X connect 6 0 12 1;
#X connect 6 0 12 3;
#X connect 8 0 12 0;
#X connect 10 0 2 1;
#X connect 11 0 20 0;
#X connect 12 0 11 0;
#X connect 18 0 9 0;
#X connect 20 0 0 0;
#X connect 20 2 16 0;
