#N canvas 62 42 637 538 10;
#X obj 189 134 nbx 5 14 0.01 10 1 0 empty empty empty 0 -8 0 10 -204786
-1 -1 1.11573 256;
#X obj 192 116 hsl 128 15 0.01 10 1 1 empty empty speed -2 -8 0 10
-204786 -1 -1 8668 1;
#X obj 110 118 nbx 5 14 1 1000 1 1 empty empty grain_length 0 -8 0
10 -204786 -1 -1 200 256;
#X obj 110 138 / 2;
#X msg 68 189 0;
#N canvas 762 55 606 489 play 0;
#X obj 168 388 outlet;
#X text 257 150 attack+sustain;
#X obj 63 60 inlet;
#X obj 496 62 inlet;
#X text 62 43 play 0/1;
#X text 494 44 speed;
#X text 165 409 trigger new grain;
#X obj 257 61 inlet;
#X obj 336 61 inlet;
#X obj 424 62 inlet;
#X text 257 40 attack;
#X text 337 41 sustain;
#X text 420 42 release;
#X obj 337 86 t b a;
#X obj 169 60 inlet;
#X obj 288 129 + 0;
#X text 166 41 set pos;
#X obj 417 217 * 1;
#X obj 495 102 t b a;
#X text 415 234 playpos increment;
#X obj 377 257 +;
#X obj 63 278 t a a;
#X obj 168 358 pack 0 0 0 0;
#X obj 63 243 upp.onward;
#X connect 2 0 23 0;
#X connect 3 0 18 0;
#X connect 7 0 15 0;
#X connect 7 0 22 1;
#X connect 8 0 13 0;
#X connect 9 0 22 3;
#X connect 13 0 15 0;
#X connect 13 1 15 1;
#X connect 13 1 22 2;
#X connect 14 0 23 1;
#X connect 15 0 17 0;
#X connect 15 0 23 2;
#X connect 17 0 20 1;
#X connect 18 0 17 0;
#X connect 18 1 17 1;
#X connect 20 0 23 1;
#X connect 21 0 22 0;
#X connect 21 1 20 0;
#X connect 22 0 0 0;
#X connect 23 0 21 0;
#X restore 45 211 pd play ___________;
#X text 419 275 half window for one grain;
#X obj 106 357 moses;
#X obj 154 357 spigot;
#X obj 349 116 tgl 15 0 empty empty loop 17 7 0 10 -204786 -1 -1 0
1;
#X obj 455 458 out-mono;
#X obj 347 187 sample \$0-sample;
#X obj 45 494 bng 15 250 50 0 empty empty overflow 17 7 0 10 -262144
-1 -1;
#X floatatom 330 490 5 0 0 0 voices_active - -;
#X obj 45 427 list prepend \$0-sample;
#X obj 37 21 cnv 15 500 40 empty empty Universal_Polyphonic_Player
10 10 0 14 -233017 -66577 0;
#X obj 45 118 tgl 25 0 empty empty play 0 -8 0 10 -258113 -1 -1 0 1
;
#X text 44 44 synchronous granular playing through audio buffer;
#X obj 455 436 catch~ \$0-bus;
#X text 424 24 grrrr.org \, 2012;
#X obj 45 299 nbx 8 14 0 1e+37 0 0 empty empty pos_in_buffer_(ms) 0
-8 0 10 -262144 -1 -1 0 256;
#X text 192 428 tag;
#X obj 45 240 t a a;
#X obj 45 461 upp.xc 10 spat-mono \$0-bus syn-grain \$0-wnd 1024;
#X obj 419 294 wnd-lin \$0-wnd 1024;
#X connect 0 0 5 5;
#X connect 1 0 0 0;
#X connect 2 0 3 0;
#X connect 3 0 5 2;
#X connect 3 0 5 4;
#X connect 4 0 5 1;
#X connect 5 0 22 0;
#X connect 7 1 8 0;
#X connect 8 0 4 0;
#X connect 9 0 8 1;
#X connect 11 0 7 1;
#X connect 14 0 23 0;
#X connect 16 0 5 0;
#X connect 18 0 10 0;
#X connect 20 0 7 0;
#X connect 22 0 20 0;
#X connect 22 1 14 0;
#X connect 23 0 12 0;
#X connect 23 2 13 0;
