#N canvas 94 84 635 524 10;
#X text 146 172 position in buffer(ms);
#X text 165 356 attack sustain decay;
#X text 416 246 half window for one grain;
#X obj 43 172 nbx 10 14 -1e+37 1e+37 0 0 empty empty empty 0 -8 0 10
-262144 -1 -1 0 256;
#N canvas 616 346 514 452 play 0;
#X obj 50 392 outlet;
#X obj 50 366 f;
#X obj 242 70 unpack 0 0 0 0;
#X obj 49 230 delay;
#X obj 269 104 +;
#X obj 150 250 +;
#X obj 71 268 spigot;
#X obj 49 74 t a a;
#X obj 49 155 sel 1;
#X msg 49 178 0;
#X msg 125 72 0;
#X obj 230 219 * 1;
#X obj 411 161 nbx 5 14 0 1000 0 0 empty empty speed 0 -8 0 10 -262144
-1 -1 0.355844 256;
#X text 228 236 time increment;
#X text 296 105 attack+sustain;
#X text 231 201 scale delay time;
#X text 147 268 new playpos;
#X text 122 32 reset playpos;
#X obj 125 49 r \$0-restart;
#X obj 242 48 r \$0-lastgrain;
#X obj 49 46 inlet;
#X obj 411 47 inlet;
#X text 48 29 play 0/1;
#X text 409 29 speed;
#X connect 1 0 0 0;
#X connect 2 0 5 0;
#X connect 2 1 4 0;
#X connect 2 2 4 1;
#X connect 3 0 6 0;
#X connect 4 0 3 0;
#X connect 4 0 11 0;
#X connect 5 0 1 1;
#X connect 6 0 1 0;
#X connect 7 0 8 0;
#X connect 7 1 6 1;
#X connect 8 0 9 0;
#X connect 9 0 3 0;
#X connect 10 0 5 0;
#X connect 11 0 5 1;
#X connect 12 0 11 1;
#X connect 18 0 10 0;
#X connect 19 0 2 0;
#X connect 20 0 7 0;
#X connect 21 0 12 0;
#X restore 42 128 pd play;
#X obj 104 205 moses;
#X obj 136 225 spigot;
#X obj 175 129 tgl 15 0 empty empty loop 17 7 0 10 -204786 -1 -1 0
1;
#X obj 43 204 t a a;
#X obj 450 447 out-mono;
#X obj 344 158 sample \$0-sample;
#X obj 40 483 bng 15 250 50 0 empty empty overflow 17 7 0 10 -262144
-1 -1;
#X floatatom 331 479 5 0 0 0 voices_active - -;
#X obj 40 420 list prepend \$0-sample;
#X obj 27 11 cnv 15 500 40 empty empty Universal_Polyphonic_Player
10 10 0 14 -233017 -66577 0;
#X text 414 14 grrrr.org \, 2011;
#X obj 54 386 s \$0-lastgrain;
#X obj 136 245 s \$0-restart;
#X obj 40 357 pack 0 100 0 100;
#X obj 42 97 tgl 25 0 empty empty play 0 -8 0 10 -258113 -1 -1 0 1
;
#X obj 88 110 nbx 5 14 0.01 10 1 0 empty empty empty 0 -8 0 10 -204786
-1 -1 0.355844 256;
#X text 34 34 synchronous granular playing through audio buffer;
#X obj 91 92 hsl 128 15 0.01 10 1 1 empty empty speed -2 -8 0 10 -204786
-1 -1 6567 1;
#X obj 114 307 nbx 5 14 1 1000 1 1 empty empty grain_length 0 -8 0
10 -204786 -1 -1 200 256;
#X obj 416 265 wnd-sin \$0-wnd 1024;
#X obj 114 326 / 2;
#X obj 450 425 catch~ \$0-bus;
#X obj 40 450 x 10 voice-mono \$0-bus syn-grain \$0-wnd 1024;
#X connect 3 0 8 0;
#X connect 4 0 3 0;
#X connect 5 1 6 0;
#X connect 6 0 17 0;
#X connect 7 0 6 1;
#X connect 8 0 5 0;
#X connect 8 1 18 0;
#X connect 10 0 5 1;
#X connect 13 0 27 0;
#X connect 18 0 13 0;
#X connect 18 0 16 0;
#X connect 19 0 4 0;
#X connect 20 0 4 1;
#X connect 22 0 20 0;
#X connect 23 0 25 0;
#X connect 25 0 18 1;
#X connect 25 0 18 3;
#X connect 26 0 9 0;
#X connect 27 0 11 0;
#X connect 27 2 12 0;
