#N canvas 78 161 655 452 10;
#X obj 412 343 *~ 0;
#X obj 470 323 hsl 128 15 0 127 0 0 empty empty empty -2 -8 0 10 -262144
-1 -1 0 1;
#X obj 467 343 dbtopow;
#X obj 412 384 dac~;
#X text 531 343 gain (dB);
#X text 463 385 audio out;
#X obj 40 379 bng 15 250 50 0 empty empty empty 17 7 0 10 -262144 -1
-1;
#X text 57 381 overflow;
#X obj 412 290 catch~ bus;
#N canvas 588 126 264 339 env 0;
#X obj 54 292 table wnd 1024;
#X msg 64 54 1024;
#X obj 62 76 t a b;
#X obj 62 100 until;
#X obj 62 128 f;
#X obj 94 128 + 1;
#X msg 104 100 0;
#X obj 62 170 / 1024;
#X obj 55 254 tabwrite wnd;
#X obj 62 150 t a a;
#X text 47 236 value;
#X text 108 236 index;
#X obj 56 211 expr sin($f1*1.5708);
#X obj 64 15 loadbang;
#X connect 1 0 2 0;
#X connect 2 0 3 0;
#X connect 2 1 6 0;
#X connect 3 0 4 0;
#X connect 4 0 5 0;
#X connect 4 0 9 0;
#X connect 5 0 4 1;
#X connect 6 0 4 1;
#X connect 7 0 12 0;
#X connect 9 0 7 0;
#X connect 9 1 8 1;
#X connect 12 0 8 0;
#X connect 13 0 1 0;
#X restore 416 218 pd env;
#X obj 496 116 table sample;
#X obj 410 116 soundfiler;
#X obj 410 63 openpanel;
#X obj 411 41 bng 15 250 50 0 empty empty empty 17 7 0 10 -262144 -1
-1;
#X msg 409 92 read -resize \$1 sample;
#X obj 39 316 list prepend sample;
#X obj 410 137 nbx 10 14 -1e+37 1e+37 0 0 empty empty empty 0 -8 0
10 -262144 -1 -1 0 256;
#X text 40 107 position in buffer(ms);
#X text 414 199 half window for one grain;
#X floatatom 116 234 5 0 0 0 - - -;
#N canvas 677 379 262 229 samples2ms 0;
#X obj 57 25 inlet;
#X obj 84 80 samplerate~;
#X obj 56 50 t a b;
#X obj 83 125 / 1000;
#X obj 55 200 outlet;
#X text 93 97 samples/s;
#X text 89 142 samples/ms;
#X obj 56 172 /;
#X connect 0 0 2 0;
#X connect 1 0 3 0;
#X connect 2 0 7 0;
#X connect 2 1 1 0;
#X connect 3 0 7 1;
#X connect 7 0 4 0;
#X restore 223 112 pd samples2ms;
#X obj 41 125 nbx 10 14 -1e+37 1e+37 0 0 empty empty empty 0 -8 0 10
-262144 -1 -1 0 256;
#N canvas 291 63 407 451 play 0;
#X obj 51 406 outlet;
#X obj 50 366 f;
#X obj 235 74 unpack 0 0 0 0;
#X obj 50 225 delay;
#X obj 266 105 +;
#X obj 150 250 +;
#X obj 69 268 spigot;
#X obj 48 43 tgl 25 0 empty empty play 17 7 0 10 -258113 -1 -1 0 1
;
#X obj 49 74 t a a;
#X obj 49 155 sel 1;
#X msg 49 178 0;
#X msg 126 76 0;
#X obj 230 219 * 1;
#X obj 289 167 nbx 5 14 0.001 10 1 0 empty empty speed 0 -8 0 10 -262144
-1 -1 0.001 256;
#X text 228 236 time increment;
#X obj 235 52 r lastgrain;
#X obj 125 52 r restart;
#X text 296 105 attack+sustain;
#X text 231 201 scale delay time;
#X text 147 268 new playpos;
#X text 122 32 reset playpos;
#X connect 1 0 0 0;
#X connect 2 0 5 0;
#X connect 2 1 4 0;
#X connect 2 2 4 1;
#X connect 3 0 6 0;
#X connect 4 0 3 0;
#X connect 4 0 12 0;
#X connect 5 0 1 1;
#X connect 6 0 1 0;
#X connect 7 0 8 0;
#X connect 8 0 9 0;
#X connect 8 1 6 1;
#X connect 9 0 10 0;
#X connect 10 0 3 0;
#X connect 11 0 5 0;
#X connect 12 0 5 1;
#X connect 13 0 12 1;
#X connect 15 0 2 0;
#X connect 16 0 11 0;
#X restore 41 46 pd play;
#X obj 197 281 s lastgrain;
#X obj 102 158 moses;
#X obj 133 180 spigot;
#X obj 171 46 tgl 15 0 empty empty loop 17 7 0 10 -262144 -1 -1 0 1
;
#X obj 133 199 s restart;
#X obj 42 158 t a a;
#X obj 39 280 pack 0 200 0 200 1;
#X text 57 262 attack sustain decay speed;
#X obj 40 352 x11 x10 voice-mono bus syn-grain-var wnd 1024;
#X obj 213 157 cnv 15 180 100 empty empty empty 20 12 0 14 -233017
-66577 0;
#X obj 235 230 nbx 5 14 -1e+37 1e+37 0 0 empty empty empty 0 -8 0 10
-262144 -1 -1 0 256;
#X obj 236 184 nbx 5 14 -1e+37 1e+37 0 0 empty empty empty 0 -8 0 10
-262144 -1 -1 0 256;
#X obj 236 207 expr pow(2 \, $f1/12);
#X text 234 169 pitch shift;
#X text 264 337 VVVVV;
#X connect 0 0 3 0;
#X connect 0 0 3 1;
#X connect 1 0 2 0;
#X connect 2 0 0 1;
#X connect 8 0 0 0;
#X connect 11 0 16 0;
#X connect 11 0 20 0;
#X connect 12 0 14 0;
#X connect 13 0 12 0;
#X connect 14 0 11 0;
#X connect 15 0 31 0;
#X connect 19 0 29 1;
#X connect 19 0 29 3;
#X connect 20 0 24 1;
#X connect 21 0 28 0;
#X connect 22 0 21 0;
#X connect 24 1 25 0;
#X connect 25 0 27 0;
#X connect 26 0 25 1;
#X connect 28 0 24 0;
#X connect 28 1 29 0;
#X connect 29 0 15 0;
#X connect 29 0 23 0;
#X connect 31 0 6 0;
#X connect 33 0 29 4;
#X connect 34 0 35 0;
#X connect 35 0 33 0;
