#N canvas 46 45 647 521 10;
#X text 146 172 position in buffer(ms);
#X text 416 246 half window for one grain;
#X obj 42 172 nbx 10 14 -1e+37 1e+37 0 0 empty empty empty 0 -8 0 10
-262144 -1 -1 0 256;
#X obj 106 205 moses;
#X obj 138 225 spigot;
#X obj 175 129 tgl 15 0 empty empty loop 17 7 0 10 -204786 -1 -1 0
1;
#X obj 42 204 t a a;
#X obj 450 447 out-mono;
#X obj 344 158 sample \$0-sample;
#X obj 40 483 bng 15 250 50 0 empty empty overflow 17 7 0 10 -262144
-1 -1;
#X floatatom 365 480 5 0 0 0 voices_active - -;
#X obj 40 426 list prepend \$0-sample;
#X obj 27 11 cnv 15 500 40 empty empty Universal_Polyphonic_Player
10 10 0 14 -233017 -66577 0;
#X obj 54 375 s \$0-lastgrain;
#X obj 138 245 s \$0-restart;
#X obj 42 97 tgl 25 0 empty empty play 0 -8 0 10 -258113 -1 -1 0 1
;
#X obj 88 110 nbx 5 14 0.01 10 1 0 empty empty empty 0 -8 0 10 -204786
-1 -1 1.00018 256;
#X obj 91 92 hsl 128 15 0.01 10 1 1 empty empty speed -2 -8 0 10 -204786
-1 -1 8467 1;
#X obj 114 296 nbx 5 14 1 1000 1 1 empty empty grain_length 0 -8 0
10 -204786 -1 -1 200 256;
#X obj 114 315 / 2;
#X text 34 34 synchronous granular playing with pitch-shift;
#X obj 239 92 nbx 5 14 -1e+37 1e+37 0 0 empty empty pitch-shift_(halftones)
0 -8 0 10 -204786 -1 -1 0 256;
#X obj 239 401 expr pow(2 \, $f1/12);
#X obj 40 403 list append 1;
#X obj 450 425 catch~ \$0-bus;
#X obj 40 346 pack 0 100 0 100 0;
#X text 176 346 attack sustain decay delay;
#X obj 416 265 wnd-lin \$0-wnd 1024;
#X text 414 14 grrrr.org \, 2012;
#X obj 40 450 upp.xc 10 voice-mono \$0-bus syn-grain-varcorr \$0-wnd
1024;
#N canvas 356 71 529 455 playcorr 0;
#X obj 51 407 outlet;
#X obj 50 366 f;
#X obj 266 99 +;
#X obj 150 250 +;
#X obj 69 268 spigot;
#X obj 49 74 t a a;
#X obj 50 121 sel 1;
#X msg 50 144 0;
#X msg 126 76 0;
#X obj 230 219 * 1;
#X obj 426 157 nbx 5 14 0 1000 0 0 empty empty speed 0 -8 0 10 -262144
-1 -1 1.00018 256;
#X text 228 236 time increment;
#X text 296 99 attack+sustain;
#X text 231 201 scale delay time;
#X text 147 268 new playpos;
#X text 122 32 reset playpos;
#X obj 235 74 unpack 0 0 0 0 0;
#X obj 289 123 +;
#X text 316 125 +delay;
#X obj 156 404 outlet;
#X text 151 420 delay;
#X obj 35 181 cnv 15 100 60 empty empty empty 20 12 0 14 -233017 -66577
0;
#N canvas 393 411 170 180 delay 0;
#X obj 59 25 inlet;
#X obj 56 136 outlet;
#X obj 91 99 delay;
#X obj 56 65 moses 0.001;
#X connect 0 0 3 0;
#X connect 2 0 1 0;
#X connect 3 0 1 0;
#X connect 3 1 2 0;
#X restore 49 214 pd delay;
#N canvas 416 326 355 420 blk 0;
#X obj 62 20 inlet;
#X obj 60 362 outlet;
#X obj 191 361 outlet;
#X obj 169 78 samplerate~;
#X obj 169 98 / 1000;
#X obj 61 125 *;
#X text 63 142 delay-time in samples;
#X obj 60 172 / 64;
#X obj 60 192 int;
#X text 87 192 truncate;
#X obj 61 232 * 64;
#X obj 61 261 /;
#X obj 192 261 -;
#X obj 61 50 t a b a;
#X obj 192 308 * -1;
#X obj 61 311 + 1e-05;
#X text 55 328 account for;
#X text 55 338 rounding errors;
#X text 188 377 sub-block delay;
#X text 32 279 whole block delay;
#X text 196 324 total - blocks;
#X text 196 279 blocks - total;
#X text 23 209 number of whole blocks;
#X connect 0 0 13 0;
#X connect 3 0 4 0;
#X connect 4 0 5 1;
#X connect 4 0 11 1;
#X connect 5 0 7 0;
#X connect 7 0 8 0;
#X connect 8 0 10 0;
#X connect 10 0 11 0;
#X connect 11 0 12 0;
#X connect 11 0 15 0;
#X connect 12 0 14 0;
#X connect 13 0 5 0;
#X connect 13 1 3 0;
#X connect 13 2 12 1;
#X connect 14 0 2 0;
#X connect 15 0 1 0;
#X restore 70 190 pd blk;
#X obj 49 44 inlet;
#X text 47 27 play 0/1;
#X obj 125 52 r \$0-restart;
#X obj 235 52 r \$0-lastgrain;
#X obj 426 46 inlet;
#X text 424 29 speed;
#X connect 1 0 0 0;
#X connect 2 0 9 0;
#X connect 2 0 17 0;
#X connect 3 0 1 1;
#X connect 4 0 1 0;
#X connect 5 0 6 0;
#X connect 5 1 4 1;
#X connect 6 0 7 0;
#X connect 7 0 22 0;
#X connect 8 0 3 0;
#X connect 9 0 3 1;
#X connect 10 0 9 1;
#X connect 16 0 3 0;
#X connect 16 1 2 0;
#X connect 16 2 2 1;
#X connect 16 4 17 1;
#X connect 17 0 23 0;
#X connect 22 0 4 0;
#X connect 23 0 22 0;
#X connect 23 1 19 0;
#X connect 24 0 5 0;
#X connect 26 0 8 0;
#X connect 27 0 16 0;
#X connect 28 0 10 0;
#X restore 42 135 pd playcorr;
#X connect 2 0 6 0;
#X connect 3 1 4 0;
#X connect 4 0 14 0;
#X connect 5 0 4 1;
#X connect 6 0 3 0;
#X connect 6 1 25 0;
#X connect 8 0 3 1;
#X connect 11 0 29 0;
#X connect 15 0 30 0;
#X connect 16 0 30 1;
#X connect 17 0 16 0;
#X connect 18 0 19 0;
#X connect 19 0 25 1;
#X connect 19 0 25 3;
#X connect 21 0 22 0;
#X connect 22 0 23 1;
#X connect 23 0 11 0;
#X connect 24 0 7 0;
#X connect 25 0 13 0;
#X connect 25 0 23 0;
#X connect 29 0 9 0;
#X connect 29 2 10 0;
#X connect 30 0 2 0;
#X connect 30 1 25 4;
