#N canvas 110 215 655 452 10;
#X obj 412 343 *~ 0;
#X obj 470 323 hsl 128 15 0 127 0 0 empty empty empty -2 -8 0 10 -262144
-1 -1 9700 1;
#X obj 467 343 dbtopow;
#X obj 412 384 dac~;
#X text 531 343 gain (dB);
#X text 463 385 audio out;
#X obj 40 379 bng 15 250 50 0 empty empty empty 17 7 0 10 -262144 -1
-1;
#X text 57 381 overflow;
#X obj 412 290 catch~ bus;
#N canvas 588 126 264 339 env 0;
#X obj 54 292 table wnd 1024;
#X msg 64 54 1024;
#X obj 62 76 t a b;
#X obj 62 100 until;
#X obj 62 128 f;
#X obj 94 128 + 1;
#X msg 104 100 0;
#X obj 62 170 / 1024;
#X obj 55 254 tabwrite wnd;
#X obj 62 150 t a a;
#X text 47 236 value;
#X text 108 236 index;
#X obj 56 211 expr sin($f1*1.5708);
#X obj 64 15 loadbang;
#X connect 1 0 2 0;
#X connect 2 0 3 0;
#X connect 2 1 6 0;
#X connect 3 0 4 0;
#X connect 4 0 5 0;
#X connect 4 0 9 0;
#X connect 5 0 4 1;
#X connect 6 0 4 1;
#X connect 7 0 12 0;
#X connect 9 0 7 0;
#X connect 9 1 8 1;
#X connect 12 0 8 0;
#X connect 13 0 1 0;
#X restore 416 218 pd env;
#X obj 496 116 table sample;
#X obj 410 116 soundfiler;
#X obj 410 63 openpanel;
#X obj 411 41 bng 15 250 50 0 empty empty empty 17 7 0 10 -262144 -1
-1;
#X msg 409 92 read -resize \$1 sample;
#X obj 39 316 list prepend sample;
#X obj 410 137 nbx 10 14 -1e+37 1e+37 0 0 empty empty empty 0 -8 0
10 -262144 -1 -1 557281 256;
#X text 40 107 position in buffer(ms);
#X text 414 199 half window for one grain;
#X floatatom 81 236 5 0 0 0 - - -;
#N canvas 677 379 262 229 samples2ms 0;
#X obj 57 25 inlet;
#X obj 84 80 samplerate~;
#X obj 56 50 t a b;
#X obj 83 125 / 1000;
#X obj 55 200 outlet;
#X text 93 97 samples/s;
#X text 89 142 samples/ms;
#X obj 56 172 /;
#X connect 0 0 2 0;
#X connect 1 0 3 0;
#X connect 2 0 7 0;
#X connect 2 1 1 0;
#X connect 3 0 7 1;
#X connect 7 0 4 0;
#X restore 223 112 pd samples2ms;
#X obj 41 125 nbx 10 14 -1e+37 1e+37 0 0 empty empty empty 0 -8 0 10
-262144 -1 -1 6022.07 256;
#N canvas 356 71 407 451 play 0;
#X obj 51 406 outlet;
#X obj 50 366 f;
#X obj 266 99 +;
#X obj 150 250 +;
#X obj 69 268 spigot;
#X obj 48 43 tgl 25 0 empty empty play 17 7 0 10 -258113 -1 -1 0 1
;
#X obj 49 74 t a a;
#X obj 50 121 sel 1;
#X msg 50 144 0;
#X msg 126 76 0;
#X obj 230 219 * 1;
#X obj 289 167 nbx 5 14 0.001 10 1 0 empty empty speed 0 -8 0 10 -262144
-1 -1 0.001 256;
#X text 228 236 time increment;
#X obj 235 52 r lastgrain;
#X obj 125 52 r restart;
#X text 296 99 attack+sustain;
#X text 231 201 scale delay time;
#X text 147 268 new playpos;
#X text 122 32 reset playpos;
#X obj 235 74 unpack 0 0 0 0 0;
#X obj 289 123 +;
#X text 316 125 +delay;
#X obj 156 404 outlet;
#X text 151 420 delay;
#X obj 35 181 cnv 15 100 60 empty empty empty 20 12 0 14 -233017 -66577
0;
#N canvas 897 546 170 180 delay 0;
#X obj 59 25 inlet;
#X obj 56 136 outlet;
#X obj 56 65 moses 1;
#X obj 91 99 delay;
#X connect 0 0 2 0;
#X connect 2 0 1 0;
#X connect 2 1 3 0;
#X connect 3 0 1 0;
#X restore 49 214 pd delay;
#N canvas 416 326 355 420 blk 0;
#X obj 62 20 inlet;
#X obj 60 362 outlet;
#X obj 191 361 outlet;
#X obj 169 78 samplerate~;
#X obj 169 98 / 1000;
#X obj 61 125 *;
#X text 63 142 delay-time in samples;
#X obj 60 172 / 64;
#X obj 60 192 int;
#X text 87 192 truncate;
#X obj 61 232 * 64;
#X obj 61 261 /;
#X obj 192 261 -;
#X obj 61 50 t a b a;
#X obj 192 308 * -1;
#X obj 61 311 + 1e-05;
#X text 55 328 account for;
#X text 55 338 rounding errors;
#X text 188 377 sub-block delay;
#X text 32 279 whole block delay;
#X text 196 324 total - blocks;
#X text 196 279 blocks - total;
#X text 23 209 number of whole blocks;
#X connect 0 0 13 0;
#X connect 3 0 4 0;
#X connect 4 0 5 1;
#X connect 4 0 11 1;
#X connect 5 0 7 0;
#X connect 7 0 8 0;
#X connect 8 0 10 0;
#X connect 10 0 11 0;
#X connect 11 0 12 0;
#X connect 11 0 15 0;
#X connect 12 0 14 0;
#X connect 13 0 5 0;
#X connect 13 1 3 0;
#X connect 13 2 12 1;
#X connect 14 0 2 0;
#X connect 15 0 1 0;
#X restore 70 190 pd blk;
#X connect 1 0 0 0;
#X connect 2 0 10 0;
#X connect 2 0 20 0;
#X connect 3 0 1 1;
#X connect 4 0 1 0;
#X connect 5 0 6 0;
#X connect 6 0 7 0;
#X connect 6 1 4 1;
#X connect 7 0 8 0;
#X connect 8 0 25 0;
#X connect 9 0 3 0;
#X connect 10 0 3 1;
#X connect 11 0 10 1;
#X connect 13 0 19 0;
#X connect 14 0 9 0;
#X connect 19 0 3 0;
#X connect 19 1 2 0;
#X connect 19 2 2 1;
#X connect 19 4 20 1;
#X connect 20 0 26 0;
#X connect 25 0 4 0;
#X connect 26 0 25 0;
#X connect 26 1 22 0;
#X restore 41 46 pd play;
#X obj 197 287 s lastgrain;
#X obj 102 158 moses;
#X obj 141 180 spigot;
#X obj 171 46 tgl 15 0 empty empty loop 17 7 0 10 -262144 -1 -1 1 1
;
#X obj 141 199 s restart;
#X obj 42 158 t a a;
#X obj 213 157 cnv 15 180 100 empty empty empty 20 12 0 14 -233017
-66577 0;
#X obj 235 230 nbx 5 14 -1e+37 1e+37 0 0 empty empty empty 0 -8 0 10
-262144 -1 -1 0.862542 256;
#X obj 236 184 nbx 5 14 -1e+37 1e+37 0 0 empty empty empty 0 -8 0 10
-262144 -1 -1 -2.56 256;
#X obj 236 207 expr pow(2 \, $f1/12);
#X text 234 169 pitch shift;
#X text 273 336 VVVVV;
#X obj 39 286 pack 0 200 0 200 0 1;
#X text 37 267 attack sustain decay delay speed;
#X obj 40 352 x11 x10 voice-mono bus syn-grain-varcorr wnd 1024;
#X connect 0 0 3 0;
#X connect 0 0 3 1;
#X connect 1 0 2 0;
#X connect 2 0 0 1;
#X connect 8 0 0 0;
#X connect 11 0 16 0;
#X connect 11 0 20 0;
#X connect 12 0 14 0;
#X connect 13 0 12 0;
#X connect 14 0 11 0;
#X connect 15 0 37 0;
#X connect 19 0 35 1;
#X connect 19 0 35 3;
#X connect 20 0 24 1;
#X connect 21 0 28 0;
#X connect 22 0 21 0;
#X connect 22 1 35 4;
#X connect 24 1 25 0;
#X connect 25 0 27 0;
#X connect 26 0 25 1;
#X connect 28 0 24 0;
#X connect 28 1 35 0;
#X connect 30 0 35 5;
#X connect 31 0 32 0;
#X connect 32 0 30 0;
#X connect 35 0 15 0;
#X connect 35 0 23 0;
#X connect 37 0 6 0;
