#N canvas 333 426 458 255 10;
#X obj 41 139 spigot;
#X obj 180 141 spigot;
#X obj 80 120 == 0;
#X obj 44 33 inlet;
#X obj 40 190 outlet;
#X obj 179 191 outlet;
#X obj 184 33 inlet;
#X text 44 158 if arg=0;
#X text 184 160 if arg=1;
#X text 171 65 not directly setting the spigot args;
#X text 171 79 avoids problems if right outlet sets it;
#X obj 84 68 t a b;
#X obj 137 68 f 0;
#X connect 0 0 4 0;
#X connect 1 0 5 0;
#X connect 2 0 0 1;
#X connect 3 0 11 0;
#X connect 6 0 12 1;
#X connect 11 0 0 0;
#X connect 11 0 1 0;
#X connect 11 1 12 0;
#X connect 12 0 1 1;
#X connect 12 0 2 0;
