#N canvas 368 44 619 727 10;
#X obj 67 104 inlet;
#X obj 67 198 until;
#X msg 113 198 0;
#X obj 67 219 f;
#X obj 217 299 list trim;
#X msg 216 253 list obj 50 \$1;
#X obj 67 164 t a b a;
#X obj 62 282 moses 1;
#X obj 121 282 moses;
#X obj 152 260 - 1;
#X obj 89 351 t a a;
#X obj 90 394 pack;
#X msg 90 414 connect \$1 0 \$2 0 \, connect 1 0 \$2 1 \, connect \$2
1 3 0;
#X obj 177 350 t a a;
#X obj 178 393 pack;
#X msg 99 451 connect \$1 0 \$2 0 \, connect 1 0 \$2 1 \, connect \$2
1 3 0 \, connect \$2 0 2 0;
#X msg 62 329 connect 0 0 \$1 0 \, connect 1 0 \$1 1 \, connect \$1
1 3 0;
#X obj 90 371 - 1;
#X obj 178 370 - 1;
#X obj 67 125 list split 1;
#X obj 64 532 t b a b;
#X msg 65 634 \; pd-voices connect 53 0 2 0;
#X obj 64 510 list prepend;
#X obj 85 578 list prepend add2;
#X msg 109 555 set \, addsemi;
#X obj 82 604 list trim;
#X text 62 666 dynamic message;
#X obj 216 233 expr $f1*20+50;
#X obj 402 107 inlet;
#X obj 217 278 list append;
#X obj 97 219 + 1;
#X obj 372 654 outlet;
#X msg 150 162 symbol pd-\$1;
#X obj 467 652 outlet;
#X obj 67 237 t a a a a;
#X obj 63 304 + \$1;
#X obj 119 306 + \$1;
#X obj 157 307 + \$1;
#X text 468 674 pre-creation;
#X text 354 674 post-creation;
#X text 63 15 dynamically creates chained voices;
#X text 63 34 arg1: offset index into sub-patch (= number of existing
objects in sub-patch);
#X text 65 84 voice-count sub-patch;
#X text 401 86 object_to_create (list);
#X connect 0 0 19 0;
#X connect 1 0 3 0;
#X connect 2 0 3 1;
#X connect 3 0 30 0;
#X connect 3 0 34 0;
#X connect 4 0 22 0;
#X connect 5 0 29 0;
#X connect 6 0 1 0;
#X connect 6 1 2 0;
#X connect 6 2 9 0;
#X connect 7 0 35 0;
#X connect 7 1 8 0;
#X connect 8 0 36 0;
#X connect 8 1 37 0;
#X connect 9 0 8 1;
#X connect 10 0 17 0;
#X connect 10 1 11 1;
#X connect 11 0 12 0;
#X connect 12 0 22 0;
#X connect 13 0 18 0;
#X connect 13 1 14 1;
#X connect 14 0 15 0;
#X connect 15 0 22 0;
#X connect 16 0 22 0;
#X connect 17 0 11 0;
#X connect 18 0 14 0;
#X connect 19 0 6 0;
#X connect 19 1 32 0;
#X connect 20 0 21 0;
#X connect 20 1 23 0;
#X connect 20 2 24 0;
#X connect 22 0 20 0;
#X connect 23 0 25 0;
#X connect 24 0 21 0;
#X connect 25 0 21 0;
#X connect 27 0 5 0;
#X connect 28 0 29 1;
#X connect 29 0 4 0;
#X connect 30 0 3 1;
#X connect 32 0 22 1;
#X connect 34 0 7 0;
#X connect 34 1 31 0;
#X connect 34 2 27 0;
#X connect 34 3 33 0;
#X connect 35 0 16 0;
#X connect 36 0 10 0;
#X connect 37 0 13 0;
