#N canvas 884 716 488 204 10;
#X obj 39 67 flowctrl;
#X obj 39 23 inlet;
#X obj 39 143 outlet;
#X obj 154 143 outlet;
#X obj 154 25 t a b;
#X obj 365 24 loadbang;
#X text 38 159 pass;
#X text 152 160 release;
#X obj 352 82 cnv 15 100 100 empty empty empty 20 12 0 14 -233017 -66577
0;
#X obj 384 149 switch~;
#X msg 401 102 1;
#X msg 366 102 0;
#X obj 385 127 tgl 15 0 empty empty empty 17 7 0 10 -262144 -1 -1 0
1;
#X obj 89 24 inlet;
#X obj 154 69 \$1 \$2 \$3 \$4 \$5 \$6 \$7 \$8 \$9;
#X obj 154 113 t a b;
#X connect 0 0 2 0;
#X connect 0 1 4 0;
#X connect 1 0 0 0;
#X connect 4 0 14 0;
#X connect 4 1 10 0;
#X connect 5 0 11 0;
#X connect 10 0 12 0;
#X connect 11 0 12 0;
#X connect 12 0 9 0;
#X connect 13 0 14 1;
#X connect 14 0 15 0;
#X connect 15 0 3 0;
#X connect 15 1 11 0;
#X connect 15 1 0 1;
