#N canvas 341 168 393 456 10;
#X obj 47 95 inlet;
#X text 142 240 S;
#X obj 141 209 *;
#X obj 107 209 *;
#X obj 107 238 +;
#X obj 108 283 log;
#X obj 108 308 /;
#X obj 108 328 * -2;
#X obj 108 349 sqrt;
#X obj 44 383 *;
#X obj 44 410 outlet;
#X obj 47 114 t b b;
#X text 28 13 deliver normally distributed random number with unit
standard deviation and zero mean;
#X obj 46 142 urnd;
#X obj 45 173 t a a a;
#X obj 127 174 t a a;
#X obj 127 143 urnd;
#X obj 108 264 t a a;
#X text 29 43 Box-Muller transformation;
#X obj 45 292 cos;
#X obj 45 264 * 6.28319;
#X connect 0 0 11 0;
#X connect 2 0 4 1;
#X connect 3 0 4 0;
#X connect 4 0 17 0;
#X connect 5 0 6 0;
#X connect 6 0 7 0;
#X connect 7 0 8 0;
#X connect 8 0 9 1;
#X connect 9 0 10 0;
#X connect 11 0 13 0;
#X connect 11 1 16 0;
#X connect 13 0 14 0;
#X connect 14 0 20 0;
#X connect 14 1 3 0;
#X connect 14 2 3 1;
#X connect 15 0 2 0;
#X connect 15 1 2 1;
#X connect 16 0 15 0;
#X connect 17 0 5 0;
#X connect 17 1 6 1;
#X connect 19 0 9 0;
#X connect 20 0 19 0;
