#N canvas 196 349 555 300 10;
#X obj 52 95 kbd;
#X obj 27 11 cnv 15 500 40 empty empty keyboard 10 10 0 14 -233017
-66577 0;
#X text 414 14 grrrr.org \, 2011;
#X text 34 32 play MIDI notes with octave shift and inhibited repetition
;
#X text 198 144 - middle row keys play notes;
#X text 199 93 - select your keyboard layout;
#X text 210 108 (english \, german \, french \, spanish);
#X obj 52 232 print NOTE;
#X obj 70 148 unpack;
#X floatatom 70 187 5 0 0 2 MIDI_note - -;
#X obj 109 187 tgl 15 0 empty empty down/up 17 7 0 10 -262144 -1 -1
0 1;
#X text 210 194 (some key combinations might not be recognized);
#X text 198 180 - you can play chords;
#X text 212 159 (on US keyboard: a w s e d f t g y h etc.);
#X text 198 126 - numeric keys 1 2 3 4 etc. select octave;
#X connect 0 0 7 0;
#X connect 0 0 8 0;
#X connect 8 0 9 0;
#X connect 8 1 10 0;
