#N canvas 311 92 706 522 10;
#X obj 50 35 keyname;
#X symbolatom 97 61 10 0 0 0 - - -;
#X obj 96 377 + 60;
#X obj 256 32 loadbang;
#X obj 256 52 symbol \$1;
#X msg 271 145 list a w s e d f t g z h u j k o l p ö ä + #;
#X text 602 169 FR;
#X text 614 195 ES;
#X text 589 146 DE_de DE_at;
#X text 564 121 EN_us EN_gb;
#X msg 288 170 list q z s e d f t g y h u j k o l p m ù $;
#X obj 256 76 select en us de fr es;
#X obj 50 60 tgl 15 0 empty empty empty 17 7 0 10 -262144 -1 -1 0 1
;
#X obj 68 60 bng 15 250 50 0 empty empty empty 17 7 0 10 -262144 -1
-1;
#X obj 49 406 swap;
#X obj 50 427 pack;
#X obj 50 448 outlet;
#X text 48 467 note on/off;
#X obj 157 348 * 12;
#X obj 183 34 key;
#X msg 255 121 list a w s e d f t g y h u j k o l p \;;
#X obj 96 318 nbx 5 14 -1e+37 1e+37 0 0 empty empty note 0 -8 0 10
-262144 -1 -1 14 256;
#X obj 157 319 nbx 5 14 -1e+37 1e+37 0 0 empty empty octave 0 -8 0
10 -262144 -1 -1 6 256;
#X msg 309 195 list a w s e d f g y h u j k o l p ñ \;;
#X obj 432 29 inlet;
#X obj 432 50 list trim;
#X obj 433 68 list prepend symbol;
#X obj 433 86 list trim;
#X text 476 32 digest selector and symbol;
#N canvas 1054 261 233 228 octave 0;
#X obj 47 80 moses 49;
#X text 127 98 >=;
#X text 52 96 <;
#X obj 48 111 select 48;
#X obj 129 133 - 49;
#X msg 48 132 9;
#X obj 47 166 outlet;
#X obj 48 47 inlet;
#X obj 129 112 moses 58;
#X connect 0 0 3 0;
#X connect 0 1 8 0;
#X connect 3 0 5 0;
#X connect 4 0 6 0;
#X connect 5 0 6 0;
#X connect 7 0 0 0;
#X connect 8 0 4 0;
#X restore 157 277 pd octave;
#N canvas 624 223 411 391 findsymbol 0;
#X obj 61 37 inlet;
#X obj 222 35 inlet;
#X text 221 12 list of symbols;
#X text 58 15 symbols;
#X obj 60 125 list split 1;
#X obj 60 103 list;
#X obj 60 247 f;
#X msg 260 113 0;
#X obj 243 189 f;
#X obj 274 189 + 1;
#X obj 187 136 list;
#X obj 38 163 t b a b;
#X obj 61 192 select sym;
#X obj 61 63 t b a b a;
#X obj 60 328 outlet;
#X obj 238 304 symbol;
#X obj 239 327 outlet;
#X text 58 346 index of found symbol;
#X text 237 346 symbol not found;
#X obj 60 276 t a b;
#X obj 186 116 spigot;
#X msg 224 91 1;
#X msg 191 92 0;
#X connect 0 0 13 0;
#X connect 1 0 5 1;
#X connect 4 0 11 0;
#X connect 4 1 10 1;
#X connect 4 2 15 0;
#X connect 5 0 4 0;
#X connect 6 0 19 0;
#X connect 7 0 8 1;
#X connect 8 0 6 1;
#X connect 8 0 9 0;
#X connect 9 0 8 1;
#X connect 10 0 4 0;
#X connect 11 0 20 0;
#X connect 11 1 12 0;
#X connect 11 2 8 0;
#X connect 12 0 6 0;
#X connect 13 0 5 0;
#X connect 13 1 12 1;
#X connect 13 2 7 0;
#X connect 13 2 21 0;
#X connect 13 3 15 1;
#X connect 15 0 16 0;
#X connect 19 0 14 0;
#X connect 19 1 22 0;
#X connect 20 0 10 0;
#X connect 21 0 20 1;
#X connect 22 0 20 1;
#X restore 97 183 pd findsymbol;
#X obj 158 207 t b;
#X obj 158 246 swap;
#X msg 158 226 0;
#X connect 0 0 12 0;
#X connect 0 0 13 0;
#X connect 0 1 1 0;
#X connect 1 0 30 0;
#X connect 2 0 14 1;
#X connect 3 0 4 0;
#X connect 4 0 11 0;
#X connect 5 0 30 1;
#X connect 10 0 30 1;
#X connect 11 0 20 0;
#X connect 11 1 20 0;
#X connect 11 2 5 0;
#X connect 11 3 10 0;
#X connect 11 4 23 0;
#X connect 11 5 20 0;
#X connect 12 0 14 0;
#X connect 14 0 15 0;
#X connect 14 1 15 1;
#X connect 15 0 16 0;
#X connect 18 0 2 1;
#X connect 19 0 32 1;
#X connect 20 0 30 1;
#X connect 21 0 2 0;
#X connect 22 0 18 0;
#X connect 23 0 30 1;
#X connect 24 0 25 0;
#X connect 25 0 26 0;
#X connect 26 0 27 0;
#X connect 27 0 4 0;
#X connect 29 0 22 0;
#X connect 30 0 21 0;
#X connect 30 1 31 0;
#X connect 31 0 33 0;
#X connect 32 0 29 0;
#X connect 33 0 32 0;
