#N canvas 0 22 544 375 10;
#X floatatom 71 51 5 0 0 0 - - -;
#X msg 71 119 0;
#X msg 103 120 1;
#X msg 137 120 2;
#X msg 171 120 3;
#X msg 205 123 4;
#X msg 238 121 5;
#X msg 275 124 6;
#X msg 311 121 7;
#X msg 344 119 8;
#X msg 381 122 9;
#X msg 414 122 10;
#X msg 451 122 11;
#X floatatom 241 284 5 0 0 0 - - -;
#X obj 71 73 select 97 119 115 101 100 102 116 103 122 104 117 106
107 111 108 112 246 228 43 35;
#X msg 74 147 12;
#X msg 106 148 13;
#X msg 140 148 14;
#X msg 174 148 15;
#X msg 208 151 16;
#X msg 241 149 17;
#X msg 278 152 18;
#X msg 314 149 19;
#X msg 347 147 20;
#X msg 384 151 21;
#X msg 417 150 22;
#X msg 454 150 23;
#X obj 240 315 outlet;
#X obj 241 265 + 60;
#X obj 70 24 keyup;
#X connect 0 0 14 0;
#X connect 1 0 28 0;
#X connect 2 0 28 0;
#X connect 3 0 28 0;
#X connect 4 0 28 0;
#X connect 5 0 28 0;
#X connect 6 0 28 0;
#X connect 7 0 28 0;
#X connect 8 0 28 0;
#X connect 9 0 28 0;
#X connect 10 0 28 0;
#X connect 11 0 28 0;
#X connect 12 0 28 0;
#X connect 13 0 27 0;
#X connect 14 0 1 0;
#X connect 14 1 2 0;
#X connect 14 2 3 0;
#X connect 14 3 4 0;
#X connect 14 4 5 0;
#X connect 14 5 6 0;
#X connect 14 6 7 0;
#X connect 14 7 8 0;
#X connect 14 8 9 0;
#X connect 14 9 10 0;
#X connect 14 10 11 0;
#X connect 14 11 12 0;
#X connect 14 12 15 0;
#X connect 14 13 16 0;
#X connect 14 14 17 0;
#X connect 14 15 18 0;
#X connect 14 16 19 0;
#X connect 14 17 20 0;
#X connect 14 18 21 0;
#X connect 14 19 22 0;
#X connect 15 0 28 0;
#X connect 16 0 28 0;
#X connect 17 0 28 0;
#X connect 18 0 28 0;
#X connect 19 0 28 0;
#X connect 20 0 28 0;
#X connect 21 0 28 0;
#X connect 22 0 28 0;
#X connect 23 0 28 0;
#X connect 24 0 28 0;
#X connect 25 0 28 0;
#X connect 26 0 28 0;
#X connect 28 0 13 0;
#X connect 29 0 0 0;
