#N canvas 26 39 330 259 10;
#X obj 68 129 osc~;
#X obj 68 179 *~;
#X obj 137 129 vline~;
#X obj 68 53 t a b;
#X text 142 88 attack+decay;
#X text 140 147 volume envelope;
#X text 30 130 sine;
#X obj 68 27 inlet;
#X obj 68 207 outlet~;
#X obj 68 105 mtof;
#X text 120 27 MIDI note in;
#X msg 136 105 1 20 \, 0 800 20;
#X connect 0 0 1 0;
#X connect 1 0 8 0;
#X connect 2 0 1 1;
#X connect 3 0 9 0;
#X connect 3 1 11 0;
#X connect 7 0 3 0;
#X connect 9 0 0 0;
#X connect 11 0 2 0;
