#N canvas 1786 217 732 630 10;
#X obj 210 30 inlet;
#X obj 65 281 outlet;
#X obj 66 229 delay;
#X text 37 160 total duration;
#X text 45 299 bang when ready;
#X obj 190 144 cnv 15 250 200 empty empty empty 20 12 0 14 -233017
-66577 0;
#X obj 237 204 osc~;
#X obj 237 253 *~;
#X obj 306 203 vline~;
#X text 311 162 attack+decay;
#X text 309 221 volume envelope;
#X text 203 204 sine;
#X obj 237 281 outlet~;
#X obj 237 178 mtof;
#X text 231 302 audio out;
#X text 175 11 midinote volume attack decay;
#X obj 237 87 unpack 0 0 0 0;
#X obj 211 53 t b a a;
#X msg 305 180 \$2 \$3 \, 0 \$4 \$3;
#X obj 65 197 +;
#X connect 0 0 17 0;
#X connect 2 0 1 0;
#X connect 6 0 7 0;
#X connect 7 0 12 0;
#X connect 8 0 7 1;
#X connect 13 0 6 0;
#X connect 16 0 13 0;
#X connect 16 2 19 0;
#X connect 16 3 19 1;
#X connect 17 1 16 0;
#X connect 17 2 18 0;
#X connect 18 0 8 0;
#X connect 19 0 2 0;
