#N canvas 620 324 572 409 10;
#X obj 129 34 inlet;
#X obj 66 316 outlet;
#X text 46 334 bang when ready;
#X obj 191 179 cnv 15 250 200 empty empty empty 20 12 0 14 -233017
-66577 0;
#X obj 238 217 osc~;
#X obj 238 288 *~;
#X obj 307 238 vline~;
#X text 310 256 volume envelope;
#X text 204 215 sine;
#X obj 238 193 mtof;
#X text 232 337 audio out;
#X obj 167 83 t b a a;
#X obj 191 104 unpack 0 0 0 0;
#X text 128 13 bus midinote volume attack decay;
#X obj 129 58 list split 1;
#X msg 184 286 set \$1;
#X obj 238 316 throw~ \$0-dummy;
#X obj 237 385 catch~ \$0-dummy;
#X obj 400 35 inlet;
#X obj 65 225 delay;
#X obj 307 135 f;
#X msg 306 201 \$2 \$3;
#X text 296 183 volume+attack;
#X obj 399 58 t b;
#X msg 367 202 0 \$1;
#X connect 0 0 14 0;
#X connect 4 0 5 0;
#X connect 5 0 16 0;
#X connect 6 0 5 1;
#X connect 9 0 4 0;
#X connect 11 1 12 0;
#X connect 11 2 21 0;
#X connect 12 0 9 0;
#X connect 12 3 20 1;
#X connect 14 0 15 0;
#X connect 14 1 11 0;
#X connect 15 0 16 0;
#X connect 18 0 23 0;
#X connect 19 0 1 0;
#X connect 20 0 19 0;
#X connect 20 0 24 0;
#X connect 21 0 6 0;
#X connect 23 0 20 0;
#X connect 24 0 6 0;
