#N canvas 98 294 627 525 10;
#X obj 184 32 inlet;
#X obj 65 427 outlet;
#X text 47 447 bang when ready;
#X obj 173 246 cnv 15 350 200 empty empty empty 20 12 0 14 -233017
-66577 0;
#X obj 247 280 osc~;
#X obj 279 372 *~;
#X obj 369 336 vline~;
#X text 366 354 volume envelope;
#X text 213 278 sine;
#X obj 247 259 mtof;
#X text 232 424 audio out;
#X obj 224 114 t b a a;
#X obj 184 94 list split 1;
#X msg 184 353 set \$1;
#X obj 238 403 throw~ \$0-dummy;
#X obj 391 404 catch~ \$0-dummy;
#X obj 439 34 inlet;
#X obj 65 298 delay;
#X obj 439 201 f;
#X obj 439 158 t b;
#X msg 476 298 0 \$1;
#X text 437 16 mod msg;
#X obj 369 297 pack 0 0 0;
#X obj 369 269 *;
#X msg 317 297 \$2 \$3;
#X obj 247 158 unpack 0 0 0 0 0 0;
#X obj 65 245 spigot;
#X obj 65 265 t a b;
#X msg 119 257 0;
#X msg 119 218 1;
#X text 37 220 only once!;
#X text 59 14 tag bus midinote volume A(ms) D(ms) S(gain) R(ms);
#X obj 184 62 list split 1;
#X text 158 62 tag;
#X obj 439 64 list split 1;
#X text 413 64 tag;
#X connect 0 0 32 0;
#X connect 4 0 5 0;
#X connect 5 0 14 0;
#X connect 6 0 5 1;
#X connect 9 0 4 0;
#X connect 11 0 29 0;
#X connect 11 1 25 0;
#X connect 11 2 24 0;
#X connect 12 0 13 0;
#X connect 12 1 11 0;
#X connect 13 0 14 0;
#X connect 16 0 34 0;
#X connect 17 0 1 0;
#X connect 18 0 20 0;
#X connect 18 0 26 0;
#X connect 19 0 18 0;
#X connect 20 0 6 0;
#X connect 22 0 6 0;
#X connect 23 0 22 0;
#X connect 24 0 6 0;
#X connect 25 0 9 0;
#X connect 25 1 23 0;
#X connect 25 2 22 2;
#X connect 25 3 22 1;
#X connect 25 4 23 1;
#X connect 25 5 18 1;
#X connect 26 0 27 0;
#X connect 27 0 17 0;
#X connect 27 1 28 0;
#X connect 28 0 26 1;
#X connect 29 0 26 1;
#X connect 32 1 12 0;
#X connect 34 0 19 0;
