#N canvas 55 41 468 381 10;
#X obj 211 31 inlet;
#X obj 65 281 outlet;
#X text 61 209 total duration;
#X text 45 299 bang when ready;
#X obj 190 144 cnv 15 250 200 empty empty empty 20 12 0 14 -233017
-66577 0;
#X obj 237 204 osc~;
#X obj 237 253 *~;
#X obj 306 203 vline~;
#X text 311 162 attack+decay;
#X text 309 221 volume envelope;
#X text 203 204 sine;
#X obj 237 281 outlet~;
#X obj 237 178 mtof;
#X text 231 302 audio out;
#X obj 211 53 t a b;
#X obj 65 227 delay 820;
#X text 209 14 midinote;
#X msg 305 180 1 20 \, 0 800 20;
#X obj 364 35 inlet;
#X text 362 19 dummy;
#X connect 0 0 14 0;
#X connect 5 0 6 0;
#X connect 6 0 11 0;
#X connect 7 0 6 1;
#X connect 12 0 5 0;
#X connect 14 0 12 0;
#X connect 14 1 17 0;
#X connect 14 1 15 0;
#X connect 15 0 1 0;
#X connect 17 0 7 0;
