#N canvas 225 202 524 316 10;
#X obj 30 28 inlet~;
#X obj 32 223 *~ 0;
#X obj 304 152 dbtopow;
#X text 153 265 audio out;
#X obj 304 83 nbx 4 16 -100 27 0 0 empty empty empty 0 -8 0 10 -262144
-1 -1 -20 256;
#X obj 307 101 hsl 128 16 -50 0 0 0 empty empty gain(dB) 75 -8 0 10
-204786 -1 -1 7620 1;
#X msg 462 152 set \$1;
#X msg 461 132 set \$1;
#X obj 304 133 + 100;
#X obj 304 31 loadbang;
#X msg 304 51 -20;
#X obj 86 28 inlet~;
#X obj 84 224 *~ 0;
#X obj 137 27 inlet~;
#X obj 193 27 inlet~;
#X obj 59 266 dac~ 1 2 3 4;
#X obj 134 227 *~ 0;
#X obj 172 227 *~ 0;
#X connect 0 0 1 0;
#X connect 1 0 15 0;
#X connect 2 0 1 1;
#X connect 2 0 12 1;
#X connect 2 0 16 1;
#X connect 2 0 17 1;
#X connect 4 0 8 0;
#X connect 4 0 7 0;
#X connect 5 0 8 0;
#X connect 5 0 6 0;
#X connect 6 0 4 0;
#X connect 7 0 5 0;
#X connect 8 0 2 0;
#X connect 9 0 10 0;
#X connect 10 0 4 0;
#X connect 11 0 12 0;
#X connect 12 0 15 1;
#X connect 13 0 16 0;
#X connect 14 0 17 0;
#X connect 16 0 15 2;
#X connect 17 0 15 3;
#X coords 0 -1 1 1 140 40 2 300 80;
