#N canvas 1884 205 760 544 16;
#X obj 186 69 inlet;
#X text 183 33 sample-buffer playpos attack sustain release;
#X text 322 16 (times in ms);
#X obj 184 115 list split 1;
#X obj 240 150 unpack 0 0 0 0;
#X obj 178 319 tabplay~;
#X msg 180 279 set \$1;
#X obj 219 231 ms2samples;
#X connect 0 0 3 0;
#X connect 3 0 6 0;
#X connect 3 1 4 0;
#X connect 4 0 7 0;
#X connect 6 0 5 0;
#X connect 7 0 5 0;
