#N canvas 273 76 354 321 10;
#X obj 42 184 soundfiler;
#X obj 42 107 openpanel;
#X obj 33 62 bng 25 250 50 0 empty empty load 0 -8 0 10 -261234 -1
-1;
#X msg 42 154 read -resize \$1 \$2;
#X obj 135 184 table \$1;
#X symbolatom 67 60 30 0 0 2 filename - -;
#X obj 42 267 outlet;
#X obj 42 133 list append \$1;
#X obj 42 229 upp.s2ms;
#X obj 66 76 nbx 6 14 -1e+37 1e+37 0 0 empty empty ms 65 8 0 10 -262144
-1 -1 0 256;
#X text 237 12 grrrr.org 2012;
#X connect 0 0 8 0;
#X connect 1 0 5 0;
#X connect 1 0 7 0;
#X connect 2 0 1 0;
#X connect 3 0 0 0;
#X connect 7 0 3 0;
#X connect 8 0 6 0;
#X connect 8 0 9 0;
#X coords 0 -1 1 1 250 60 1 30 30;
