#N canvas 244 267 466 364 10;
#X obj 51 30 inlet;
#X obj 51 304 outlet;
#X obj 204 29 inlet;
#X obj 51 94 list split 1;
#X text 310 25 grrrr.org 2012;
#X obj 100 120 list split 1;
#X obj 51 155 list append;
#X obj 204 95 list split 1;
#X obj 257 123 list split 1;
#X obj 204 155 list append;
#X obj 257 202 route symbol;
#X text 253 221 any non-symbol is ignored;
#X msg 257 255 set \$1;
#X obj 313 305 catch~ \$0-dummy;
#X obj 204 305 throw~ \$0-dummy;
#X obj 51 241 \$1 \$2 \$3 \$4 \$5 \$6 \$7 \$8 \$9;
#X connect 0 0 3 0;
#X connect 2 0 7 0;
#X connect 3 0 6 0;
#X connect 3 1 5 0;
#X connect 5 0 12 0;
#X connect 5 1 6 1;
#X connect 6 0 15 0;
#X connect 7 0 9 0;
#X connect 7 1 8 0;
#X connect 8 0 10 0;
#X connect 8 1 9 1;
#X connect 9 0 15 1;
#X connect 10 0 12 0;
#X connect 12 0 14 0;
#X connect 15 0 1 0;
#X connect 15 1 14 0;
