#N canvas 21 28 535 417 10;
#X obj 217 255 int;
#X obj 249 255 + 1;
#X obj 183 254 -;
#X obj 183 292 expr cos($f1*1.5708);
#X obj 315 292 expr sin($f1*1.5708);
#X obj 402 366 catch~ \$0-dummy;
#X obj 282 367 throw~ \$0-dummy;
#X obj 162 367 throw~ \$0-dummy;
#X obj 186 65 inlet;
#X obj 162 344 *~ 0;
#X obj 282 344 *~ 0;
#X msg 197 345 set \$2-\$1;
#X msg 317 344 set \$2-\$1;
#X obj 198 190 min;
#X obj 379 62 loadbang;
#X obj 379 85 f \$2;
#X obj 379 107 - 0.001;
#X text 46 18 multi-pan \$1... bus-basename \, \$2...number of speakers
;
#X obj 198 165 max 1;
#X obj 45 67 inlet;
#X obj 45 94 upp._extract 1;
#X obj 45 143 \$3 \$4 \$5 \$6 \$7 \$8 \$9;
#X obj 45 362 outlet;
#X obj 198 139 route float;
#X obj 186 92 upp._extract 1;
#X obj 198 214 t a a;
#X obj 197 325 list append \$1;
#X obj 317 324 list append \$1;
#X connect 0 0 2 1;
#X connect 0 0 1 0;
#X connect 0 0 26 0;
#X connect 1 0 27 0;
#X connect 2 0 3 0;
#X connect 2 0 4 0;
#X connect 3 0 9 1;
#X connect 4 0 10 1;
#X connect 8 0 24 0;
#X connect 9 0 7 0;
#X connect 10 0 6 0;
#X connect 11 0 7 0;
#X connect 12 0 6 0;
#X connect 13 0 25 0;
#X connect 14 0 15 0;
#X connect 15 0 16 0;
#X connect 16 0 13 1;
#X connect 18 0 13 0;
#X connect 19 0 20 0;
#X connect 20 0 21 0;
#X connect 20 1 23 0;
#X connect 21 0 22 0;
#X connect 23 0 18 0;
#X connect 24 0 21 1;
#X connect 24 1 23 0;
#X connect 25 0 2 0;
#X connect 25 1 0 0;
#X connect 26 0 11 0;
#X connect 27 0 12 0;
