#N canvas 619 647 438 279 10;
#X obj 50 30 inlet;
#X obj 50 220 outlet;
#X obj 208 29 inlet;
#X obj 50 101 \$2 \$3 \$4 \$5 \$6 \$7 \$8 \$9;
#N canvas 0 22 566 283 pan 0;
#X obj 53 67 inlet~;
#X obj 206 66 inlet;
#X obj 52 215 outlet~;
#X obj 148 214 outlet~;
#X obj 52 175 *~ 0;
#X obj 147 175 *~ 0;
#X text 200 50 -1...+1;
#X obj 358 57 loadbang;
#X obj 358 78 expr asin(1)/2;
#X text 472 79 pi/4;
#X obj 188 119 expr sin((1-$f1)*$f2);
#X obj 359 118 expr sin((1+$f1)*$f2);
#X connect 0 0 4 0;
#X connect 0 0 5 0;
#X connect 1 0 10 0;
#X connect 1 0 11 0;
#X connect 4 0 2 0;
#X connect 5 0 3 0;
#X connect 7 0 8 0;
#X connect 8 0 10 1;
#X connect 8 0 11 1;
#X connect 10 0 4 1;
#X connect 11 0 5 1;
#X restore 208 170 pd pan;
#X obj 50 55 list split 1;
#X obj 295 220 throw~ \$1-2;
#X obj 208 219 throw~ \$1-1;
#X connect 0 0 5 0;
#X connect 3 0 1 0;
#X connect 3 1 4 0;
#X connect 4 0 7 0;
#X connect 4 1 6 0;
#X connect 5 0 4 1;
#X connect 5 1 3 0;
