#N canvas 242 387 435 462 10;
#X obj 47 34 inlet;
#X obj 47 403 outlet;
#X obj 208 33 inlet;
#X obj 47 215 \$2 \$3 \$4 \$5 \$6 \$7 \$8 \$9;
#X obj 206 284 pan-stereo;
#X obj 101 101 list split 2;
#X obj 263 260 unpack;
#X obj 292 380 throw~ \$1-2;
#X obj 180 383 throw~ \$1-1;
#X obj 206 333 pan-stereo;
#X obj 293 334 pan-stereo;
#X obj 205 408 throw~ \$1-3;
#X obj 320 411 throw~ \$1-4;
#X obj 47 74 list split 1;
#X obj 47 134 list append;
#X obj 262 104 list split 2;
#X obj 208 77 list split 1;
#X obj 208 132 list append;
#X obj 262 157 unpack;
#X obj 263 179 route float;
#X obj 263 200 pack;
#X connect 0 0 13 0;
#X connect 2 0 16 0;
#X connect 3 0 1 0;
#X connect 3 1 4 0;
#X connect 4 0 9 0;
#X connect 4 1 10 0;
#X connect 5 0 6 0;
#X connect 5 1 14 1;
#X connect 6 0 4 1;
#X connect 6 1 9 1;
#X connect 6 1 10 1;
#X connect 9 0 8 0;
#X connect 9 1 11 0;
#X connect 10 0 7 0;
#X connect 10 1 12 0;
#X connect 13 0 14 0;
#X connect 13 1 5 0;
#X connect 14 0 3 0;
#X connect 15 0 18 0;
#X connect 15 1 17 1;
#X connect 16 0 17 0;
#X connect 16 1 15 0;
#X connect 17 0 3 1;
#X connect 18 0 19 0;
#X connect 18 1 20 1;
#X connect 19 0 20 0;
#X connect 20 0 6 0;
