#N canvas 301 528 464 360 10;
#X obj 50 30 inlet;
#X obj 50 292 outlet;
#X obj 208 29 inlet;
#X obj 50 101 \$2 \$3 \$4 \$5 \$6 \$7 \$8 \$9;
#X obj 208 170 pan-stereo;
#X obj 50 55 list split 2;
#X obj 275 144 unpack;
#X obj 294 266 throw~ \$1-2;
#X obj 182 269 throw~ \$1-1;
#X obj 208 219 pan-stereo;
#X obj 295 220 pan-stereo;
#X obj 207 294 throw~ \$1-3;
#X obj 322 297 throw~ \$1-4;
#X connect 0 0 5 0;
#X connect 2 0 3 1;
#X connect 3 0 1 0;
#X connect 3 1 4 0;
#X connect 4 0 9 0;
#X connect 4 1 10 0;
#X connect 5 0 6 0;
#X connect 5 1 3 0;
#X connect 6 0 4 1;
#X connect 6 1 9 1;
#X connect 6 1 10 1;
#X connect 9 0 8 0;
#X connect 9 1 11 0;
#X connect 10 0 7 0;
#X connect 10 1 12 0;
