#N canvas 88 71 402 288 10;
#X obj 47 34 inlet;
#X obj 47 242 outlet;
#X obj 208 33 inlet;
#X obj 289 142 route float;
#X obj 47 74 upp._extract 3;
#X text 204 223 azimuth elevation spread;
#X obj 47 169 \$3 \$4 \$5 \$6 \$7 \$8 \$9;
#X obj 289 118 list split 1;
#X obj 289 166 list append;
#X text 54 150 synth abstraction;
#X obj 164 242 upp._spat upp._spat.vbap \$1 \$2;
#X obj 208 77 upp._extract 3;
#X connect 0 0 4 0;
#X connect 2 0 11 0;
#X connect 3 0 8 0;
#X connect 4 0 6 0;
#X connect 4 1 10 1;
#X connect 6 0 1 0;
#X connect 6 1 10 0;
#X connect 7 0 3 0;
#X connect 7 1 8 1;
#X connect 8 0 10 1;
#X connect 11 0 6 1;
#X connect 11 1 7 0;
