#N canvas 242 387 435 422 10;
#X obj 47 34 inlet;
#X obj 47 357 outlet;
#X obj 208 33 inlet;
#X obj 47 169 \$2 \$3 \$4 \$5 \$6 \$7 \$8 \$9;
#X obj 206 238 pan-stereo;
#X obj 263 214 unpack;
#X obj 292 334 throw~ \$1-2;
#X obj 180 337 throw~ \$1-1;
#X obj 206 287 pan-stereo;
#X obj 293 288 pan-stereo;
#X obj 205 362 throw~ \$1-3;
#X obj 320 365 throw~ \$1-4;
#X obj 263 111 unpack;
#X obj 263 133 route float;
#X obj 263 154 pack;
#X obj 47 74 upp._extract 2;
#X obj 208 77 upp._extract 2;
#X connect 0 0 15 0;
#X connect 2 0 16 0;
#X connect 3 0 1 0;
#X connect 3 1 4 0;
#X connect 4 0 8 0;
#X connect 4 1 9 0;
#X connect 5 0 4 1;
#X connect 5 1 8 1;
#X connect 5 1 9 1;
#X connect 8 0 7 0;
#X connect 8 1 10 0;
#X connect 9 0 6 0;
#X connect 9 1 11 0;
#X connect 12 0 13 0;
#X connect 12 1 14 1;
#X connect 13 0 14 0;
#X connect 14 0 5 0;
#X connect 15 0 3 0;
#X connect 15 1 5 0;
#X connect 16 0 3 1;
#X connect 16 1 12 0;
