#N canvas 897 548 438 279 10;
#X obj 50 30 inlet;
#X obj 50 220 outlet;
#X obj 208 29 inlet;
#X obj 50 101 \$2 \$3 \$4 \$5 \$6 \$7 \$8 \$9;
#N canvas 0 22 566 283 pan 0;
#X obj 53 67 inlet~;
#X obj 206 66 inlet;
#X obj 52 215 outlet~;
#X obj 148 214 outlet~;
#X obj 52 175 *~ 0;
#X obj 147 175 *~ 0;
#X text 200 50 -1...+1;
#X text 373 100 pi/4;
#X obj 188 119 expr sin((1-$f1)*0.78539816339744828);
#X obj 237 138 expr sin((1+$f1)*0.78539816339744828);
#X connect 0 0 4 0;
#X connect 0 0 5 0;
#X connect 1 0 8 0;
#X connect 1 0 9 0;
#X connect 4 0 2 0;
#X connect 5 0 3 0;
#X connect 8 0 4 1;
#X connect 9 0 5 1;
#X restore 208 170 pd pan;
#X obj 50 55 list split 1;
#X obj 295 220 throw~ \$1-2;
#X obj 208 219 throw~ \$1-1;
#X connect 0 0 5 0;
#X connect 2 0 3 1;
#X connect 3 0 1 0;
#X connect 3 1 4 0;
#X connect 4 0 7 0;
#X connect 4 1 6 0;
#X connect 5 0 4 1;
#X connect 5 1 3 0;
