#N canvas 244 267 469 367 10;
#X obj 51 30 inlet;
#X obj 51 306 outlet;
#X obj 208 29 inlet;
#X obj 51 220 \$2 \$3 \$4 \$5 \$6 \$7 \$8 \$9;
#X obj 51 94 list split 1;
#X obj 291 306 throw~ \$1-2;
#X obj 204 305 throw~ \$1-1;
#X obj 204 256 pan-stereo;
#X text 310 25 grrrr.org 2012;
#X obj 100 120 list split 1;
#X obj 51 155 list append;
#X obj 208 95 list split 1;
#X obj 261 123 list split 1;
#X obj 208 155 list append;
#X obj 261 202 route float;
#X text 257 221 any non-float is ignored;
#X connect 0 0 4 0;
#X connect 2 0 11 0;
#X connect 3 0 1 0;
#X connect 3 1 7 0;
#X connect 4 0 10 0;
#X connect 4 1 9 0;
#X connect 7 0 6 0;
#X connect 7 1 5 0;
#X connect 9 0 7 1;
#X connect 9 1 10 1;
#X connect 10 0 3 0;
#X connect 11 0 13 0;
#X connect 11 1 12 0;
#X connect 12 0 14 0;
#X connect 12 1 13 1;
#X connect 13 0 3 1;
#X connect 14 0 7 1;
