#N canvas 31 55 438 279 10;
#X obj 50 30 inlet;
#X obj 50 220 outlet;
#X obj 208 29 inlet;
#X obj 50 101 \$2 \$3 \$4 \$5 \$6 \$7 \$8 \$9;
#X obj 50 55 list split 1;
#X obj 295 220 throw~ \$1-2;
#X obj 208 219 throw~ \$1-1;
#X obj 208 170 pan-stereo;
#X text 310 25 grrrr.org 2012;
#X connect 0 0 4 0;
#X connect 2 0 3 1;
#X connect 3 0 1 0;
#X connect 3 1 7 0;
#X connect 4 0 7 1;
#X connect 4 1 3 0;
#X connect 7 0 6 0;
#X connect 7 1 5 0;
