#N canvas 88 71 402 288 10;
#X obj 47 34 inlet;
#X obj 47 242 outlet;
#X obj 208 33 inlet;
#X obj 275 157 route float;
#X obj 47 74 upp._extract 3;
#X obj 208 77 upp._extract 3;
#X text 204 223 azimuth elevation spread;
#X obj 47 169 \$3 \$4 \$5 \$6 \$7 \$8 \$9;
#X obj 275 133 list split 1;
#X obj 275 181 list append;
#X obj 188 244 upp._vbap \$1 \$2;
#X text 54 150 synth abstraction;
#X connect 0 0 4 0;
#X connect 2 0 5 0;
#X connect 3 0 9 0;
#X connect 4 0 7 0;
#X connect 4 1 10 1;
#X connect 5 0 7 1;
#X connect 5 1 8 0;
#X connect 7 0 1 0;
#X connect 7 1 10 0;
#X connect 8 0 3 0;
#X connect 8 1 9 1;
#X connect 9 0 10 1;
