#N canvas 897 548 367 274 10;
#X obj 50 30 inlet;
#X obj 50 228 outlet;
#X obj 208 29 inlet;
#X obj 50 101 \$2 \$3 \$4 \$5 \$6 \$7 \$8 \$9;
#N canvas 0 22 585 382 pan 0;
#X obj 53 67 inlet~;
#X obj 206 66 inlet;
#X obj 52 300 outlet~;
#X obj 190 299 outlet~;
#X obj 52 166 *~ 0;
#X obj 166 168 *~ 0;
#X text 200 50 -1...+1;
#X text 373 100 pi/4;
#X obj 188 119 expr sin((1-$f1)*0.78539816339744828);
#X obj 237 138 expr sin((1+$f1)*0.78539816339744828);
#X obj 205 86 unpack;
#X obj 116 301 outlet~;
#X obj 251 300 outlet~;
#X obj 227 180 expr sin((1-$f1)*0.78539816339744828);
#X obj 276 199 expr sin((1+$f1)*0.78539816339744828);
#X obj 52 242 *~ 0;
#X obj 190 246 *~ 0;
#X obj 116 244 *~ 0;
#X obj 251 247 *~ 0;
#X text 87 168 left-right;
#X text 76 264 front;
#X text 217 265 back;
#X connect 0 0 4 0;
#X connect 0 0 5 0;
#X connect 1 0 10 0;
#X connect 4 0 15 0;
#X connect 4 0 16 0;
#X connect 5 0 17 0;
#X connect 5 0 18 0;
#X connect 8 0 4 1;
#X connect 9 0 5 1;
#X connect 10 0 8 0;
#X connect 10 0 9 0;
#X connect 10 1 13 0;
#X connect 10 1 14 0;
#X connect 13 0 15 1;
#X connect 13 0 17 1;
#X connect 14 0 16 1;
#X connect 14 0 18 1;
#X connect 15 0 2 0;
#X connect 16 0 3 0;
#X connect 17 0 11 0;
#X connect 18 0 12 0;
#X restore 208 170 pd pan;
#X obj 234 208 throw~ \$1-2;
#X obj 147 207 throw~ \$1-1;
#X obj 50 55 list split 2;
#X obj 162 228 throw~ \$1-3;
#X obj 249 229 throw~ \$1-4;
#X connect 0 0 7 0;
#X connect 2 0 3 1;
#X connect 3 0 1 0;
#X connect 3 1 4 0;
#X connect 4 0 6 0;
#X connect 4 1 5 0;
#X connect 4 2 8 0;
#X connect 4 3 9 0;
#X connect 7 0 4 1;
#X connect 7 1 3 0;
