#N canvas 288 318 447 260 10;
#X obj 51 30 inlet;
#X obj 51 209 outlet;
#X obj 208 29 inlet;
#X obj 51 123 \$2 \$3 \$4 \$5 \$6 \$7 \$8 \$9;
#X obj 291 209 throw~ \$1-2;
#X obj 204 208 throw~ \$1-1;
#X obj 204 159 pan-stereo;
#X text 310 25 grrrr.org 2012;
#X obj 261 105 route float;
#X text 257 124 any non-float is ignored;
#X obj 51 60 upp._extract 1;
#X obj 208 61 upp._extract 1;
#X connect 0 0 10 0;
#X connect 2 0 11 0;
#X connect 3 0 1 0;
#X connect 3 1 6 0;
#X connect 6 0 5 0;
#X connect 6 1 4 0;
#X connect 8 0 6 1;
#X connect 10 0 3 0;
#X connect 10 1 6 1;
#X connect 11 0 3 1;
#X connect 11 1 8 0;
