#N canvas 244 267 445 257 10;
#X obj 51 30 inlet;
#X obj 51 204 outlet;
#X obj 204 29 inlet;
#X text 310 25 grrrr.org 2012;
#X obj 257 102 route symbol;
#X text 253 121 any non-symbol is ignored;
#X msg 257 155 set \$1;
#X obj 313 205 catch~ \$0-dummy;
#X obj 204 205 throw~ \$0-dummy;
#X obj 51 141 \$1 \$2 \$3 \$4 \$5 \$6 \$7 \$8 \$9;
#X obj 51 59 upp._extract 1;
#X obj 204 60 upp._extract 1;
#X connect 0 0 10 0;
#X connect 2 0 11 0;
#X connect 4 0 6 0;
#X connect 6 0 8 0;
#X connect 9 0 1 0;
#X connect 9 1 8 0;
#X connect 10 0 9 0;
#X connect 10 1 6 0;
#X connect 11 0 9 1;
#X connect 11 1 4 0;
