#N canvas 857 97 453 340 10;
#X obj 37 41 inlet;
#X obj 89 302 outlet~;
#X obj 37 79 list split 1;
#X obj 52 124 cnv 15 120 150 empty empty play_sample 20 12 0 14 -233017
-66577 0;
#X obj 72 187 upp.ms2s;
#X obj 316 43 inlet;
#X text 281 22 grrrr.org 2012;
#N canvas 356 418 385 319 ramp 0;
#X obj 38 74 inlet;
#X obj 137 74 inlet;
#X obj 38 259 outlet~;
#X text 34 52 starting pos;
#X obj 38 160 biquad~ 1 0 1 0 0;
#X text 116 50 increase per sample;
#X text 34 16 endless ramp;
#X obj 38 105 t b a;
#X obj 38 230 +~ 0;
#X text 79 110 sending the offset to biquad~ causes roundoff;
#X msg 38 128 set -1 \, 1;
#X obj 38 198 *~ 1;
#X connect 0 0 7 0;
#X connect 1 0 11 1;
#X connect 4 0 11 0;
#X connect 7 0 10 0;
#X connect 7 1 8 1;
#X connect 8 0 2 0;
#X connect 10 0 4 0;
#X connect 11 0 8 0;
#X restore 72 215 pd ramp;
#X obj 316 295 outlet;
#X obj 72 162 unpack 0 0 0;
#X text 36 20 sample_buffer playpos(ms) speed volume;
#X obj 91 281 *~ 0;
#X obj 72 245 upp.tabread4~;
#X connect 0 0 2 0;
#X connect 2 0 12 1;
#X connect 2 1 9 0;
#X connect 4 0 7 0;
#X connect 5 0 8 0;
#X connect 7 0 12 0;
#X connect 9 0 4 0;
#X connect 9 1 7 1;
#X connect 9 2 11 1;
#X connect 11 0 1 0;
#X connect 12 0 11 0;
