#N canvas 190 196 464 407 10;
#X obj 37 41 inlet;
#X obj 37 117 list split 1;
#X obj 52 153 cnv 15 220 220 empty empty play_sample 20 12 0 14 -233017
-66577 0;
#X msg 186 237 set \$1;
#X obj 71 211 upp.ms2s;
#X obj 353 43 inlet;
#X obj 71 276 tabread4~;
#N canvas 240 66 591 514 ramp 0;
#X obj 87 78 inlet;
#X obj 230 77 inlet;
#X obj 242 456 outlet~;
#X text 34 52 starting pos (samples);
#X text 207 53 increase per sample (speed);
#X obj 215 391 phasor~;
#X obj 215 316 t a b;
#X obj 441 189 array size;
#X obj 440 98 t b a;
#X obj 254 342 f;
#X obj 254 364 /;
#X obj 441 214 upp.s2ms;
#X obj 441 237 / 1000;
#X obj 176 260 f;
#X msg 196 216 1 \$1;
#X obj 196 236 /;
#X obj 242 427 *~ 0;
#X obj 215 290 *;
#X obj 176 178 t b a;
#X obj 440 74 inlet;
#X text 426 53 buffer (symbol);
#X connect 0 0 18 0;
#X connect 1 0 17 1;
#X connect 5 0 16 0;
#X connect 6 0 5 0;
#X connect 6 1 9 0;
#X connect 7 0 10 1;
#X connect 7 0 11 0;
#X connect 7 0 16 1;
#X connect 8 0 7 0;
#X connect 8 1 7 1;
#X connect 9 0 10 0;
#X connect 10 0 5 1;
#X connect 11 0 12 0;
#X connect 12 0 14 0;
#X connect 13 0 17 0;
#X connect 14 0 15 0;
#X connect 15 0 13 1;
#X connect 16 0 2 0;
#X connect 17 0 6 0;
#X connect 18 0 13 0;
#X connect 18 1 9 1;
#X connect 19 0 8 0;
#X restore 71 239 pd ramp;
#X obj 353 331 outlet;
#X obj 71 186 unpack 0 0 0;
#X obj 71 304 *~ 0;
#X text 36 20 tag sample_buffer playpos(ms) speed volume;
#X obj 37 64 list split 1;
#X obj 71 85 t a a;
#X obj 71 332 outlet~;
#X obj 186 117 t s;
#X connect 0 0 12 0;
#X connect 1 1 9 0;
#X connect 3 0 6 0;
#X connect 4 0 7 0;
#X connect 5 0 8 0;
#X connect 6 0 10 0;
#X connect 7 0 6 0;
#X connect 9 0 4 0;
#X connect 9 1 7 1;
#X connect 9 2 10 1;
#X connect 10 0 14 0;
#X connect 12 1 13 0;
#X connect 13 0 1 0;
#X connect 13 1 15 0;
#X connect 15 0 3 0;
#X connect 15 0 7 2;
