#N canvas 1658 561 626 423 10;
#X obj 62 42 inlet;
#X obj 255 375 outlet~;
#X obj 255 350 *~;
#X obj 63 371 outlet;
#X obj 62 98 list split 1;
#X obj 218 184 cnv 15 120 150 empty empty play_sample 20 12 0 14 -233017
-66577 0;
#X msg 223 279 set \$1;
#X obj 386 175 cnv 15 180 150 empty empty play_envelope 20 12 0 14
-233017 -66577 0;
#X obj 399 266 vline~;
#X text 402 220 attack;
#X text 477 221 release;
#X obj 399 298 tabread4~ \$1;
#X obj 280 256 upp.ms2s;
#X obj 309 43 inlet;
#X text 485 8 grrrr.org 2012;
#X obj 309 100 list split 1;
#X obj 475 201 t b a;
#X obj 255 305 tabread4~;
#N canvas 340 548 278 266 ramp 0;
#X obj 38 74 inlet;
#X obj 137 74 inlet;
#X obj 38 224 outlet~;
#X text 34 52 starting pos;
#X obj 38 191 biquad~ 1 0 1 0 0;
#X text 116 50 increase per sample;
#X text 34 16 endless ramp;
#X msg 38 154 set \$1;
#X connect 0 0 7 0;
#X connect 1 0 4 0;
#X connect 4 0 2 0;
#X connect 7 0 4 0;
#X restore 279 278 pd ramp;
#X obj 399 201 t b a;
#X obj 309 70 upp.once;
#X obj 62 69 t a b;
#X obj 96 135 unpack 0 0 0 0;
#X text 59 8 sample_buffer delay(samples) playpos(ms) attack(ms) speed
;
#X text 307 27 sample_buffer delay(samples) release(ms);
#X obj 343 136 unpack 0 0;
#X obj 399 236 pack \$2 0 0;
#X obj 475 236 pack 0 0 0;
#X obj 309 227 *;
#X obj 280 235 -;
#X obj 224 135 upp.s2ms;
#X obj 432 136 upp.s2ms;
#X connect 0 0 21 0;
#X connect 2 0 1 0;
#X connect 4 0 6 0;
#X connect 4 1 22 0;
#X connect 6 0 17 0;
#X connect 8 0 11 0;
#X connect 11 0 2 1;
#X connect 12 0 18 0;
#X connect 13 0 20 0;
#X connect 15 1 25 0;
#X connect 16 0 27 0;
#X connect 16 1 27 2;
#X connect 17 0 2 0;
#X connect 18 0 17 0;
#X connect 19 0 26 0;
#X connect 19 1 26 2;
#X connect 20 0 15 0;
#X connect 21 0 4 0;
#X connect 21 1 20 1;
#X connect 22 0 29 0;
#X connect 22 1 30 0;
#X connect 22 2 26 1;
#X connect 22 3 18 1;
#X connect 22 3 28 1;
#X connect 25 0 31 0;
#X connect 25 1 3 0;
#X connect 25 1 27 1;
#X connect 26 0 8 0;
#X connect 27 0 8 0;
#X connect 28 0 29 1;
#X connect 29 0 12 0;
#X connect 30 0 28 0;
#X connect 30 0 19 0;
#X connect 31 0 16 0;
