#N canvas 1043 211 626 423 10;
#X obj 62 42 inlet;
#X obj 227 374 outlet~;
#X obj 227 349 *~;
#X obj 63 371 outlet;
#X obj 63 347 delay;
#X obj 62 69 list split 1;
#X obj 218 184 cnv 15 120 150 empty empty play_sample 20 12 0 14 -233017
-66577 0;
#X obj 227 304 tabplay~;
#X msg 270 267 set \$1;
#X obj 227 267 f;
#X obj 386 175 cnv 15 180 150 empty empty play_envelope 20 12 0 14
-233017 -66577 0;
#X obj 399 266 vline~;
#X text 402 221 attack;
#X text 477 221 release;
#X obj 399 298 tabread4~ \$1;
#X obj 245 225 ms2samples;
#X obj 309 43 inlet;
#X text 484 19 grrrr.org 2012;
#X obj 399 236 pack \$2 0;
#X obj 309 69 list split 1;
#X text 59 16 sample_buffer playpos(ms) attack(ms);
#X text 307 20 sample_buffer release(ms);
#X obj 342 99 t b a;
#X obj 475 236 pack 0 0;
#X obj 151 69 unpack 0 0;
#X obj 399 201 t b a;
#X obj 62 101 t b a;
#X connect 0 0 5 0;
#X connect 2 0 1 0;
#X connect 4 0 3 0;
#X connect 5 0 26 0;
#X connect 5 1 24 0;
#X connect 7 0 2 0;
#X connect 8 0 7 0;
#X connect 9 0 7 0;
#X connect 11 0 14 0;
#X connect 14 0 2 1;
#X connect 15 0 9 1;
#X connect 16 0 19 0;
#X connect 18 0 11 0;
#X connect 19 1 22 0;
#X connect 22 0 23 0;
#X connect 22 1 23 1;
#X connect 22 1 4 0;
#X connect 23 0 11 0;
#X connect 24 0 15 0;
#X connect 24 1 25 0;
#X connect 25 0 18 0;
#X connect 25 1 18 1;
#X connect 26 0 9 0;
#X connect 26 1 8 0;
