#N canvas 89 187 626 423 10;
#X obj 62 42 inlet;
#X obj 255 375 outlet~;
#X obj 255 350 *~;
#X obj 63 371 outlet;
#X obj 62 91 list split 1;
#X obj 218 184 cnv 15 120 150 empty empty play_sample 20 12 0 14 -233017
-66577 0;
#X obj 386 175 cnv 15 180 150 empty empty play_envelope 20 12 0 14
-233017 -66577 0;
#X text 402 220 attack;
#X text 477 221 release;
#X obj 309 43 inlet;
#X text 485 8 grrrr.org 2012;
#X obj 309 93 list split 1;
#X obj 475 201 t b a;
#X obj 399 201 t b a;
#X obj 309 70 upp.once;
#X obj 62 69 t a b;
#X obj 96 118 unpack 0 0 0 0;
#X obj 343 119 unpack 0 0;
#X obj 475 254 pack 0 0 0;
#X obj 240 208 *;
#X obj 239 231 -;
#X obj 399 277 upp.vline~;
#X obj 399 298 upp.tabread4~ \$1;
#X obj 236 305 upp.tabread4~;
#X obj 237 281 upp.ramp~;
#X obj 238 256 t b a;
#X text 59 8 sample_buffer delay(smps) playpos(smps) attack(smps) speed
;
#X text 307 27 sample_buffer delay(smps) release(smps);
#X obj 492 55 loadbang;
#X obj 492 79 array size \$1;
#X obj 399 233 f;
#X obj 399 254 pack 0 0 0;
#X connect 0 0 15 0;
#X connect 2 0 1 0;
#X connect 4 0 23 1;
#X connect 4 1 16 0;
#X connect 9 0 14 0;
#X connect 11 1 17 0;
#X connect 12 0 18 0;
#X connect 12 1 18 2;
#X connect 13 0 30 0;
#X connect 13 1 31 2;
#X connect 14 0 11 0;
#X connect 15 0 4 0;
#X connect 15 1 14 1;
#X connect 16 0 20 0;
#X connect 16 1 13 0;
#X connect 16 1 19 0;
#X connect 16 2 31 1;
#X connect 16 3 19 1;
#X connect 16 3 24 2;
#X connect 17 0 12 0;
#X connect 17 1 3 0;
#X connect 17 1 18 1;
#X connect 18 0 21 0;
#X connect 19 0 20 1;
#X connect 20 0 25 0;
#X connect 21 0 22 0;
#X connect 22 0 2 1;
#X connect 23 0 2 0;
#X connect 24 0 23 0;
#X connect 25 0 24 0;
#X connect 25 1 24 1;
#X connect 28 0 29 0;
#X connect 29 0 30 1;
#X connect 30 0 31 0;
#X connect 31 0 21 0;
