#N canvas 95 98 617 430 10;
#X obj 76 62 inlet;
#X obj 227 389 outlet~;
#X obj 227 364 *~;
#X obj 63 389 outlet;
#X obj 304 83 unpack 0 0 0 0;
#X obj 76 89 list split 1;
#X obj 76 118 t b b b a;
#X obj 218 204 cnv 15 120 150 empty empty play_sample 20 12 0 14 -233017
-66577 0;
#X obj 227 324 tabplay~;
#X msg 270 287 set \$1;
#X obj 227 287 f;
#X obj 386 195 cnv 15 180 150 empty empty play_envelope 20 12 0 14
-233017 -66577 0;
#X obj 473 252 pack 0 0 0;
#X text 400 237 attack;
#X text 477 237 release;
#X obj 337 146 +;
#X obj 63 220 +;
#X text 58 243 total duration;
#X text 328 63 L<<<<<R;
#X obj 518 67 inlet;
#X text 515 86 dummy;
#X text 477 17 grrrr.org 2012;
#X obj 399 318 upp.tabread4~ \$1;
#X obj 399 298 upp.vline~;
#X text 59 17 sample_buffer playpos(smp) attack(smp) sustain(smp) release(smp)
;
#X obj 471 118 loadbang;
#X obj 471 139 array size \$1;
#X obj 399 251 f;
#X obj 399 274 pack 0 0;
#X connect 0 0 5 0;
#X connect 2 0 1 0;
#X connect 4 0 10 1;
#X connect 4 1 15 0;
#X connect 4 1 28 1;
#X connect 4 2 15 1;
#X connect 4 3 12 1;
#X connect 4 3 16 1;
#X connect 5 0 6 0;
#X connect 5 1 4 0;
#X connect 6 0 10 0;
#X connect 6 1 12 0;
#X connect 6 2 27 0;
#X connect 6 3 9 0;
#X connect 8 0 2 0;
#X connect 9 0 8 0;
#X connect 10 0 8 0;
#X connect 12 0 23 0;
#X connect 15 0 12 2;
#X connect 15 0 16 0;
#X connect 16 0 3 0;
#X connect 22 0 2 1;
#X connect 23 0 22 0;
#X connect 25 0 26 0;
#X connect 26 0 27 1;
#X connect 27 0 28 0;
#X connect 28 0 23 0;
