#N canvas 1103 829 657 427 10;
#X obj 225 47 inlet;
#X obj 229 380 outlet~;
#X obj 229 355 *~;
#X obj 63 383 outlet;
#X obj 63 353 delay;
#X obj 225 74 list split 1;
#X obj 226 106 t b b b a;
#X obj 218 184 cnv 15 180 150 empty empty play_sample 20 12 0 14 -233017
-66577 0;
#X msg 309 286 set \$1;
#X obj 424 177 cnv 15 180 150 empty empty play_envelope 20 12 0 14
-233017 -66577 0;
#X obj 437 259 vline~;
#X obj 511 234 pack 0 0 0;
#X text 438 219 attack;
#X text 515 219 release;
#X obj 473 124 +;
#X obj 62 171 +;
#X text 40 147 total duration;
#X text 444 52 L<<<<<R;
#X obj 437 303 tabread4~ \$1;
#X text 139 14 sample_buffer playpos(ms) attack(ms) sustain(ms) release(ms)
speed;
#X obj 229 311 tabread4~;
#X obj 420 72 unpack 0 0 0 0 0;
#X obj 229 288 vline~;
#X obj 229 264 pack 0 0;
#X obj 229 217 +;
#X obj 229 239 ms2samples;
#X obj 313 239 ms2samples;
#X obj 267 216 * 1;
#X obj 245 162 t a a;
#X text 218 160 pos;
#X text 519 15 grrrr.org 2012;
#X obj 569 42 inlet;
#X text 572 59 dummy;
#X obj 437 234 pack \$2 0;
#X connect 0 0 5 0;
#X connect 2 0 1 0;
#X connect 4 0 3 0;
#X connect 5 0 6 0;
#X connect 5 1 21 0;
#X connect 6 1 11 0;
#X connect 6 2 33 0;
#X connect 6 3 8 0;
#X connect 8 0 20 0;
#X connect 10 0 18 0;
#X connect 11 0 10 0;
#X connect 14 0 11 2;
#X connect 14 0 15 0;
#X connect 15 0 4 0;
#X connect 15 0 27 0;
#X connect 15 0 23 1;
#X connect 18 0 2 1;
#X connect 20 0 2 0;
#X connect 21 0 28 0;
#X connect 21 1 14 0;
#X connect 21 1 33 1;
#X connect 21 2 14 1;
#X connect 21 3 11 1;
#X connect 21 3 15 1;
#X connect 21 4 27 1;
#X connect 22 0 20 0;
#X connect 23 0 22 0;
#X connect 24 0 25 0;
#X connect 25 0 23 0;
#X connect 26 0 22 0;
#X connect 27 0 24 1;
#X connect 28 0 24 0;
#X connect 28 1 26 0;
#X connect 33 0 10 0;
