#N canvas 591 341 626 423 10;
#X obj 62 42 inlet;
#X obj 255 375 outlet~;
#X obj 255 350 *~;
#X obj 63 371 outlet;
#X obj 62 87 list split 1;
#X obj 218 184 cnv 15 120 150 empty empty play_sample 20 12 0 14 -233017
-66577 0;
#X msg 223 256 set \$1;
#X obj 386 175 cnv 15 180 150 empty empty play_envelope 20 12 0 14
-233017 -66577 0;
#X obj 399 266 vline~;
#X text 402 220 attack;
#X text 477 221 release;
#X obj 399 298 tabread4~ \$1;
#X obj 270 235 upp.ms2s;
#X obj 309 43 inlet;
#X text 484 19 grrrr.org 2012;
#X obj 399 236 pack \$2 0;
#X obj 309 89 list split 1;
#X text 307 27 sample_buffer release(ms);
#X obj 343 111 t b a;
#X obj 475 236 pack 0 0;
#X obj 255 305 tabread4~;
#N canvas 415 725 321 273 ramp 0;
#X obj 36 78 inlet;
#X obj 174 79 inlet;
#X obj 36 226 outlet~;
#X text 31 56 starting pos;
#X obj 36 193 biquad~ 1 0 1 0 0;
#X text 172 56 increase per sample;
#X text 34 16 endless ramp;
#X msg 36 117 set \$1;
#X connect 0 0 7 0;
#X connect 1 0 4 0;
#X connect 4 0 2 0;
#X connect 7 0 4 0;
#X restore 270 272 pd ramp;
#X obj 96 108 unpack 0 0 0;
#X text 59 16 sample_buffer playpos(ms) attack(ms) speed;
#X obj 399 199 t b a;
#X obj 309 66 upp.once;
#X obj 62 65 t a b;
#X connect 0 0 26 0;
#X connect 2 0 1 0;
#X connect 4 0 6 0;
#X connect 4 1 22 0;
#X connect 6 0 20 0;
#X connect 8 0 11 0;
#X connect 11 0 2 1;
#X connect 12 0 21 0;
#X connect 13 0 25 0;
#X connect 15 0 8 0;
#X connect 16 1 18 0;
#X connect 18 0 19 0;
#X connect 18 1 19 1;
#X connect 18 1 3 0;
#X connect 19 0 8 0;
#X connect 20 0 2 0;
#X connect 21 0 20 0;
#X connect 22 0 12 0;
#X connect 22 1 24 0;
#X connect 22 2 21 1;
#X connect 24 0 15 0;
#X connect 24 1 15 1;
#X connect 25 0 16 0;
#X connect 26 0 4 0;
#X connect 26 1 25 1;
