#N canvas 857 97 453 340 10;
#X obj 37 41 inlet;
#X obj 89 295 outlet~;
#X obj 37 79 list split 1;
#X obj 52 132 cnv 15 120 150 empty empty play_sample 20 12 0 14 -233017
-66577 0;
#X msg 57 227 set \$1;
#X obj 115 199 upp.ms2s;
#X obj 292 43 inlet;
#X text 257 22 grrrr.org 2012;
#X obj 89 253 tabread4~;
#N canvas 340 548 278 266 ramp 0;
#X obj 38 74 inlet;
#X obj 137 74 inlet;
#X obj 38 224 outlet~;
#X text 34 52 starting pos;
#X obj 38 191 biquad~ 1 0 1 0 0;
#X text 116 50 increase per sample;
#X text 34 16 endless ramp;
#X msg 38 154 set \$1;
#X connect 0 0 7 0;
#X connect 1 0 4 0;
#X connect 4 0 2 0;
#X connect 7 0 4 0;
#X restore 115 226 pd ramp;
#X obj 292 295 outlet;
#X text 245 269 stopping messages go thru;
#X text 36 20 sample_buffer playpos(ms) speed;
#X obj 115 170 unpack 0 0;
#X connect 0 0 2 0;
#X connect 2 0 4 0;
#X connect 2 1 13 0;
#X connect 4 0 8 0;
#X connect 5 0 9 0;
#X connect 6 0 10 0;
#X connect 8 0 1 0;
#X connect 9 0 8 0;
#X connect 13 0 5 0;
#X connect 13 1 9 1;
