#N canvas 45 101 453 340 10;
#X obj 37 41 inlet;
#X obj 89 302 outlet~;
#X obj 37 79 list split 1;
#X obj 52 124 cnv 15 120 150 empty empty play_sample 20 12 0 14 -233017
-66577 0;
#X obj 316 43 inlet;
#X text 317 18 grrrr.org 2012;
#X obj 316 295 outlet;
#X obj 72 162 unpack 0 0 0;
#X obj 91 281 *~ 0;
#X obj 72 245 upp.tabread4~;
#X text 36 20 sample_buffer playpos(smps) speed volume;
#X obj 72 215 upp.ramp~;
#X obj 72 187 t b a;
#X connect 0 0 2 0;
#X connect 2 0 9 1;
#X connect 2 1 7 0;
#X connect 4 0 6 0;
#X connect 7 0 12 0;
#X connect 7 1 11 2;
#X connect 7 2 8 1;
#X connect 8 0 1 0;
#X connect 9 0 8 0;
#X connect 11 0 9 0;
#X connect 12 0 11 0;
#X connect 12 1 11 1;
