#N canvas 65 65 453 340 10;
#X obj 37 41 inlet;
#X obj 89 302 outlet~;
#X obj 37 88 list split 1;
#X obj 52 124 cnv 15 120 150 empty empty play_sample 20 12 0 14 -233017
-66577 0;
#X msg 57 227 set \$1;
#X obj 113 181 upp.ms2s;
#X obj 316 43 inlet;
#X obj 89 253 tabread4~;
#N canvas 308 217 385 267 ramp 0;
#X obj 38 74 inlet;
#X obj 137 74 inlet;
#X obj 38 224 outlet~;
#X text 34 52 starting pos;
#X obj 38 164 biquad~ 1 0 1 0 0;
#X text 116 50 increase per sample;
#X text 34 16 endless ramp;
#X obj 38 105 t b a;
#X msg 38 132 set 0;
#X obj 38 195 +~ 0;
#X text 80 134 sending the offset to biquad~ causes roundoff;
#X connect 0 0 7 0;
#X connect 1 0 4 0;
#X connect 4 0 9 0;
#X connect 7 0 8 0;
#X connect 7 1 9 1;
#X connect 8 0 4 0;
#X connect 9 0 2 0;
#X restore 113 209 pd ramp;
#X obj 316 295 outlet;
#X obj 113 156 unpack 0 0 0;
#X obj 91 281 *~ 0;
#X text 36 20 tag sample_buffer playpos(ms) speed volume;
#X obj 37 64 list split 1;
#X connect 0 0 13 0;
#X connect 2 0 4 0;
#X connect 2 1 10 0;
#X connect 4 0 7 0;
#X connect 5 0 8 0;
#X connect 6 0 9 0;
#X connect 7 0 11 0;
#X connect 8 0 7 0;
#X connect 10 0 5 0;
#X connect 10 1 8 1;
#X connect 10 2 11 1;
#X connect 11 0 1 0;
#X connect 13 1 2 0;
