#N canvas 84 110 626 423 10;
#X obj 62 42 inlet;
#X obj 255 375 outlet~;
#X obj 255 350 *~;
#X obj 63 371 outlet;
#X obj 62 87 list split 1;
#X obj 218 184 cnv 15 120 150 empty empty play_sample 20 12 0 14 -233017
-66577 0;
#X obj 386 175 cnv 15 180 150 empty empty play_envelope 20 12 0 14
-233017 -66577 0;
#X text 402 238 attack;
#X text 477 239 release;
#X obj 309 43 inlet;
#X text 484 19 grrrr.org 2012;
#X obj 309 89 list split 1;
#X obj 343 111 t b a;
#X obj 475 254 pack 0 0;
#X obj 96 108 unpack 0 0 0;
#X obj 399 199 t b a;
#X obj 309 66 upp.once;
#X obj 62 65 t a b;
#X obj 399 276 upp.vline~;
#X obj 399 298 upp.tabread4~ \$1;
#X obj 229 299 upp.tabread4~;
#X obj 229 272 upp.ramp~;
#X obj 153 154 t b a;
#X text 59 16 sample_buffer playpos(smps) attack(smps) speed;
#X text 307 27 sample_buffer release(smps);
#X obj 484 64 loadbang;
#X obj 484 86 array size \$1;
#X obj 399 222 f;
#X obj 399 254 pack 0 0;
#X connect 0 0 17 0;
#X connect 2 0 1 0;
#X connect 4 0 20 1;
#X connect 4 1 14 0;
#X connect 9 0 16 0;
#X connect 11 1 12 0;
#X connect 12 0 13 0;
#X connect 12 1 13 1;
#X connect 12 1 3 0;
#X connect 13 0 18 0;
#X connect 14 0 22 0;
#X connect 14 1 15 0;
#X connect 14 2 21 2;
#X connect 15 0 27 0;
#X connect 15 1 28 1;
#X connect 16 0 11 0;
#X connect 17 0 4 0;
#X connect 17 1 16 1;
#X connect 18 0 19 0;
#X connect 19 0 2 1;
#X connect 20 0 2 0;
#X connect 21 0 20 0;
#X connect 22 0 21 0;
#X connect 22 1 21 1;
#X connect 25 0 26 0;
#X connect 26 0 27 1;
#X connect 27 0 28 0;
#X connect 28 0 18 0;
