#N canvas 127 102 617 430 10;
#X obj 225 47 inlet;
#X obj 227 369 outlet~;
#X obj 227 344 *~;
#X obj 63 369 outlet;
#X obj 63 339 delay;
#X obj 382 70 unpack 0 0 0 0;
#X obj 225 74 list split 1;
#X text 112 20 sample_buffer playpos(ms) attack(ms) sustain(ms) release(ms)
;
#X obj 226 106 t b b b a;
#X obj 218 184 cnv 15 120 150 empty empty play_sample 20 12 0 14 -233017
-66577 0;
#X obj 227 304 tabplay~;
#X msg 270 267 set \$1;
#N canvas 2086 446 262 229 ms2samples 0;
#X obj 57 25 inlet;
#X obj 84 80 samplerate~;
#X obj 56 50 t a b;
#X obj 83 125 / 1000;
#X obj 56 172 *;
#X obj 55 200 outlet;
#X text 93 97 samples/s;
#X text 89 142 samples/ms;
#X connect 0 0 2 0;
#X connect 1 0 3 0;
#X connect 2 0 4 0;
#X connect 2 1 1 0;
#X connect 3 0 4 1;
#X connect 4 0 5 0;
#X restore 237 222 pd ms2samples;
#X obj 227 267 f;
#X obj 386 175 cnv 15 180 150 empty empty play_envelope 20 12 0 14
-233017 -66577 0;
#X obj 399 257 vline~;
#X obj 399 232 pack 1 0;
#X obj 473 232 pack 0 0 0;
#X text 400 217 attack;
#X text 477 217 release;
#X obj 442 109 +;
#X obj 63 200 +;
#X text 58 223 total duration;
#X text 406 50 L<<<<<R;
#X obj 398 281 *~ \$2;
#X obj 397 302 tabread4~ \$1;
#X connect 0 0 6 0;
#X connect 2 0 1 0;
#X connect 4 0 3 0;
#X connect 5 0 12 0;
#X connect 5 1 16 1;
#X connect 5 1 20 0;
#X connect 5 2 20 1;
#X connect 5 3 17 1;
#X connect 5 3 21 1;
#X connect 6 0 8 0;
#X connect 6 1 5 0;
#X connect 8 0 13 0;
#X connect 8 1 17 0;
#X connect 8 2 16 0;
#X connect 8 3 11 0;
#X connect 10 0 2 0;
#X connect 11 0 10 0;
#X connect 12 0 13 1;
#X connect 13 0 10 0;
#X connect 15 0 24 0;
#X connect 16 0 15 0;
#X connect 17 0 15 0;
#X connect 20 0 17 2;
#X connect 20 0 21 0;
#X connect 21 0 4 0;
#X connect 24 0 25 0;
#X connect 25 0 2 1;
