#N canvas 83 128 626 423 10;
#X obj 62 42 inlet;
#X obj 227 374 outlet~;
#X obj 227 349 *~;
#X obj 63 371 outlet;
#X obj 62 86 list split 1;
#X obj 218 184 cnv 15 120 150 empty empty play_sample 20 12 0 14 -233017
-66577 0;
#X obj 227 304 tabplay~;
#X msg 261 267 set \$1;
#X obj 227 267 f;
#X obj 368 184 cnv 15 180 150 empty empty play_envelope 20 12 0 14
-233017 -66577 0;
#X text 403 246 attack;
#X text 478 246 release;
#X obj 309 43 inlet;
#X text 484 19 grrrr.org 2012;
#X obj 309 86 list split 1;
#X text 60 18 sample_buffer playpos(ms) attack(ms);
#X text 307 20 sample_buffer release(ms);
#X obj 343 109 t b a;
#X obj 462 262 pack 0 0;
#X obj 130 109 unpack 0 0;
#X obj 386 211 t b a;
#X obj 62 109 t b a;
#X obj 62 64 t a b;
#X obj 309 64 upp.once;
#X obj 386 285 upp.vline~;
#X obj 386 308 upp.tabread4~ \$1;
#X obj 483 58 loadbang;
#X obj 483 81 array size \$1;
#X obj 386 238 f;
#X obj 386 262 pack 0 0;
#X connect 0 0 22 0;
#X connect 2 0 1 0;
#X connect 4 0 21 0;
#X connect 4 1 19 0;
#X connect 6 0 2 0;
#X connect 7 0 6 0;
#X connect 8 0 6 0;
#X connect 12 0 23 0;
#X connect 14 1 17 0;
#X connect 17 0 18 0;
#X connect 17 1 18 1;
#X connect 17 1 3 0;
#X connect 18 0 24 0;
#X connect 19 0 8 1;
#X connect 19 1 20 0;
#X connect 20 0 28 0;
#X connect 20 1 29 1;
#X connect 21 0 8 0;
#X connect 21 1 7 0;
#X connect 22 0 4 0;
#X connect 22 1 23 1;
#X connect 23 0 14 0;
#X connect 24 0 25 0;
#X connect 25 0 2 1;
#X connect 26 0 27 0;
#X connect 27 0 28 1;
#X connect 28 0 29 0;
#X connect 29 0 24 0;
