#N canvas 500 464 617 430 10;
#X obj 76 42 inlet;
#X obj 227 369 outlet~;
#X obj 227 344 *~;
#X obj 63 369 outlet;
#X obj 63 339 delay;
#X obj 233 65 unpack 0 0 0 0;
#X obj 76 69 list split 1;
#X text 59 16 sample_buffer playpos(ms) attack(ms) sustain(ms) release(ms)
;
#X obj 77 101 t b b b a;
#X obj 218 184 cnv 15 120 150 empty empty play_sample 20 12 0 14 -233017
-66577 0;
#X obj 227 304 tabplay~;
#X msg 270 267 set \$1;
#X obj 227 267 f;
#X obj 386 175 cnv 15 180 150 empty empty play_envelope 20 12 0 14
-233017 -66577 0;
#X obj 399 257 vline~;
#X obj 399 232 pack 1 0;
#X obj 473 232 pack 0 0 0;
#X text 400 217 attack;
#X text 477 217 release;
#X obj 293 104 +;
#X obj 63 200 +;
#X text 58 223 total duration;
#X text 257 45 L<<<<<R;
#X obj 398 281 *~ \$2;
#X obj 397 302 tabread4~ \$1;
#X obj 245 225 ms2samples;
#X obj 518 47 inlet;
#X text 515 66 dummy;
#X connect 0 0 6 0;
#X connect 2 0 1 0;
#X connect 4 0 3 0;
#X connect 5 0 25 0;
#X connect 5 1 15 1;
#X connect 5 1 19 0;
#X connect 5 2 19 1;
#X connect 5 3 16 1;
#X connect 5 3 20 1;
#X connect 6 0 8 0;
#X connect 6 1 5 0;
#X connect 8 0 12 0;
#X connect 8 1 16 0;
#X connect 8 2 15 0;
#X connect 8 3 11 0;
#X connect 10 0 2 0;
#X connect 11 0 10 0;
#X connect 12 0 10 0;
#X connect 14 0 23 0;
#X connect 15 0 14 0;
#X connect 16 0 14 0;
#X connect 19 0 16 2;
#X connect 19 0 20 0;
#X connect 20 0 4 0;
#X connect 23 0 24 0;
#X connect 24 0 2 1;
#X connect 25 0 12 1;
