#N canvas 1460 522 635 581 10;
#X obj 72 52 inlet;
#X obj 223 522 outlet~;
#X obj 223 497 *~;
#X obj 73 518 outlet;
#X obj 363 345 cnv 15 180 150 empty empty play_envelope 20 12 0 14
-233017 -66577 0;
#X obj 376 436 vline~;
#X text 379 390 attack;
#X text 454 391 release;
#X obj 376 468 tabread4~ \$1;
#X obj 335 50 inlet;
#X text 495 18 grrrr.org 2012;
#X obj 452 371 t b a;
#X obj 376 373 t b a;
#X obj 376 406 pack \$2 0 0;
#X obj 452 406 pack 0 0 0;
#X obj 222 253 upp.s2ms;
#X obj 319 189 upp.once;
#X obj 472 291 upp.s2ms;
#X obj 72 197 \$3 \$4 \$5 \$6 \$7 \$8 \$9;
#X text 71 34 tag attack(ms) delay(samples) other args;
#X text 333 34 tag release(ms) delay(samples) other args;
#X obj 335 81 list split 1;
#X obj 369 106 list split 2;
#X obj 335 131 list append;
#X obj 335 258 f;
#X obj 374 257 f;
#X obj 318 223 t b b;
#X obj 72 113 list split 1;
#X obj 106 138 list split 2;
#X obj 72 163 list append;
#X obj 141 252 unpack 0 0;
#N canvas 484 237 243 216 delwrite 0;
#X obj 47 32 inlet~;
#X obj 46 132 outlet~;
#X obj 47 67 delwrite~ \$0-delay 10;
#X connect 0 0 2 0;
#X restore 72 314 pd delwrite;
#N canvas 0 22 307 200 delread 0;
#X obj 70 37 inlet~;
#X obj 69 128 outlet~;
#X obj 187 36 inlet;
#X obj 69 97 delread~ \$0-delay;
#X connect 2 0 3 0;
#X connect 3 0 1 0;
#X restore 72 354 pd delread;
#X obj 72 79 t a b;
#X obj 399 189 unpack 0 0;
#X connect 0 0 33 0;
#X connect 2 0 1 0;
#X connect 5 0 8 0;
#X connect 8 0 2 1;
#X connect 9 0 21 0;
#X connect 11 0 14 0;
#X connect 11 1 14 1;
#X connect 12 0 13 0;
#X connect 12 1 13 1;
#X connect 13 0 5 0;
#X connect 14 0 5 0;
#X connect 15 0 13 2;
#X connect 15 0 32 1;
#X connect 16 0 26 0;
#X connect 17 0 14 2;
#X connect 18 0 31 0;
#X connect 18 1 16 0;
#X connect 21 0 23 0;
#X connect 21 1 22 0;
#X connect 22 0 34 0;
#X connect 22 1 23 1;
#X connect 23 0 18 1;
#X connect 24 0 3 0;
#X connect 24 0 11 0;
#X connect 25 0 17 0;
#X connect 26 0 24 0;
#X connect 26 1 25 0;
#X connect 27 0 29 0;
#X connect 27 1 28 0;
#X connect 28 0 30 0;
#X connect 28 1 29 1;
#X connect 29 0 18 0;
#X connect 30 0 12 0;
#X connect 30 1 15 0;
#X connect 31 0 32 0;
#X connect 32 0 2 0;
#X connect 33 0 27 0;
#X connect 33 1 16 1;
#X connect 34 0 24 1;
#X connect 34 1 25 1;
