#N canvas 540 156 635 581 10;
#X obj 72 52 inlet;
#X obj 222 522 outlet~;
#X obj 73 518 outlet;
#X obj 363 345 cnv 15 180 150 empty empty play_envelope 20 12 0 14
-233017 -66577 0;
#X obj 376 436 vline~;
#X text 379 390 attack;
#X text 454 391 release;
#X obj 335 58 inlet;
#X text 495 18 grrrr.org 2012;
#X obj 452 371 t b a;
#X obj 376 373 t b a;
#X obj 376 406 pack \$2 0 0;
#X obj 452 406 pack 0 0 0;
#X obj 278 433 upp.s2ms;
#X obj 331 189 upp.once;
#X obj 459 295 upp.s2ms;
#X obj 72 146 \$3 \$4 \$5 \$6 \$7 \$8 \$9;
#X text 71 34 tag attack(ms) delay(samples) other args;
#X text 333 34 tag release(ms) delay(samples) other args;
#X obj 331 268 f;
#X obj 458 257 f;
#X obj 331 214 t b b;
#X obj 153 173 unpack 0 0;
#X obj 72 79 t a b;
#X obj 416 188 unpack 0 0;
#X obj 335 84 upp._extract 2;
#X obj 72 108 upp._extract 2;
#X obj 222 462 upp.delay~;
#X obj 376 468 upp.tabread2~ \$1;
#X obj 279 410 + 0.25;
#X obj 222 494 *~;
#X text 218 391 avoid sample round-off;
#X connect 0 0 23 0;
#X connect 4 0 28 0;
#X connect 7 0 25 0;
#X connect 9 0 12 0;
#X connect 9 1 12 1;
#X connect 10 0 11 0;
#X connect 10 1 11 1;
#X connect 11 0 4 0;
#X connect 12 0 4 0;
#X connect 13 0 27 1;
#X connect 14 0 21 0;
#X connect 15 0 12 2;
#X connect 15 0 11 2;
#X connect 16 0 27 0;
#X connect 16 1 14 0;
#X connect 19 0 2 0;
#X connect 19 0 9 0;
#X connect 20 0 15 0;
#X connect 21 0 19 0;
#X connect 21 1 20 0;
#X connect 22 0 10 0;
#X connect 22 1 29 0;
#X connect 22 1 15 0;
#X connect 23 0 26 0;
#X connect 23 1 14 1;
#X connect 24 0 19 1;
#X connect 24 1 20 1;
#X connect 25 0 16 1;
#X connect 25 1 24 0;
#X connect 26 0 16 0;
#X connect 26 1 22 0;
#X connect 27 0 30 0;
#X connect 28 0 30 1;
#X connect 29 0 13 0;
#X connect 30 0 1 0;
