#N canvas 51 67 655 573 10;
#X obj 72 52 inlet;
#X obj 222 522 outlet~;
#X obj 74 522 outlet;
#X obj 363 345 cnv 15 180 150 empty empty play_envelope 20 12 0 14
-233017 -66577 0;
#X obj 335 58 inlet;
#X obj 331 189 upp.once;
#X obj 331 241 f;
#X obj 518 305 f;
#X obj 331 210 t b b;
#X obj 153 173 unpack 0 0;
#X obj 72 79 t a b;
#X obj 416 188 unpack 0 0;
#X obj 335 84 upp._extract 2;
#X obj 72 108 upp._extract 2;
#X obj 72 146 \$3 \$4 \$5 \$6 \$7 \$8 \$9;
#X obj 380 468 upp.tabread2~ \$1;
#X obj 222 500 *~;
#X obj 380 443 *~ \$2;
#X obj 473 371 pack 0 0;
#X obj 380 374 pack 0 0;
#X text 493 423 vline~ doesn't work;
#X text 465 18 grrrr.org 2012-2016;
#X msg 380 395 up \$1 \$2;
#X msg 473 393 down \$1 \$2;
#X obj 380 420 upp.ramp_up_down~;
#X obj 222 462 upp.delay~;
#X text 71 34 tag attack(samples) delay(samples) other args;
#X text 368 37 tag release(samples) delay(samples) other args;
#X obj 429 517 print RAMP \$0;
#X connect 0 0 10 0;
#X connect 4 0 12 0;
#X connect 5 0 8 0;
#X connect 6 0 2 0;
#X connect 6 0 18 0;
#X connect 7 0 18 1;
#X connect 8 0 6 0;
#X connect 8 1 7 0;
#X connect 9 0 19 0;
#X connect 9 1 19 1;
#X connect 9 1 25 1;
#X connect 10 0 13 0;
#X connect 10 1 5 1;
#X connect 11 0 6 1;
#X connect 11 1 7 1;
#X connect 12 0 14 1;
#X connect 12 1 11 0;
#X connect 13 0 14 0;
#X connect 13 1 9 0;
#X connect 14 0 25 0;
#X connect 14 1 5 0;
#X connect 15 0 16 1;
#X connect 16 0 1 0;
#X connect 17 0 15 0;
#X connect 18 0 23 0;
#X connect 19 0 22 0;
#X connect 22 0 24 0;
#X connect 22 0 28 0;
#X connect 23 0 24 0;
#X connect 23 0 28 0;
#X connect 24 0 17 0;
#X connect 25 0 16 0;
