#N canvas 391 128 674 600 10;
#X obj 54 86 inlet;
#X obj 204 556 outlet~;
#X obj 56 556 outlet;
#X obj 297 369 cnv 15 180 150 empty empty play_envelope 20 12 0 14
-233017 -66577 0;
#X obj 317 92 inlet;
#X obj 313 223 upp.once;
#X obj 135 207 unpack 0 0;
#X obj 54 113 t a b;
#X obj 398 222 unpack 0 0;
#X obj 317 118 upp._extract 2;
#X obj 54 142 upp._extract 2;
#X obj 314 492 upp.tabread2~ \$1;
#X obj 204 534 *~;
#X text 447 52 grrrr.org 2012-2016;
#X obj 54 285 upp.delay~;
#X text 53 68 tag attack(samples) delay(samples) other args;
#X text 350 71 tag release(samples) delay(samples) other args;
#X obj 398 403 t b a;
#X obj 398 437 pack 0 0 0;
#X obj 335 272 f;
#X obj 440 276 f;
#X obj 313 244 t b b;
#X obj 314 305 +;
#X msg 363 404 0;
#X obj 314 471 upp.vline~;
#X obj 314 389 t b a b;
#X text 56 16 Arguments:;
#X text 56 31 \$1 table for envelope;
#X obj 524 123 loadbang;
#X obj 524 146 array size \$1;
#X obj 314 414 f;
#X obj 314 437 pack 0 0 0;
#X obj 54 180 \$2 \$3 \$4 \$5 \$6 \$7 \$8 \$9;
#X connect 0 0 7 0;
#X connect 4 0 9 0;
#X connect 5 0 21 0;
#X connect 6 0 25 0;
#X connect 6 1 14 1;
#X connect 6 1 31 2;
#X connect 7 0 10 0;
#X connect 7 1 5 1;
#X connect 8 0 19 1;
#X connect 8 1 20 1;
#X connect 9 0 32 1;
#X connect 9 1 8 0;
#X connect 10 0 32 0;
#X connect 10 1 6 0;
#X connect 11 0 12 1;
#X connect 12 0 1 0;
#X connect 14 0 12 0;
#X connect 17 0 18 0;
#X connect 17 1 18 1;
#X connect 18 0 24 0;
#X connect 19 0 17 0;
#X connect 19 0 22 0;
#X connect 20 0 18 2;
#X connect 20 0 22 1;
#X connect 21 0 19 0;
#X connect 21 1 20 0;
#X connect 22 0 2 0;
#X connect 23 0 24 0;
#X connect 24 0 11 0;
#X connect 25 0 30 0;
#X connect 25 1 31 1;
#X connect 25 2 23 0;
#X connect 28 0 29 0;
#X connect 29 0 30 1;
#X connect 30 0 31 0;
#X connect 31 0 24 0;
#X connect 32 0 14 0;
#X connect 32 1 5 0;
