#N canvas 51 67 740 583 10;
#X obj 72 52 inlet;
#X obj 222 522 outlet~;
#X obj 73 518 outlet;
#X obj 363 345 cnv 15 180 150 empty empty play_envelope 20 12 0 14
-233017 -66577 0;
#X obj 335 58 inlet;
#X obj 211 304 upp.s2ms;
#X obj 331 189 upp.once;
#X obj 485 297 upp.s2ms;
#X text 71 34 tag attack(ms) delay(samples) other args;
#X text 333 34 tag release(ms) delay(samples) other args;
#X obj 331 283 f;
#X obj 484 247 f;
#X obj 331 210 t b b;
#X obj 153 173 unpack 0 0;
#X obj 72 79 t a b;
#X obj 416 188 unpack 0 0;
#X obj 335 84 upp._extract 2;
#X obj 72 108 upp._extract 2;
#X obj 222 462 upp.delay~;
#X text 150 265 avoid sample round-off;
#X obj 72 146 \$3 \$4 \$5 \$6 \$7 \$8 \$9;
#X obj 380 468 upp.tabread2~ \$1;
#X obj 222 500 *~;
#X obj 211 282 + 0.1;
#X obj 484 274 + 0.1, f 6;
#X obj 380 443 *~ \$2;
#X obj 441 387 pack 0 0;
#X obj 379 387 pack 0 0;
#N canvas 778 135 450 300 ramp_up_down 0;
#X obj 62 36 inlet;
#X obj 179 37 inlet;
#X obj 63 231 outlet~;
#X obj 64 152 vline~;
#X text 67 106 attack;
#X text 178 109 release;
#X obj 176 89 t b a;
#X obj 64 89 t b a;
#X obj 176 124 pack 0 0 0;
#X obj 64 122 pack 1 0 0;
#X obj 63 65 unpack 0 0;
#X obj 178 62 unpack 0 0;
#X connect 0 0 10 0;
#X connect 1 0 11 0;
#X connect 3 0 2 0;
#X connect 6 0 8 0;
#X connect 6 1 8 1;
#X connect 7 0 9 0;
#X connect 7 1 9 1;
#X connect 8 0 3 0;
#X connect 9 0 3 0;
#X connect 10 0 7 0;
#X connect 10 1 9 2;
#X connect 11 0 6 0;
#X connect 11 1 8 2;
#X restore 566 408 pd ramp_up_down;
#X text 570 385 vline~ doesn't work;
#X obj 380 417 upp.ramp_up_down;
#X text 465 18 grrrr.org 2012-2016;
#X connect 0 0 14 0;
#X connect 4 0 16 0;
#X connect 5 0 18 1;
#X connect 5 0 27 1;
#X connect 6 0 12 0;
#X connect 7 0 26 1;
#X connect 10 0 2 0;
#X connect 10 0 26 0;
#X connect 11 0 24 0;
#X connect 12 0 10 0;
#X connect 12 1 11 0;
#X connect 13 0 27 0;
#X connect 13 1 23 0;
#X connect 14 0 17 0;
#X connect 14 1 6 1;
#X connect 15 0 10 1;
#X connect 15 1 11 1;
#X connect 16 0 20 1;
#X connect 16 1 15 0;
#X connect 17 0 20 0;
#X connect 17 1 13 0;
#X connect 18 0 22 0;
#X connect 20 0 18 0;
#X connect 21 0 22 1;
#X connect 22 0 1 0;
#X connect 23 0 5 0;
#X connect 24 0 7 0;
#X connect 25 0 21 0;
#X connect 26 0 30 1;
#X connect 27 0 30 0;
#X connect 30 0 25 0;
