#N canvas 731 72 674 564 10;
#X obj 72 52 inlet;
#X obj 222 522 outlet~;
#X obj 74 522 outlet;
#X obj 315 335 cnv 15 180 150 empty empty play_envelope 20 12 0 14
-233017 -66577 0;
#X obj 335 58 inlet;
#X obj 331 189 upp.once;
#X obj 153 173 unpack 0 0;
#X obj 72 79 t a b;
#X obj 416 188 unpack 0 0;
#X obj 335 84 upp._extract 2;
#X obj 72 108 upp._extract 2;
#X obj 332 458 upp.tabread2~ \$1;
#X obj 222 500 *~;
#X text 465 18 grrrr.org 2012-2016;
#X obj 72 251 upp.delay~;
#X text 71 34 tag attack(samples) delay(samples) other args;
#X text 368 37 tag release(samples) delay(samples) other args;
#X obj 416 369 t b a;
#X obj 332 394 pack \$2 0 0;
#X obj 416 394 pack 0 0 0;
#X obj 353 238 f;
#X obj 458 242 f;
#X obj 331 210 t b b;
#X obj 332 271 +;
#X msg 381 370 0;
#X obj 332 428 upp.vline~;
#X obj 332 370 t b a b;
#X obj 72 146 \$3 \$4 \$5 \$6 \$7 \$8 \$9;
#X connect 0 0 7 0;
#X connect 4 0 9 0;
#X connect 5 0 22 0;
#X connect 6 0 26 0;
#X connect 6 1 14 1;
#X connect 6 1 18 2;
#X connect 7 0 10 0;
#X connect 7 1 5 1;
#X connect 8 0 20 1;
#X connect 8 1 21 1;
#X connect 9 0 27 1;
#X connect 9 1 8 0;
#X connect 10 0 27 0;
#X connect 10 1 6 0;
#X connect 11 0 12 1;
#X connect 12 0 1 0;
#X connect 14 0 12 0;
#X connect 17 0 19 0;
#X connect 17 1 19 1;
#X connect 18 0 25 0;
#X connect 19 0 25 0;
#X connect 20 0 17 0;
#X connect 20 0 23 0;
#X connect 21 0 19 2;
#X connect 21 0 23 1;
#X connect 22 0 20 0;
#X connect 22 1 21 0;
#X connect 23 0 2 0;
#X connect 24 0 25 0;
#X connect 25 0 11 0;
#X connect 26 0 18 0;
#X connect 26 1 18 1;
#X connect 26 2 24 0;
#X connect 27 0 14 0;
#X connect 27 1 5 0;
