#N canvas 769 174 635 581 10;
#X obj 72 62 inlet;
#X obj 223 522 outlet~;
#X obj 223 497 *~;
#X obj 73 518 outlet;
#X obj 291 372 cnv 15 180 100 empty empty fading 20 12 0 14 -233017
-66577 0;
#X obj 335 68 inlet;
#X obj 331 189 upp.once;
#X obj 72 156 \$3 \$4 \$5 \$6 \$7 \$8 \$9;
#X text 71 44 tag attack(ms) delay(samples) other args;
#X text 333 44 tag release(ms) delay(samples) other args;
#X obj 347 258 f;
#X obj 386 257 f;
#X obj 331 214 t b b;
#X obj 153 188 unpack 0 0;
#X obj 72 89 t a b;
#X obj 416 188 unpack 0 0;
#X obj 335 94 upp._extract 2;
#X obj 72 118 upp._extract 2;
#X obj 72 272 upp.delay~;
#X obj 394 398 pack 0 0;
#X obj 301 401 pack 0 0;
#X msg 301 422 up \$1 \$2;
#X msg 394 420 down \$1 \$2;
#X obj 345 308 upp.ms2s;
#X obj 196 307 upp.ms2s;
#X text 466 20 grrrr.org 2012-2016;
#X obj 301 447 upp.ramp_up_down~;
#X connect 0 0 14 0;
#X connect 2 0 1 0;
#X connect 5 0 16 0;
#X connect 6 0 12 0;
#X connect 7 0 18 0;
#X connect 10 0 3 0;
#X connect 10 0 23 0;
#X connect 11 0 19 1;
#X connect 12 0 10 0;
#X connect 12 1 11 0;
#X connect 13 0 24 0;
#X connect 13 1 18 1;
#X connect 13 1 20 1;
#X connect 14 0 17 0;
#X connect 14 1 6 1;
#X connect 15 0 10 1;
#X connect 15 1 11 1;
#X connect 16 0 7 1;
#X connect 16 1 15 0;
#X connect 17 0 7 0;
#X connect 17 1 13 0;
#X connect 18 0 2 0;
#X connect 19 0 22 0;
#X connect 20 0 21 0;
#X connect 21 0 26 0;
#X connect 22 0 26 0;
#X connect 23 0 19 0;
#X connect 24 0 20 0;
#X connect 26 0 2 1;
