#N canvas 64 78 715 573 10;
#X obj 72 62 inlet;
#X obj 223 522 outlet~;
#X obj 223 497 *~;
#X obj 73 518 outlet;
#X obj 291 372 cnv 15 180 130 empty empty fading 20 12 0 14 -233017
-66577 0;
#X obj 361 61 inlet;
#X obj 331 189 upp.once;
#X obj 343 249 f;
#X obj 449 256 f;
#X obj 331 209 t b b;
#X obj 153 189 unpack 0 0;
#X obj 72 89 t a b;
#X obj 407 189 unpack 0 0;
#X obj 361 87 upp._extract 2;
#X obj 72 272 upp.delay~;
#X obj 301 471 upp.vline~;
#X obj 394 395 t b a;
#X obj 394 441 pack 0 0 0;
#X obj 301 442 pack 1 0 0;
#X text 71 44 tag attack(samples) delay(samples) other args;
#X text 359 43 tag release(samples) delay(samples) other args;
#X obj 301 396 t b a b;
#X msg 340 420 0;
#X obj 331 301 +;
#X obj 72 156 \$1 \$2 \$3 \$4 \$5 \$6 \$7 \$8 \$9;
#X obj 72 118 upp._extract 2;
#X text 403 205 release;
#X text 469 205 delay;
#X text 453 273 delay;
#X text 302 318 delay+release;
#X text 336 265 release;
#X text 466 20 grrrr.org 2012-2018;
#X connect 0 0 11 0;
#X connect 2 0 1 0;
#X connect 5 0 13 0;
#X connect 6 0 9 0;
#X connect 7 0 16 0;
#X connect 7 0 23 0;
#X connect 8 0 17 2;
#X connect 8 0 23 1;
#X connect 9 0 7 0;
#X connect 9 1 8 0;
#X connect 10 0 21 0;
#X connect 10 1 14 1;
#X connect 10 1 18 2;
#X connect 11 0 25 0;
#X connect 11 1 6 1;
#X connect 12 0 7 1;
#X connect 12 1 8 1;
#X connect 13 0 24 1;
#X connect 13 1 12 0;
#X connect 14 0 2 0;
#X connect 15 0 2 1;
#X connect 16 0 17 0;
#X connect 16 1 17 1;
#X connect 17 0 15 0;
#X connect 18 0 15 0;
#X connect 21 0 18 0;
#X connect 21 1 18 1;
#X connect 21 2 22 0;
#X connect 22 0 15 0;
#X connect 23 0 3 0;
#X connect 24 0 14 0;
#X connect 24 1 6 0;
#X connect 25 0 24 0;
#X connect 25 1 10 0;
