#N canvas 0 22 450 300 10;
#X obj 46 83 bng 15 250 50 0 empty empty empty 17 7 0 10 -262144 -1
-1;
#X obj 46 115 t b b;
#X obj 117 81 bng 15 250 50 0 empty empty empty 17 7 0 10 -262144 -1
-1;
#X obj 117 113 t b b;
#X obj 224 83 bng 15 250 50 0 empty empty empty 17 7 0 10 -262144 -1
-1;
#X obj 224 115 t b b;
#X obj 103 149 upp.delay 1;
#X obj 216 144 upp.delay 64;
#X obj 318 83 bng 15 250 50 0 empty empty empty 17 7 0 10 -262144 -1
-1;
#X obj 318 115 t b b;
#X obj 310 144 upp.delay 640;
#X floatatom 46 262 5 0 0 0 - - -, f 5;
#X obj 47 233 upp.dspintv;
#X text 45 15 Measure time interval in DSP ticks;
#X text 46 30 0 indicates that messages fall within the same DSP tick
;
#X text 45 46 grrrr.org 2016;
#X connect 0 0 1 0;
#X connect 1 0 12 0;
#X connect 1 1 12 1;
#X connect 2 0 3 0;
#X connect 3 0 6 0;
#X connect 3 1 12 1;
#X connect 4 0 5 0;
#X connect 5 0 7 0;
#X connect 5 1 12 1;
#X connect 6 0 12 0;
#X connect 7 0 12 0;
#X connect 8 0 9 0;
#X connect 9 0 10 0;
#X connect 9 1 12 1;
#X connect 10 0 12 0;
#X connect 12 0 11 0;
