#N canvas 0 22 156 251 10;
#X obj 39 34 bang~;
#X obj 39 80 timer;
#X obj 39 123 upp.ms2s;
#X obj 39 55 t b b;
#X obj 39 208 outlet;
#X obj 39 147 + 0.5;
#X obj 39 168 int;
#X obj 39 102 change -1;
#X connect 0 0 3 0;
#X connect 1 0 7 0;
#X connect 2 0 5 0;
#X connect 3 0 1 0;
#X connect 3 1 1 1;
#X connect 5 0 6 0;
#X connect 6 0 4 0;
#X connect 7 0 2 0;
