#N canvas 495 247 881 347 10;
#X msg 69 67 0;
#X msg 105 66 1;
#X floatatom 69 296 5 0 0 0 - - -, f 5;
#X msg 190 65 64;
#X msg 139 42 63.4;
#X msg 138 66 63.5;
#X msg 140 87 63.6;
#X msg 189 40 63.9999;
#X floatatom 108 297 5 0 0 0 - - -, f 5;
#X floatatom 147 297 5 0 0 0 - - -, f 5;
#N canvas 0 22 355 279 block_transitions 0;
#X obj 117 41 bang~;
#X obj 43 105 t b b;
#X msg 164 104 1;
#X msg 130 105 0;
#X obj 117 145 spigot;
#X obj 117 176 f;
#X obj 148 175 + 1;
#X msg 217 145 0;
#X obj 217 41 inlet;
#X text 215 20 reset;
#X obj 43 41 inlet;
#X text 40 21 trigger;
#X obj 102 232 outlet;
#X obj 102 208 f;
#X connect 0 0 4 0;
#X connect 1 0 13 0;
#X connect 1 1 3 0;
#X connect 2 0 4 1;
#X connect 3 0 4 1;
#X connect 4 0 5 0;
#X connect 5 0 6 0;
#X connect 5 0 13 1;
#X connect 6 0 5 1;
#X connect 7 0 5 0;
#X connect 8 0 7 0;
#X connect 8 0 2 0;
#X connect 10 0 1 0;
#X connect 13 0 12 0;
#X restore 69 266 pd block_transitions;
#X msg 191 115 128;
#X msg 190 90 64.5;
#X msg 192 141 1000;
#X obj 69 161 t a b;
#X msg 359 61 0;
#X msg 395 60 1;
#X msg 480 59 64;
#X msg 429 36 63.4;
#X msg 428 60 63.5;
#X msg 430 81 63.6;
#X msg 479 34 63.9999;
#X msg 481 109 128;
#X msg 480 84 64.5;
#X msg 482 135 1000;
#N canvas 0 22 239 213 print_dsp_blocks 0;
#X obj 143 168 print~;
#X obj 36 105 spigot;
#X obj 105 105 - 1;
#X obj 36 127 t a b;
#X obj 36 80 t a a;
#X obj 39 20 bang~;
#X obj 37 59 f;
#X obj 94 20 inlet;
#X obj 145 20 inlet~;
#X obj 94 42 t f b;
#X connect 1 0 3 0;
#X connect 2 0 6 1;
#X connect 3 0 2 0;
#X connect 3 1 0 0;
#X connect 4 0 1 0;
#X connect 4 1 1 1;
#X connect 5 0 6 0;
#X connect 6 0 4 0;
#X connect 7 0 9 0;
#X connect 8 0 0 0;
#X connect 9 0 6 1;
#X restore 358 306 pd print_dsp_blocks;
#X obj 469 279 sig~;
#X msg 448 234 1;
#X msg 479 234 0;
#X obj 473 180 print -----------;
#X obj 359 155 t a b;
#X msg 358 280 3;
#X obj 359 197 upp.delay;
#X obj 69 214 upp.delay;
#X obj 655 196 upp.delay;
#N canvas 0 22 239 213 print_dsp_blocks 0;
#X obj 143 168 print~;
#X obj 36 105 spigot;
#X obj 105 105 - 1;
#X obj 36 127 t a b;
#X obj 36 80 t a a;
#X obj 39 20 bang~;
#X obj 37 59 f;
#X obj 94 20 inlet;
#X obj 145 20 inlet~;
#X obj 94 42 t f b;
#X connect 1 0 3 0;
#X connect 2 0 6 1;
#X connect 3 0 2 0;
#X connect 3 1 0 0;
#X connect 4 0 1 0;
#X connect 4 1 1 1;
#X connect 5 0 6 0;
#X connect 6 0 4 0;
#X connect 7 0 9 0;
#X connect 8 0 0 0;
#X connect 9 0 6 1;
#X restore 648 294 pd print_dsp_blocks;
#X obj 759 267 sig~;
#X obj 655 140 t b b;
#X msg 655 168 64;
#X msg 654 230 0;
#X obj 655 77 bng 15 250 50 0 empty empty empty 17 7 0 10 -262144 -1
-1;
#X obj 718 195 upp.delay;
#X msg 718 167 64;
#X obj 781 194 upp.delay;
#X msg 781 166 64;
#X msg 694 230 1;
#X msg 733 231 2;
#X msg 773 230 3;
#X msg 648 268 4;
#X connect 0 0 14 0;
#X connect 1 0 14 0;
#X connect 3 0 14 0;
#X connect 4 0 14 0;
#X connect 5 0 14 0;
#X connect 6 0 14 0;
#X connect 7 0 14 0;
#X connect 10 0 2 0;
#X connect 11 0 14 0;
#X connect 12 0 14 0;
#X connect 13 0 14 0;
#X connect 14 0 33 0;
#X connect 14 1 10 1;
#X connect 15 0 30 0;
#X connect 16 0 30 0;
#X connect 17 0 30 0;
#X connect 18 0 30 0;
#X connect 19 0 30 0;
#X connect 20 0 30 0;
#X connect 21 0 30 0;
#X connect 22 0 30 0;
#X connect 23 0 30 0;
#X connect 24 0 30 0;
#X connect 26 0 25 1;
#X connect 27 0 26 0;
#X connect 28 0 26 0;
#X connect 30 0 32 0;
#X connect 30 1 28 0;
#X connect 30 1 29 0;
#X connect 30 1 31 0;
#X connect 31 0 25 0;
#X connect 32 0 27 0;
#X connect 33 0 10 0;
#X connect 33 1 8 0;
#X connect 33 2 9 0;
#X connect 34 0 42 0;
#X connect 34 0 45 0;
#X connect 36 0 35 1;
#X connect 37 0 38 0;
#X connect 37 1 48 0;
#X connect 37 1 39 0;
#X connect 38 0 34 0;
#X connect 39 0 36 0;
#X connect 40 0 37 0;
#X connect 41 0 44 0;
#X connect 41 0 46 0;
#X connect 42 0 41 0;
#X connect 43 0 47 0;
#X connect 44 0 43 0;
#X connect 45 0 36 0;
#X connect 46 0 36 0;
#X connect 47 0 36 0;
#X connect 48 0 35 0;
