#N canvas 164 562 889 269 10;
#X obj 69 38 inlet;
#X obj 69 195 outlet;
#X obj 142 195 outlet;
#X text 70 212 pass on;
#X text 138 212 release;
#X obj 168 37 inlet;
#X text 170 19 modulation message;
#X obj 207 195 outlet;
#X text 204 213 voices active;
#X text 67 20 event message;
#X obj 430 19 loadbang;
#X text 428 224 explicit loadbang after everything has been set up
;
#X text 217 121 dynamically created voices;
#N canvas 638 110 476 743 voices 0;
#X obj 50 50 upp.comm UPP-6533 0 note_off 0 0 0 0 0 0 0;
#X obj 50 70 upp.comm UPP-6533 1 note_off 0 0 0 0 0 0 0;
#X obj 50 90 upp.comm UPP-6533 2 note_off 0 0 0 0 0 0 0;
#X obj 50 110 upp.comm UPP-6533 3 note_off 0 0 0 0 0 0 0;
#X obj 50 130 upp.comm UPP-6533 4 note_off 0 0 0 0 0 0 0;
#X obj 50 150 upp.comm UPP-6533 5 note_off 0 0 0 0 0 0 0;
#X obj 50 170 upp.comm UPP-6533 6 note_off 0 0 0 0 0 0 0;
#X obj 50 190 upp.comm UPP-6533 7 note_off 0 0 0 0 0 0 0;
#X obj 50 210 upp.comm UPP-6533 8 note_off 0 0 0 0 0 0 0;
#X obj 50 230 upp.comm UPP-6533 9 note_off 0 0 0 0 0 0 0;
#X obj 50 250 upp.comm UPP-6533 10 note_off 0 0 0 0 0 0 0;
#X obj 50 270 upp.comm UPP-6533 11 note_off 0 0 0 0 0 0 0;
#X obj 50 290 upp.comm UPP-6533 12 note_off 0 0 0 0 0 0 0;
#X obj 50 310 upp.comm UPP-6533 13 note_off 0 0 0 0 0 0 0;
#X obj 50 330 upp.comm UPP-6533 14 note_off 0 0 0 0 0 0 0;
#X obj 50 350 upp.comm UPP-6533 15 note_off 0 0 0 0 0 0 0;
#X obj 50 370 upp.comm UPP-6533 16 note_off 0 0 0 0 0 0 0;
#X obj 50 390 upp.comm UPP-6533 17 note_off 0 0 0 0 0 0 0;
#X obj 50 410 upp.comm UPP-6533 18 note_off 0 0 0 0 0 0 0;
#X obj 50 430 upp.comm UPP-6533 19 note_off 0 0 0 0 0 0 0;
#X obj 50 450 upp.comm UPP-6533 20 note_off 0 0 0 0 0 0 0;
#X obj 50 470 upp.comm UPP-6533 21 note_off 0 0 0 0 0 0 0;
#X obj 50 490 upp.comm UPP-6533 22 note_off 0 0 0 0 0 0 0;
#X obj 50 510 upp.comm UPP-6533 23 note_off 0 0 0 0 0 0 0;
#X obj 50 530 upp.comm UPP-6533 24 note_off 0 0 0 0 0 0 0;
#X obj 50 550 upp.comm UPP-6533 25 note_off 0 0 0 0 0 0 0;
#X obj 50 570 upp.comm UPP-6533 26 note_off 0 0 0 0 0 0 0;
#X obj 50 590 upp.comm UPP-6533 27 note_off 0 0 0 0 0 0 0;
#X obj 50 610 upp.comm UPP-6533 28 note_off 0 0 0 0 0 0 0;
#X obj 50 630 upp.comm UPP-6533 29 note_off 0 0 0 0 0 0 0;
#X obj 50 650 upp.comm UPP-6533 30 note_off 0 0 0 0 0 0 0;
#X obj 50 670 upp.comm UPP-6533 31 note_off 0 0 0 0 0 0 0;
#X obj 50 690 upp.comm UPP-6533 32 note_off 0 0 0 0 0 0 0;
#X obj 50 710 upp.comm UPP-6533 33 note_off 0 0 0 0 0 0 0;
#X obj 50 730 upp.comm UPP-6533 34 note_off 0 0 0 0 0 0 0;
#X obj 50 750 upp.comm UPP-6533 35 note_off 0 0 0 0 0 0 0;
#X obj 50 770 upp.comm UPP-6533 36 note_off 0 0 0 0 0 0 0;
#X obj 50 790 upp.comm UPP-6533 37 note_off 0 0 0 0 0 0 0;
#X obj 50 810 upp.comm UPP-6533 38 note_off 0 0 0 0 0 0 0;
#X obj 50 830 upp.comm UPP-6533 39 note_off 0 0 0 0 0 0 0;
#X obj 50 850 upp.comm UPP-6533 40 note_off 0 0 0 0 0 0 0;
#X obj 50 870 upp.comm UPP-6533 41 note_off 0 0 0 0 0 0 0;
#X obj 50 890 upp.comm UPP-6533 42 note_off 0 0 0 0 0 0 0;
#X obj 50 910 upp.comm UPP-6533 43 note_off 0 0 0 0 0 0 0;
#X obj 50 930 upp.comm UPP-6533 44 note_off 0 0 0 0 0 0 0;
#X obj 50 950 upp.comm UPP-6533 45 note_off 0 0 0 0 0 0 0;
#X obj 50 970 upp.comm UPP-6533 46 note_off 0 0 0 0 0 0 0;
#X obj 50 990 upp.comm UPP-6533 47 note_off 0 0 0 0 0 0 0;
#X obj 50 1010 upp.comm UPP-6533 48 note_off 0 0 0 0 0 0 0;
#X obj 50 1030 upp.comm UPP-6533 49 note_off 0 0 0 0 0 0 0;
#X obj 50 1050 upp.comm UPP-6533 50 note_off 0 0 0 0 0 0 0;
#X obj 50 1070 upp.comm UPP-6533 51 note_off 0 0 0 0 0 0 0;
#X obj 50 1090 upp.comm UPP-6533 52 note_off 0 0 0 0 0 0 0;
#X obj 50 1110 upp.comm UPP-6533 53 note_off 0 0 0 0 0 0 0;
#X obj 50 1130 upp.comm UPP-6533 54 note_off 0 0 0 0 0 0 0;
#X obj 50 1150 upp.comm UPP-6533 55 note_off 0 0 0 0 0 0 0;
#X obj 50 1170 upp.comm UPP-6533 56 note_off 0 0 0 0 0 0 0;
#X obj 50 1190 upp.comm UPP-6533 57 note_off 0 0 0 0 0 0 0;
#X obj 50 1210 upp.comm UPP-6533 58 note_off 0 0 0 0 0 0 0;
#X obj 50 1230 upp.comm UPP-6533 59 note_off 0 0 0 0 0 0 0;
#X obj 50 1250 upp.comm UPP-6533 60 note_off 0 0 0 0 0 0 0;
#X obj 50 1270 upp.comm UPP-6533 61 note_off 0 0 0 0 0 0 0;
#X obj 50 1290 upp.comm UPP-6533 62 note_off 0 0 0 0 0 0 0;
#X obj 50 1310 upp.comm UPP-6533 63 note_off 0 0 0 0 0 0 0;
#X obj 50 1330 upp.comm UPP-6533 64 note_off 0 0 0 0 0 0 0;
#X obj 50 1350 upp.comm UPP-6533 65 note_off 0 0 0 0 0 0 0;
#X obj 50 1370 upp.comm UPP-6533 66 note_off 0 0 0 0 0 0 0;
#X obj 50 1390 upp.comm UPP-6533 67 note_off 0 0 0 0 0 0 0;
#X obj 50 1410 upp.comm UPP-6533 68 note_off 0 0 0 0 0 0 0;
#X obj 50 1430 upp.comm UPP-6533 69 note_off 0 0 0 0 0 0 0;
#X obj 50 1450 upp.comm UPP-6533 70 note_off 0 0 0 0 0 0 0;
#X obj 50 1470 upp.comm UPP-6533 71 note_off 0 0 0 0 0 0 0;
#X obj 50 1490 upp.comm UPP-6533 72 note_off 0 0 0 0 0 0 0;
#X obj 50 1510 upp.comm UPP-6533 73 note_off 0 0 0 0 0 0 0;
#X obj 50 1530 upp.comm UPP-6533 74 note_off 0 0 0 0 0 0 0;
#X obj 50 1550 upp.comm UPP-6533 75 note_off 0 0 0 0 0 0 0;
#X obj 50 1570 upp.comm UPP-6533 76 note_off 0 0 0 0 0 0 0;
#X obj 50 1590 upp.comm UPP-6533 77 note_off 0 0 0 0 0 0 0;
#X obj 50 1610 upp.comm UPP-6533 78 note_off 0 0 0 0 0 0 0;
#X obj 50 1630 upp.comm UPP-6533 79 note_off 0 0 0 0 0 0 0;
#X obj 50 1650 upp.comm UPP-6533 80 note_off 0 0 0 0 0 0 0;
#X obj 50 1670 upp.comm UPP-6533 81 note_off 0 0 0 0 0 0 0;
#X obj 50 1690 upp.comm UPP-6533 82 note_off 0 0 0 0 0 0 0;
#X obj 50 1710 upp.comm UPP-6533 83 note_off 0 0 0 0 0 0 0;
#X obj 50 1730 upp.comm UPP-6533 84 note_off 0 0 0 0 0 0 0;
#X obj 50 1750 upp.comm UPP-6533 85 note_off 0 0 0 0 0 0 0;
#X obj 50 1770 upp.comm UPP-6533 86 note_off 0 0 0 0 0 0 0;
#X obj 50 1790 upp.comm UPP-6533 87 note_off 0 0 0 0 0 0 0;
#X obj 50 1810 upp.comm UPP-6533 88 note_off 0 0 0 0 0 0 0;
#X obj 50 1830 upp.comm UPP-6533 89 note_off 0 0 0 0 0 0 0;
#X obj 50 1850 upp.comm UPP-6533 90 note_off 0 0 0 0 0 0 0;
#X obj 50 1870 upp.comm UPP-6533 91 note_off 0 0 0 0 0 0 0;
#X obj 50 1890 upp.comm UPP-6533 92 note_off 0 0 0 0 0 0 0;
#X obj 50 1910 upp.comm UPP-6533 93 note_off 0 0 0 0 0 0 0;
#X obj 50 1930 upp.comm UPP-6533 94 note_off 0 0 0 0 0 0 0;
#X obj 50 1950 upp.comm UPP-6533 95 note_off 0 0 0 0 0 0 0;
#X obj 50 1970 upp.comm UPP-6533 96 note_off 0 0 0 0 0 0 0;
#X obj 50 1990 upp.comm UPP-6533 97 note_off 0 0 0 0 0 0 0;
#X obj 50 2010 upp.comm UPP-6533 98 note_off 0 0 0 0 0 0 0;
#X obj 50 2030 upp.comm UPP-6533 99 note_off 0 0 0 0 0 0 0;
#X obj 50 50 upp.comm UPP-11060 0 note_off 0 0 0 0 0 0 0;
#X obj 50 70 upp.comm UPP-11060 1 note_off 0 0 0 0 0 0 0;
#X obj 50 90 upp.comm UPP-11060 2 note_off 0 0 0 0 0 0 0;
#X obj 50 110 upp.comm UPP-11060 3 note_off 0 0 0 0 0 0 0;
#X obj 50 130 upp.comm UPP-11060 4 note_off 0 0 0 0 0 0 0;
#X obj 50 150 upp.comm UPP-11060 5 note_off 0 0 0 0 0 0 0;
#X obj 50 170 upp.comm UPP-11060 6 note_off 0 0 0 0 0 0 0;
#X obj 50 190 upp.comm UPP-11060 7 note_off 0 0 0 0 0 0 0;
#X obj 50 210 upp.comm UPP-11060 8 note_off 0 0 0 0 0 0 0;
#X obj 50 230 upp.comm UPP-11060 9 note_off 0 0 0 0 0 0 0;
#X obj 50 250 upp.comm UPP-11060 10 note_off 0 0 0 0 0 0 0;
#X obj 50 270 upp.comm UPP-11060 11 note_off 0 0 0 0 0 0 0;
#X obj 50 290 upp.comm UPP-11060 12 note_off 0 0 0 0 0 0 0;
#X obj 50 310 upp.comm UPP-11060 13 note_off 0 0 0 0 0 0 0;
#X obj 50 330 upp.comm UPP-11060 14 note_off 0 0 0 0 0 0 0;
#X obj 50 350 upp.comm UPP-11060 15 note_off 0 0 0 0 0 0 0;
#X obj 50 370 upp.comm UPP-11060 16 note_off 0 0 0 0 0 0 0;
#X obj 50 390 upp.comm UPP-11060 17 note_off 0 0 0 0 0 0 0;
#X obj 50 410 upp.comm UPP-11060 18 note_off 0 0 0 0 0 0 0;
#X obj 50 430 upp.comm UPP-11060 19 note_off 0 0 0 0 0 0 0;
#X obj 50 450 upp.comm UPP-11060 20 note_off 0 0 0 0 0 0 0;
#X obj 50 470 upp.comm UPP-11060 21 note_off 0 0 0 0 0 0 0;
#X obj 50 490 upp.comm UPP-11060 22 note_off 0 0 0 0 0 0 0;
#X obj 50 510 upp.comm UPP-11060 23 note_off 0 0 0 0 0 0 0;
#X obj 50 530 upp.comm UPP-11060 24 note_off 0 0 0 0 0 0 0;
#X obj 50 550 upp.comm UPP-11060 25 note_off 0 0 0 0 0 0 0;
#X obj 50 570 upp.comm UPP-11060 26 note_off 0 0 0 0 0 0 0;
#X obj 50 590 upp.comm UPP-11060 27 note_off 0 0 0 0 0 0 0;
#X obj 50 610 upp.comm UPP-11060 28 note_off 0 0 0 0 0 0 0;
#X obj 50 630 upp.comm UPP-11060 29 note_off 0 0 0 0 0 0 0;
#X obj 50 650 upp.comm UPP-11060 30 note_off 0 0 0 0 0 0 0;
#X obj 50 670 upp.comm UPP-11060 31 note_off 0 0 0 0 0 0 0;
#X obj 50 690 upp.comm UPP-11060 32 note_off 0 0 0 0 0 0 0;
#X obj 50 710 upp.comm UPP-11060 33 note_off 0 0 0 0 0 0 0;
#X obj 50 730 upp.comm UPP-11060 34 note_off 0 0 0 0 0 0 0;
#X obj 50 750 upp.comm UPP-11060 35 note_off 0 0 0 0 0 0 0;
#X obj 50 770 upp.comm UPP-11060 36 note_off 0 0 0 0 0 0 0;
#X obj 50 790 upp.comm UPP-11060 37 note_off 0 0 0 0 0 0 0;
#X obj 50 810 upp.comm UPP-11060 38 note_off 0 0 0 0 0 0 0;
#X obj 50 830 upp.comm UPP-11060 39 note_off 0 0 0 0 0 0 0;
#X obj 50 850 upp.comm UPP-11060 40 note_off 0 0 0 0 0 0 0;
#X obj 50 870 upp.comm UPP-11060 41 note_off 0 0 0 0 0 0 0;
#X obj 50 890 upp.comm UPP-11060 42 note_off 0 0 0 0 0 0 0;
#X obj 50 910 upp.comm UPP-11060 43 note_off 0 0 0 0 0 0 0;
#X obj 50 930 upp.comm UPP-11060 44 note_off 0 0 0 0 0 0 0;
#X obj 50 950 upp.comm UPP-11060 45 note_off 0 0 0 0 0 0 0;
#X obj 50 970 upp.comm UPP-11060 46 note_off 0 0 0 0 0 0 0;
#X obj 50 990 upp.comm UPP-11060 47 note_off 0 0 0 0 0 0 0;
#X obj 50 1010 upp.comm UPP-11060 48 note_off 0 0 0 0 0 0 0;
#X obj 50 1030 upp.comm UPP-11060 49 note_off 0 0 0 0 0 0 0;
#X obj 50 1050 upp.comm UPP-11060 50 note_off 0 0 0 0 0 0 0;
#X obj 50 1070 upp.comm UPP-11060 51 note_off 0 0 0 0 0 0 0;
#X obj 50 1090 upp.comm UPP-11060 52 note_off 0 0 0 0 0 0 0;
#X obj 50 1110 upp.comm UPP-11060 53 note_off 0 0 0 0 0 0 0;
#X obj 50 1130 upp.comm UPP-11060 54 note_off 0 0 0 0 0 0 0;
#X obj 50 1150 upp.comm UPP-11060 55 note_off 0 0 0 0 0 0 0;
#X obj 50 1170 upp.comm UPP-11060 56 note_off 0 0 0 0 0 0 0;
#X obj 50 1190 upp.comm UPP-11060 57 note_off 0 0 0 0 0 0 0;
#X obj 50 1210 upp.comm UPP-11060 58 note_off 0 0 0 0 0 0 0;
#X obj 50 1230 upp.comm UPP-11060 59 note_off 0 0 0 0 0 0 0;
#X obj 50 1250 upp.comm UPP-11060 60 note_off 0 0 0 0 0 0 0;
#X obj 50 1270 upp.comm UPP-11060 61 note_off 0 0 0 0 0 0 0;
#X obj 50 1290 upp.comm UPP-11060 62 note_off 0 0 0 0 0 0 0;
#X obj 50 1310 upp.comm UPP-11060 63 note_off 0 0 0 0 0 0 0;
#X obj 50 1330 upp.comm UPP-11060 64 note_off 0 0 0 0 0 0 0;
#X obj 50 1350 upp.comm UPP-11060 65 note_off 0 0 0 0 0 0 0;
#X obj 50 1370 upp.comm UPP-11060 66 note_off 0 0 0 0 0 0 0;
#X obj 50 1390 upp.comm UPP-11060 67 note_off 0 0 0 0 0 0 0;
#X obj 50 1410 upp.comm UPP-11060 68 note_off 0 0 0 0 0 0 0;
#X obj 50 1430 upp.comm UPP-11060 69 note_off 0 0 0 0 0 0 0;
#X obj 50 1450 upp.comm UPP-11060 70 note_off 0 0 0 0 0 0 0;
#X obj 50 1470 upp.comm UPP-11060 71 note_off 0 0 0 0 0 0 0;
#X obj 50 1490 upp.comm UPP-11060 72 note_off 0 0 0 0 0 0 0;
#X obj 50 1510 upp.comm UPP-11060 73 note_off 0 0 0 0 0 0 0;
#X obj 50 1530 upp.comm UPP-11060 74 note_off 0 0 0 0 0 0 0;
#X obj 50 1550 upp.comm UPP-11060 75 note_off 0 0 0 0 0 0 0;
#X obj 50 1570 upp.comm UPP-11060 76 note_off 0 0 0 0 0 0 0;
#X obj 50 1590 upp.comm UPP-11060 77 note_off 0 0 0 0 0 0 0;
#X obj 50 1610 upp.comm UPP-11060 78 note_off 0 0 0 0 0 0 0;
#X obj 50 1630 upp.comm UPP-11060 79 note_off 0 0 0 0 0 0 0;
#X obj 50 1650 upp.comm UPP-11060 80 note_off 0 0 0 0 0 0 0;
#X obj 50 1670 upp.comm UPP-11060 81 note_off 0 0 0 0 0 0 0;
#X obj 50 1690 upp.comm UPP-11060 82 note_off 0 0 0 0 0 0 0;
#X obj 50 1710 upp.comm UPP-11060 83 note_off 0 0 0 0 0 0 0;
#X obj 50 1730 upp.comm UPP-11060 84 note_off 0 0 0 0 0 0 0;
#X obj 50 1750 upp.comm UPP-11060 85 note_off 0 0 0 0 0 0 0;
#X obj 50 1770 upp.comm UPP-11060 86 note_off 0 0 0 0 0 0 0;
#X obj 50 1790 upp.comm UPP-11060 87 note_off 0 0 0 0 0 0 0;
#X obj 50 1810 upp.comm UPP-11060 88 note_off 0 0 0 0 0 0 0;
#X obj 50 1830 upp.comm UPP-11060 89 note_off 0 0 0 0 0 0 0;
#X obj 50 1850 upp.comm UPP-11060 90 note_off 0 0 0 0 0 0 0;
#X obj 50 1870 upp.comm UPP-11060 91 note_off 0 0 0 0 0 0 0;
#X obj 50 1890 upp.comm UPP-11060 92 note_off 0 0 0 0 0 0 0;
#X obj 50 1910 upp.comm UPP-11060 93 note_off 0 0 0 0 0 0 0;
#X obj 50 1930 upp.comm UPP-11060 94 note_off 0 0 0 0 0 0 0;
#X obj 50 1950 upp.comm UPP-11060 95 note_off 0 0 0 0 0 0 0;
#X obj 50 1970 upp.comm UPP-11060 96 note_off 0 0 0 0 0 0 0;
#X obj 50 1990 upp.comm UPP-11060 97 note_off 0 0 0 0 0 0 0;
#X obj 50 2010 upp.comm UPP-11060 98 note_off 0 0 0 0 0 0 0;
#X obj 50 2030 upp.comm UPP-11060 99 note_off 0 0 0 0 0 0 0;
#X obj 50 50 upp.comm UPP-19570 0 note_off 0 0 0 0 0 0 0;
#X obj 50 70 upp.comm UPP-19570 1 note_off 0 0 0 0 0 0 0;
#X obj 50 90 upp.comm UPP-19570 2 note_off 0 0 0 0 0 0 0;
#X obj 50 110 upp.comm UPP-19570 3 note_off 0 0 0 0 0 0 0;
#X obj 50 130 upp.comm UPP-19570 4 note_off 0 0 0 0 0 0 0;
#X obj 50 150 upp.comm UPP-19570 5 note_off 0 0 0 0 0 0 0;
#X obj 50 170 upp.comm UPP-19570 6 note_off 0 0 0 0 0 0 0;
#X obj 50 190 upp.comm UPP-19570 7 note_off 0 0 0 0 0 0 0;
#X obj 50 210 upp.comm UPP-19570 8 note_off 0 0 0 0 0 0 0;
#X obj 50 230 upp.comm UPP-19570 9 note_off 0 0 0 0 0 0 0;
#X obj 50 250 upp.comm UPP-19570 10 note_off 0 0 0 0 0 0 0;
#X obj 50 270 upp.comm UPP-19570 11 note_off 0 0 0 0 0 0 0;
#X obj 50 290 upp.comm UPP-19570 12 note_off 0 0 0 0 0 0 0;
#X obj 50 310 upp.comm UPP-19570 13 note_off 0 0 0 0 0 0 0;
#X obj 50 330 upp.comm UPP-19570 14 note_off 0 0 0 0 0 0 0;
#X obj 50 350 upp.comm UPP-19570 15 note_off 0 0 0 0 0 0 0;
#X obj 50 370 upp.comm UPP-19570 16 note_off 0 0 0 0 0 0 0;
#X obj 50 390 upp.comm UPP-19570 17 note_off 0 0 0 0 0 0 0;
#X obj 50 410 upp.comm UPP-19570 18 note_off 0 0 0 0 0 0 0;
#X obj 50 430 upp.comm UPP-19570 19 note_off 0 0 0 0 0 0 0;
#X obj 50 450 upp.comm UPP-19570 20 note_off 0 0 0 0 0 0 0;
#X obj 50 470 upp.comm UPP-19570 21 note_off 0 0 0 0 0 0 0;
#X obj 50 490 upp.comm UPP-19570 22 note_off 0 0 0 0 0 0 0;
#X obj 50 510 upp.comm UPP-19570 23 note_off 0 0 0 0 0 0 0;
#X obj 50 530 upp.comm UPP-19570 24 note_off 0 0 0 0 0 0 0;
#X obj 50 550 upp.comm UPP-19570 25 note_off 0 0 0 0 0 0 0;
#X obj 50 570 upp.comm UPP-19570 26 note_off 0 0 0 0 0 0 0;
#X obj 50 590 upp.comm UPP-19570 27 note_off 0 0 0 0 0 0 0;
#X obj 50 610 upp.comm UPP-19570 28 note_off 0 0 0 0 0 0 0;
#X obj 50 630 upp.comm UPP-19570 29 note_off 0 0 0 0 0 0 0;
#X obj 50 650 upp.comm UPP-19570 30 note_off 0 0 0 0 0 0 0;
#X obj 50 670 upp.comm UPP-19570 31 note_off 0 0 0 0 0 0 0;
#X obj 50 690 upp.comm UPP-19570 32 note_off 0 0 0 0 0 0 0;
#X obj 50 710 upp.comm UPP-19570 33 note_off 0 0 0 0 0 0 0;
#X obj 50 730 upp.comm UPP-19570 34 note_off 0 0 0 0 0 0 0;
#X obj 50 750 upp.comm UPP-19570 35 note_off 0 0 0 0 0 0 0;
#X obj 50 770 upp.comm UPP-19570 36 note_off 0 0 0 0 0 0 0;
#X obj 50 790 upp.comm UPP-19570 37 note_off 0 0 0 0 0 0 0;
#X obj 50 810 upp.comm UPP-19570 38 note_off 0 0 0 0 0 0 0;
#X obj 50 830 upp.comm UPP-19570 39 note_off 0 0 0 0 0 0 0;
#X obj 50 850 upp.comm UPP-19570 40 note_off 0 0 0 0 0 0 0;
#X obj 50 870 upp.comm UPP-19570 41 note_off 0 0 0 0 0 0 0;
#X obj 50 890 upp.comm UPP-19570 42 note_off 0 0 0 0 0 0 0;
#X obj 50 910 upp.comm UPP-19570 43 note_off 0 0 0 0 0 0 0;
#X obj 50 930 upp.comm UPP-19570 44 note_off 0 0 0 0 0 0 0;
#X obj 50 950 upp.comm UPP-19570 45 note_off 0 0 0 0 0 0 0;
#X obj 50 970 upp.comm UPP-19570 46 note_off 0 0 0 0 0 0 0;
#X obj 50 990 upp.comm UPP-19570 47 note_off 0 0 0 0 0 0 0;
#X obj 50 1010 upp.comm UPP-19570 48 note_off 0 0 0 0 0 0 0;
#X obj 50 1030 upp.comm UPP-19570 49 note_off 0 0 0 0 0 0 0;
#X obj 50 1050 upp.comm UPP-19570 50 note_off 0 0 0 0 0 0 0;
#X obj 50 1070 upp.comm UPP-19570 51 note_off 0 0 0 0 0 0 0;
#X obj 50 1090 upp.comm UPP-19570 52 note_off 0 0 0 0 0 0 0;
#X obj 50 1110 upp.comm UPP-19570 53 note_off 0 0 0 0 0 0 0;
#X obj 50 1130 upp.comm UPP-19570 54 note_off 0 0 0 0 0 0 0;
#X obj 50 1150 upp.comm UPP-19570 55 note_off 0 0 0 0 0 0 0;
#X obj 50 1170 upp.comm UPP-19570 56 note_off 0 0 0 0 0 0 0;
#X obj 50 1190 upp.comm UPP-19570 57 note_off 0 0 0 0 0 0 0;
#X obj 50 1210 upp.comm UPP-19570 58 note_off 0 0 0 0 0 0 0;
#X obj 50 1230 upp.comm UPP-19570 59 note_off 0 0 0 0 0 0 0;
#X obj 50 1250 upp.comm UPP-19570 60 note_off 0 0 0 0 0 0 0;
#X obj 50 1270 upp.comm UPP-19570 61 note_off 0 0 0 0 0 0 0;
#X obj 50 1290 upp.comm UPP-19570 62 note_off 0 0 0 0 0 0 0;
#X obj 50 1310 upp.comm UPP-19570 63 note_off 0 0 0 0 0 0 0;
#X obj 50 1330 upp.comm UPP-19570 64 note_off 0 0 0 0 0 0 0;
#X obj 50 1350 upp.comm UPP-19570 65 note_off 0 0 0 0 0 0 0;
#X obj 50 1370 upp.comm UPP-19570 66 note_off 0 0 0 0 0 0 0;
#X obj 50 1390 upp.comm UPP-19570 67 note_off 0 0 0 0 0 0 0;
#X obj 50 1410 upp.comm UPP-19570 68 note_off 0 0 0 0 0 0 0;
#X obj 50 1430 upp.comm UPP-19570 69 note_off 0 0 0 0 0 0 0;
#X obj 50 1450 upp.comm UPP-19570 70 note_off 0 0 0 0 0 0 0;
#X obj 50 1470 upp.comm UPP-19570 71 note_off 0 0 0 0 0 0 0;
#X obj 50 1490 upp.comm UPP-19570 72 note_off 0 0 0 0 0 0 0;
#X obj 50 1510 upp.comm UPP-19570 73 note_off 0 0 0 0 0 0 0;
#X obj 50 1530 upp.comm UPP-19570 74 note_off 0 0 0 0 0 0 0;
#X obj 50 1550 upp.comm UPP-19570 75 note_off 0 0 0 0 0 0 0;
#X obj 50 1570 upp.comm UPP-19570 76 note_off 0 0 0 0 0 0 0;
#X obj 50 1590 upp.comm UPP-19570 77 note_off 0 0 0 0 0 0 0;
#X obj 50 1610 upp.comm UPP-19570 78 note_off 0 0 0 0 0 0 0;
#X obj 50 1630 upp.comm UPP-19570 79 note_off 0 0 0 0 0 0 0;
#X obj 50 1650 upp.comm UPP-19570 80 note_off 0 0 0 0 0 0 0;
#X obj 50 1670 upp.comm UPP-19570 81 note_off 0 0 0 0 0 0 0;
#X obj 50 1690 upp.comm UPP-19570 82 note_off 0 0 0 0 0 0 0;
#X obj 50 1710 upp.comm UPP-19570 83 note_off 0 0 0 0 0 0 0;
#X obj 50 1730 upp.comm UPP-19570 84 note_off 0 0 0 0 0 0 0;
#X obj 50 1750 upp.comm UPP-19570 85 note_off 0 0 0 0 0 0 0;
#X obj 50 1770 upp.comm UPP-19570 86 note_off 0 0 0 0 0 0 0;
#X obj 50 1790 upp.comm UPP-19570 87 note_off 0 0 0 0 0 0 0;
#X obj 50 1810 upp.comm UPP-19570 88 note_off 0 0 0 0 0 0 0;
#X obj 50 1830 upp.comm UPP-19570 89 note_off 0 0 0 0 0 0 0;
#X obj 50 1850 upp.comm UPP-19570 90 note_off 0 0 0 0 0 0 0;
#X obj 50 1870 upp.comm UPP-19570 91 note_off 0 0 0 0 0 0 0;
#X obj 50 1890 upp.comm UPP-19570 92 note_off 0 0 0 0 0 0 0;
#X obj 50 1910 upp.comm UPP-19570 93 note_off 0 0 0 0 0 0 0;
#X obj 50 1930 upp.comm UPP-19570 94 note_off 0 0 0 0 0 0 0;
#X obj 50 1950 upp.comm UPP-19570 95 note_off 0 0 0 0 0 0 0;
#X obj 50 1970 upp.comm UPP-19570 96 note_off 0 0 0 0 0 0 0;
#X obj 50 1990 upp.comm UPP-19570 97 note_off 0 0 0 0 0 0 0;
#X obj 50 2010 upp.comm UPP-19570 98 note_off 0 0 0 0 0 0 0;
#X obj 50 2030 upp.comm UPP-19570 99 note_off 0 0 0 0 0 0 0;
#X obj 50 50 upp.comm UPP-21075 0 note_off 0 0 0 0 0 0 0;
#X obj 50 70 upp.comm UPP-21075 1 note_off 0 0 0 0 0 0 0;
#X obj 50 90 upp.comm UPP-21075 2 note_off 0 0 0 0 0 0 0;
#X obj 50 110 upp.comm UPP-21075 3 note_off 0 0 0 0 0 0 0;
#X obj 50 130 upp.comm UPP-21075 4 note_off 0 0 0 0 0 0 0;
#X obj 50 150 upp.comm UPP-21075 5 note_off 0 0 0 0 0 0 0;
#X obj 50 170 upp.comm UPP-21075 6 note_off 0 0 0 0 0 0 0;
#X obj 50 190 upp.comm UPP-21075 7 note_off 0 0 0 0 0 0 0;
#X obj 50 210 upp.comm UPP-21075 8 note_off 0 0 0 0 0 0 0;
#X obj 50 230 upp.comm UPP-21075 9 note_off 0 0 0 0 0 0 0;
#X obj 50 250 upp.comm UPP-21075 10 note_off 0 0 0 0 0 0 0;
#X obj 50 270 upp.comm UPP-21075 11 note_off 0 0 0 0 0 0 0;
#X obj 50 290 upp.comm UPP-21075 12 note_off 0 0 0 0 0 0 0;
#X obj 50 310 upp.comm UPP-21075 13 note_off 0 0 0 0 0 0 0;
#X obj 50 330 upp.comm UPP-21075 14 note_off 0 0 0 0 0 0 0;
#X obj 50 350 upp.comm UPP-21075 15 note_off 0 0 0 0 0 0 0;
#X obj 50 370 upp.comm UPP-21075 16 note_off 0 0 0 0 0 0 0;
#X obj 50 390 upp.comm UPP-21075 17 note_off 0 0 0 0 0 0 0;
#X obj 50 410 upp.comm UPP-21075 18 note_off 0 0 0 0 0 0 0;
#X obj 50 430 upp.comm UPP-21075 19 note_off 0 0 0 0 0 0 0;
#X obj 50 450 upp.comm UPP-21075 20 note_off 0 0 0 0 0 0 0;
#X obj 50 470 upp.comm UPP-21075 21 note_off 0 0 0 0 0 0 0;
#X obj 50 490 upp.comm UPP-21075 22 note_off 0 0 0 0 0 0 0;
#X obj 50 510 upp.comm UPP-21075 23 note_off 0 0 0 0 0 0 0;
#X obj 50 530 upp.comm UPP-21075 24 note_off 0 0 0 0 0 0 0;
#X obj 50 550 upp.comm UPP-21075 25 note_off 0 0 0 0 0 0 0;
#X obj 50 570 upp.comm UPP-21075 26 note_off 0 0 0 0 0 0 0;
#X obj 50 590 upp.comm UPP-21075 27 note_off 0 0 0 0 0 0 0;
#X obj 50 610 upp.comm UPP-21075 28 note_off 0 0 0 0 0 0 0;
#X obj 50 630 upp.comm UPP-21075 29 note_off 0 0 0 0 0 0 0;
#X obj 50 650 upp.comm UPP-21075 30 note_off 0 0 0 0 0 0 0;
#X obj 50 670 upp.comm UPP-21075 31 note_off 0 0 0 0 0 0 0;
#X obj 50 690 upp.comm UPP-21075 32 note_off 0 0 0 0 0 0 0;
#X obj 50 710 upp.comm UPP-21075 33 note_off 0 0 0 0 0 0 0;
#X obj 50 730 upp.comm UPP-21075 34 note_off 0 0 0 0 0 0 0;
#X obj 50 750 upp.comm UPP-21075 35 note_off 0 0 0 0 0 0 0;
#X obj 50 770 upp.comm UPP-21075 36 note_off 0 0 0 0 0 0 0;
#X obj 50 790 upp.comm UPP-21075 37 note_off 0 0 0 0 0 0 0;
#X obj 50 810 upp.comm UPP-21075 38 note_off 0 0 0 0 0 0 0;
#X obj 50 830 upp.comm UPP-21075 39 note_off 0 0 0 0 0 0 0;
#X obj 50 850 upp.comm UPP-21075 40 note_off 0 0 0 0 0 0 0;
#X obj 50 870 upp.comm UPP-21075 41 note_off 0 0 0 0 0 0 0;
#X obj 50 890 upp.comm UPP-21075 42 note_off 0 0 0 0 0 0 0;
#X obj 50 910 upp.comm UPP-21075 43 note_off 0 0 0 0 0 0 0;
#X obj 50 930 upp.comm UPP-21075 44 note_off 0 0 0 0 0 0 0;
#X obj 50 950 upp.comm UPP-21075 45 note_off 0 0 0 0 0 0 0;
#X obj 50 970 upp.comm UPP-21075 46 note_off 0 0 0 0 0 0 0;
#X obj 50 990 upp.comm UPP-21075 47 note_off 0 0 0 0 0 0 0;
#X obj 50 1010 upp.comm UPP-21075 48 note_off 0 0 0 0 0 0 0;
#X obj 50 1030 upp.comm UPP-21075 49 note_off 0 0 0 0 0 0 0;
#X obj 50 1050 upp.comm UPP-21075 50 note_off 0 0 0 0 0 0 0;
#X obj 50 1070 upp.comm UPP-21075 51 note_off 0 0 0 0 0 0 0;
#X obj 50 1090 upp.comm UPP-21075 52 note_off 0 0 0 0 0 0 0;
#X obj 50 1110 upp.comm UPP-21075 53 note_off 0 0 0 0 0 0 0;
#X obj 50 1130 upp.comm UPP-21075 54 note_off 0 0 0 0 0 0 0;
#X obj 50 1150 upp.comm UPP-21075 55 note_off 0 0 0 0 0 0 0;
#X obj 50 1170 upp.comm UPP-21075 56 note_off 0 0 0 0 0 0 0;
#X obj 50 1190 upp.comm UPP-21075 57 note_off 0 0 0 0 0 0 0;
#X obj 50 1210 upp.comm UPP-21075 58 note_off 0 0 0 0 0 0 0;
#X obj 50 1230 upp.comm UPP-21075 59 note_off 0 0 0 0 0 0 0;
#X obj 50 1250 upp.comm UPP-21075 60 note_off 0 0 0 0 0 0 0;
#X obj 50 1270 upp.comm UPP-21075 61 note_off 0 0 0 0 0 0 0;
#X obj 50 1290 upp.comm UPP-21075 62 note_off 0 0 0 0 0 0 0;
#X obj 50 1310 upp.comm UPP-21075 63 note_off 0 0 0 0 0 0 0;
#X obj 50 1330 upp.comm UPP-21075 64 note_off 0 0 0 0 0 0 0;
#X obj 50 1350 upp.comm UPP-21075 65 note_off 0 0 0 0 0 0 0;
#X obj 50 1370 upp.comm UPP-21075 66 note_off 0 0 0 0 0 0 0;
#X obj 50 1390 upp.comm UPP-21075 67 note_off 0 0 0 0 0 0 0;
#X obj 50 1410 upp.comm UPP-21075 68 note_off 0 0 0 0 0 0 0;
#X obj 50 1430 upp.comm UPP-21075 69 note_off 0 0 0 0 0 0 0;
#X obj 50 1450 upp.comm UPP-21075 70 note_off 0 0 0 0 0 0 0;
#X obj 50 1470 upp.comm UPP-21075 71 note_off 0 0 0 0 0 0 0;
#X obj 50 1490 upp.comm UPP-21075 72 note_off 0 0 0 0 0 0 0;
#X obj 50 1510 upp.comm UPP-21075 73 note_off 0 0 0 0 0 0 0;
#X obj 50 1530 upp.comm UPP-21075 74 note_off 0 0 0 0 0 0 0;
#X obj 50 1550 upp.comm UPP-21075 75 note_off 0 0 0 0 0 0 0;
#X obj 50 1570 upp.comm UPP-21075 76 note_off 0 0 0 0 0 0 0;
#X obj 50 1590 upp.comm UPP-21075 77 note_off 0 0 0 0 0 0 0;
#X obj 50 1610 upp.comm UPP-21075 78 note_off 0 0 0 0 0 0 0;
#X obj 50 1630 upp.comm UPP-21075 79 note_off 0 0 0 0 0 0 0;
#X obj 50 1650 upp.comm UPP-21075 80 note_off 0 0 0 0 0 0 0;
#X obj 50 1670 upp.comm UPP-21075 81 note_off 0 0 0 0 0 0 0;
#X obj 50 1690 upp.comm UPP-21075 82 note_off 0 0 0 0 0 0 0;
#X obj 50 1710 upp.comm UPP-21075 83 note_off 0 0 0 0 0 0 0;
#X obj 50 1730 upp.comm UPP-21075 84 note_off 0 0 0 0 0 0 0;
#X obj 50 1750 upp.comm UPP-21075 85 note_off 0 0 0 0 0 0 0;
#X obj 50 1770 upp.comm UPP-21075 86 note_off 0 0 0 0 0 0 0;
#X obj 50 1790 upp.comm UPP-21075 87 note_off 0 0 0 0 0 0 0;
#X obj 50 1810 upp.comm UPP-21075 88 note_off 0 0 0 0 0 0 0;
#X obj 50 1830 upp.comm UPP-21075 89 note_off 0 0 0 0 0 0 0;
#X obj 50 1850 upp.comm UPP-21075 90 note_off 0 0 0 0 0 0 0;
#X obj 50 1870 upp.comm UPP-21075 91 note_off 0 0 0 0 0 0 0;
#X obj 50 1890 upp.comm UPP-21075 92 note_off 0 0 0 0 0 0 0;
#X obj 50 1910 upp.comm UPP-21075 93 note_off 0 0 0 0 0 0 0;
#X obj 50 1930 upp.comm UPP-21075 94 note_off 0 0 0 0 0 0 0;
#X obj 50 1950 upp.comm UPP-21075 95 note_off 0 0 0 0 0 0 0;
#X obj 50 1970 upp.comm UPP-21075 96 note_off 0 0 0 0 0 0 0;
#X obj 50 1990 upp.comm UPP-21075 97 note_off 0 0 0 0 0 0 0;
#X obj 50 2010 upp.comm UPP-21075 98 note_off 0 0 0 0 0 0 0;
#X obj 50 2030 upp.comm UPP-21075 99 note_off 0 0 0 0 0 0 0;
#X obj 50 50 upp.comm UPP-23080 0 note_off 0 0 0 0 0 0 0;
#X obj 50 70 upp.comm UPP-23080 1 note_off 0 0 0 0 0 0 0;
#X obj 50 90 upp.comm UPP-23080 2 note_off 0 0 0 0 0 0 0;
#X obj 50 110 upp.comm UPP-23080 3 note_off 0 0 0 0 0 0 0;
#X obj 50 130 upp.comm UPP-23080 4 note_off 0 0 0 0 0 0 0;
#X obj 50 150 upp.comm UPP-23080 5 note_off 0 0 0 0 0 0 0;
#X obj 50 170 upp.comm UPP-23080 6 note_off 0 0 0 0 0 0 0;
#X obj 50 190 upp.comm UPP-23080 7 note_off 0 0 0 0 0 0 0;
#X obj 50 210 upp.comm UPP-23080 8 note_off 0 0 0 0 0 0 0;
#X obj 50 230 upp.comm UPP-23080 9 note_off 0 0 0 0 0 0 0;
#X obj 50 250 upp.comm UPP-23080 10 note_off 0 0 0 0 0 0 0;
#X obj 50 270 upp.comm UPP-23080 11 note_off 0 0 0 0 0 0 0;
#X obj 50 290 upp.comm UPP-23080 12 note_off 0 0 0 0 0 0 0;
#X obj 50 310 upp.comm UPP-23080 13 note_off 0 0 0 0 0 0 0;
#X obj 50 330 upp.comm UPP-23080 14 note_off 0 0 0 0 0 0 0;
#X obj 50 350 upp.comm UPP-23080 15 note_off 0 0 0 0 0 0 0;
#X obj 50 370 upp.comm UPP-23080 16 note_off 0 0 0 0 0 0 0;
#X obj 50 390 upp.comm UPP-23080 17 note_off 0 0 0 0 0 0 0;
#X obj 50 410 upp.comm UPP-23080 18 note_off 0 0 0 0 0 0 0;
#X obj 50 430 upp.comm UPP-23080 19 note_off 0 0 0 0 0 0 0;
#X obj 50 450 upp.comm UPP-23080 20 note_off 0 0 0 0 0 0 0;
#X obj 50 470 upp.comm UPP-23080 21 note_off 0 0 0 0 0 0 0;
#X obj 50 490 upp.comm UPP-23080 22 note_off 0 0 0 0 0 0 0;
#X obj 50 510 upp.comm UPP-23080 23 note_off 0 0 0 0 0 0 0;
#X obj 50 530 upp.comm UPP-23080 24 note_off 0 0 0 0 0 0 0;
#X obj 50 550 upp.comm UPP-23080 25 note_off 0 0 0 0 0 0 0;
#X obj 50 570 upp.comm UPP-23080 26 note_off 0 0 0 0 0 0 0;
#X obj 50 590 upp.comm UPP-23080 27 note_off 0 0 0 0 0 0 0;
#X obj 50 610 upp.comm UPP-23080 28 note_off 0 0 0 0 0 0 0;
#X obj 50 630 upp.comm UPP-23080 29 note_off 0 0 0 0 0 0 0;
#X obj 50 650 upp.comm UPP-23080 30 note_off 0 0 0 0 0 0 0;
#X obj 50 670 upp.comm UPP-23080 31 note_off 0 0 0 0 0 0 0;
#X obj 50 690 upp.comm UPP-23080 32 note_off 0 0 0 0 0 0 0;
#X obj 50 710 upp.comm UPP-23080 33 note_off 0 0 0 0 0 0 0;
#X obj 50 730 upp.comm UPP-23080 34 note_off 0 0 0 0 0 0 0;
#X obj 50 750 upp.comm UPP-23080 35 note_off 0 0 0 0 0 0 0;
#X obj 50 770 upp.comm UPP-23080 36 note_off 0 0 0 0 0 0 0;
#X obj 50 790 upp.comm UPP-23080 37 note_off 0 0 0 0 0 0 0;
#X obj 50 810 upp.comm UPP-23080 38 note_off 0 0 0 0 0 0 0;
#X obj 50 830 upp.comm UPP-23080 39 note_off 0 0 0 0 0 0 0;
#X obj 50 850 upp.comm UPP-23080 40 note_off 0 0 0 0 0 0 0;
#X obj 50 870 upp.comm UPP-23080 41 note_off 0 0 0 0 0 0 0;
#X obj 50 890 upp.comm UPP-23080 42 note_off 0 0 0 0 0 0 0;
#X obj 50 910 upp.comm UPP-23080 43 note_off 0 0 0 0 0 0 0;
#X obj 50 930 upp.comm UPP-23080 44 note_off 0 0 0 0 0 0 0;
#X obj 50 950 upp.comm UPP-23080 45 note_off 0 0 0 0 0 0 0;
#X obj 50 970 upp.comm UPP-23080 46 note_off 0 0 0 0 0 0 0;
#X obj 50 990 upp.comm UPP-23080 47 note_off 0 0 0 0 0 0 0;
#X obj 50 1010 upp.comm UPP-23080 48 note_off 0 0 0 0 0 0 0;
#X obj 50 1030 upp.comm UPP-23080 49 note_off 0 0 0 0 0 0 0;
#X obj 50 1050 upp.comm UPP-23080 50 note_off 0 0 0 0 0 0 0;
#X obj 50 1070 upp.comm UPP-23080 51 note_off 0 0 0 0 0 0 0;
#X obj 50 1090 upp.comm UPP-23080 52 note_off 0 0 0 0 0 0 0;
#X obj 50 1110 upp.comm UPP-23080 53 note_off 0 0 0 0 0 0 0;
#X obj 50 1130 upp.comm UPP-23080 54 note_off 0 0 0 0 0 0 0;
#X obj 50 1150 upp.comm UPP-23080 55 note_off 0 0 0 0 0 0 0;
#X obj 50 1170 upp.comm UPP-23080 56 note_off 0 0 0 0 0 0 0;
#X obj 50 1190 upp.comm UPP-23080 57 note_off 0 0 0 0 0 0 0;
#X obj 50 1210 upp.comm UPP-23080 58 note_off 0 0 0 0 0 0 0;
#X obj 50 1230 upp.comm UPP-23080 59 note_off 0 0 0 0 0 0 0;
#X obj 50 1250 upp.comm UPP-23080 60 note_off 0 0 0 0 0 0 0;
#X obj 50 1270 upp.comm UPP-23080 61 note_off 0 0 0 0 0 0 0;
#X obj 50 1290 upp.comm UPP-23080 62 note_off 0 0 0 0 0 0 0;
#X obj 50 1310 upp.comm UPP-23080 63 note_off 0 0 0 0 0 0 0;
#X obj 50 1330 upp.comm UPP-23080 64 note_off 0 0 0 0 0 0 0;
#X obj 50 1350 upp.comm UPP-23080 65 note_off 0 0 0 0 0 0 0;
#X obj 50 1370 upp.comm UPP-23080 66 note_off 0 0 0 0 0 0 0;
#X obj 50 1390 upp.comm UPP-23080 67 note_off 0 0 0 0 0 0 0;
#X obj 50 1410 upp.comm UPP-23080 68 note_off 0 0 0 0 0 0 0;
#X obj 50 1430 upp.comm UPP-23080 69 note_off 0 0 0 0 0 0 0;
#X obj 50 1450 upp.comm UPP-23080 70 note_off 0 0 0 0 0 0 0;
#X obj 50 1470 upp.comm UPP-23080 71 note_off 0 0 0 0 0 0 0;
#X obj 50 1490 upp.comm UPP-23080 72 note_off 0 0 0 0 0 0 0;
#X obj 50 1510 upp.comm UPP-23080 73 note_off 0 0 0 0 0 0 0;
#X obj 50 1530 upp.comm UPP-23080 74 note_off 0 0 0 0 0 0 0;
#X obj 50 1550 upp.comm UPP-23080 75 note_off 0 0 0 0 0 0 0;
#X obj 50 1570 upp.comm UPP-23080 76 note_off 0 0 0 0 0 0 0;
#X obj 50 1590 upp.comm UPP-23080 77 note_off 0 0 0 0 0 0 0;
#X obj 50 1610 upp.comm UPP-23080 78 note_off 0 0 0 0 0 0 0;
#X obj 50 1630 upp.comm UPP-23080 79 note_off 0 0 0 0 0 0 0;
#X obj 50 1650 upp.comm UPP-23080 80 note_off 0 0 0 0 0 0 0;
#X obj 50 1670 upp.comm UPP-23080 81 note_off 0 0 0 0 0 0 0;
#X obj 50 1690 upp.comm UPP-23080 82 note_off 0 0 0 0 0 0 0;
#X obj 50 1710 upp.comm UPP-23080 83 note_off 0 0 0 0 0 0 0;
#X obj 50 1730 upp.comm UPP-23080 84 note_off 0 0 0 0 0 0 0;
#X obj 50 1750 upp.comm UPP-23080 85 note_off 0 0 0 0 0 0 0;
#X obj 50 1770 upp.comm UPP-23080 86 note_off 0 0 0 0 0 0 0;
#X obj 50 1790 upp.comm UPP-23080 87 note_off 0 0 0 0 0 0 0;
#X obj 50 1810 upp.comm UPP-23080 88 note_off 0 0 0 0 0 0 0;
#X obj 50 1830 upp.comm UPP-23080 89 note_off 0 0 0 0 0 0 0;
#X obj 50 1850 upp.comm UPP-23080 90 note_off 0 0 0 0 0 0 0;
#X obj 50 1870 upp.comm UPP-23080 91 note_off 0 0 0 0 0 0 0;
#X obj 50 1890 upp.comm UPP-23080 92 note_off 0 0 0 0 0 0 0;
#X obj 50 1910 upp.comm UPP-23080 93 note_off 0 0 0 0 0 0 0;
#X obj 50 1930 upp.comm UPP-23080 94 note_off 0 0 0 0 0 0 0;
#X obj 50 1950 upp.comm UPP-23080 95 note_off 0 0 0 0 0 0 0;
#X obj 50 1970 upp.comm UPP-23080 96 note_off 0 0 0 0 0 0 0;
#X obj 50 1990 upp.comm UPP-23080 97 note_off 0 0 0 0 0 0 0;
#X obj 50 2010 upp.comm UPP-23080 98 note_off 0 0 0 0 0 0 0;
#X obj 50 2030 upp.comm UPP-23080 99 note_off 0 0 0 0 0 0 0;
#X obj 50 50 upp.comm UPP-31151 0 note_off 0 0 0 0 0 0 0;
#X obj 50 70 upp.comm UPP-31151 1 note_off 0 0 0 0 0 0 0;
#X obj 50 90 upp.comm UPP-31151 2 note_off 0 0 0 0 0 0 0;
#X obj 50 110 upp.comm UPP-31151 3 note_off 0 0 0 0 0 0 0;
#X obj 50 130 upp.comm UPP-31151 4 note_off 0 0 0 0 0 0 0;
#X obj 50 150 upp.comm UPP-31151 5 note_off 0 0 0 0 0 0 0;
#X obj 50 170 upp.comm UPP-31151 6 note_off 0 0 0 0 0 0 0;
#X obj 50 190 upp.comm UPP-31151 7 note_off 0 0 0 0 0 0 0;
#X obj 50 210 upp.comm UPP-31151 8 note_off 0 0 0 0 0 0 0;
#X obj 50 230 upp.comm UPP-31151 9 note_off 0 0 0 0 0 0 0;
#X obj 50 50 upp.comm UPP-33706 0 note_off 0 0 0 0 0 0 0;
#X obj 50 70 upp.comm UPP-33706 1 note_off 0 0 0 0 0 0 0;
#X obj 50 90 upp.comm UPP-33706 2 note_off 0 0 0 0 0 0 0;
#X obj 50 110 upp.comm UPP-33706 3 note_off 0 0 0 0 0 0 0;
#X obj 50 130 upp.comm UPP-33706 4 note_off 0 0 0 0 0 0 0;
#X obj 50 150 upp.comm UPP-33706 5 note_off 0 0 0 0 0 0 0;
#X obj 50 170 upp.comm UPP-33706 6 note_off 0 0 0 0 0 0 0;
#X obj 50 190 upp.comm UPP-33706 7 note_off 0 0 0 0 0 0 0;
#X obj 50 210 upp.comm UPP-33706 8 note_off 0 0 0 0 0 0 0;
#X obj 50 230 upp.comm UPP-33706 9 note_off 0 0 0 0 0 0 0;
#X obj 50 50 upp.comm UPP-38966 0 note_off 0 0 0 0 0 0 0;
#X obj 50 70 upp.comm UPP-38966 1 note_off 0 0 0 0 0 0 0;
#X obj 50 90 upp.comm UPP-38966 2 note_off 0 0 0 0 0 0 0;
#X obj 50 110 upp.comm UPP-38966 3 note_off 0 0 0 0 0 0 0;
#X obj 50 130 upp.comm UPP-38966 4 note_off 0 0 0 0 0 0 0;
#X obj 50 150 upp.comm UPP-38966 5 note_off 0 0 0 0 0 0 0;
#X obj 50 170 upp.comm UPP-38966 6 note_off 0 0 0 0 0 0 0;
#X obj 50 190 upp.comm UPP-38966 7 note_off 0 0 0 0 0 0 0;
#X obj 50 210 upp.comm UPP-38966 8 note_off 0 0 0 0 0 0 0;
#X obj 50 230 upp.comm UPP-38966 9 note_off 0 0 0 0 0 0 0;
#X obj 50 50 upp.comm UPP-41621 0 note_off 0 0 0 0 0 0 0;
#X obj 50 70 upp.comm UPP-41621 1 note_off 0 0 0 0 0 0 0;
#X obj 50 90 upp.comm UPP-41621 2 note_off 0 0 0 0 0 0 0;
#X obj 50 110 upp.comm UPP-41621 3 note_off 0 0 0 0 0 0 0;
#X obj 50 130 upp.comm UPP-41621 4 note_off 0 0 0 0 0 0 0;
#X obj 50 150 upp.comm UPP-41621 5 note_off 0 0 0 0 0 0 0;
#X obj 50 170 upp.comm UPP-41621 6 note_off 0 0 0 0 0 0 0;
#X obj 50 190 upp.comm UPP-41621 7 note_off 0 0 0 0 0 0 0;
#X obj 50 210 upp.comm UPP-41621 8 note_off 0 0 0 0 0 0 0;
#X obj 50 230 upp.comm UPP-41621 9 note_off 0 0 0 0 0 0 0;
#X obj 50 50 upp.comm UPP-44326 0 note_off 0 0 0 0 0 0 0;
#X obj 50 70 upp.comm UPP-44326 1 note_off 0 0 0 0 0 0 0;
#X obj 50 90 upp.comm UPP-44326 2 note_off 0 0 0 0 0 0 0;
#X obj 50 110 upp.comm UPP-44326 3 note_off 0 0 0 0 0 0 0;
#X obj 50 130 upp.comm UPP-44326 4 note_off 0 0 0 0 0 0 0;
#X obj 50 150 upp.comm UPP-44326 5 note_off 0 0 0 0 0 0 0;
#X obj 50 170 upp.comm UPP-44326 6 note_off 0 0 0 0 0 0 0;
#X obj 50 190 upp.comm UPP-44326 7 note_off 0 0 0 0 0 0 0;
#X obj 50 210 upp.comm UPP-44326 8 note_off 0 0 0 0 0 0 0;
#X obj 50 230 upp.comm UPP-44326 9 note_off 0 0 0 0 0 0 0;
#X obj 50 50 upp.comm UPP-61106 0 note_off 0 0 0 0 0 0 0;
#X obj 50 70 upp.comm UPP-61106 1 note_off 0 0 0 0 0 0 0;
#X obj 50 90 upp.comm UPP-61106 2 note_off 0 0 0 0 0 0 0;
#X obj 50 110 upp.comm UPP-61106 3 note_off 0 0 0 0 0 0 0;
#X obj 50 130 upp.comm UPP-61106 4 note_off 0 0 0 0 0 0 0;
#X obj 50 150 upp.comm UPP-61106 5 note_off 0 0 0 0 0 0 0;
#X obj 50 170 upp.comm UPP-61106 6 note_off 0 0 0 0 0 0 0;
#X obj 50 190 upp.comm UPP-61106 7 note_off 0 0 0 0 0 0 0;
#X obj 50 210 upp.comm UPP-61106 8 note_off 0 0 0 0 0 0 0;
#X obj 50 230 upp.comm UPP-61106 9 note_off 0 0 0 0 0 0 0;
#X restore 220 103 pd voices;
#X obj 457 76 list append \$1 voices;
#X obj 430 51 t b b;
#X msg 430 192 \; pd-voices loadbang;
#X obj 558 160 list append \$2 \$3 \$4 \$5 \$6 \$7 \$8 \$9;
#X obj 558 116 pack 0 \$0;
#N canvas 490 64 854 788 comm 1;
#X obj 79 48 inlet;
#X text 296 460 release;
#X obj 300 701 outlet;
#X text 296 718 release;
#X obj 364 56 inlet;
#X obj 153 589 t a;
#X msg 153 542 -1;
#X obj 118 626 nbx 5 14 -1e+37 1e+37 0 0 empty empty active 0 -8 0
10 -262144 -1 -1 3 256;
#X text 360 38 modulation message;
#X msg 118 543 1;
#X obj 118 588 +;
#X obj 491 702 outlet;
#X text 488 723 voices active;
#X text 77 30 event message;
#X obj 539 339 table \$0-free \$1;
#X obj 539 359 table \$0-assigned \$1;
#X obj 628 47 loadbang;
#X obj 627 212 tabwrite \$0-free;
#X obj 628 123 until;
#X obj 629 151 f;
#X obj 656 152 + 1;
#X obj 628 98 f \$1;
#X obj 565 261 v \$0-freecnt;
#X obj 654 261 tabwrite \$0-assigned;
#X obj 628 72 t b b;
#X msg 675 122 0;
#X obj 606 47 bng 15 250 50 0 empty empty empty 17 7 0 10 -262144 -1
-1;
#X msg 666 237 -1;
#N canvas 596 65 685 406 allocvoice 0;
#X obj 35 30 inlet;
#X obj 40 357 outlet;
#X obj 62 81 v \$0-freecnt;
#X obj 345 250 tabread \$0-free;
#X text 343 268 voice #;
#X obj 256 357 v \$0-freecnt;
#X obj 126 357 tabwrite \$0-free;
#X msg 126 334 -1;
#X obj 40 334 f;
#X obj 491 357 tabwrite \$0-assigned;
#X floatatom 128 115 5 0 0 0 - - -;
#X text 486 337 val;
#X text 595 339 pos;
#X obj 608 255 - \$1;
#X obj 608 277 * -1;
#X obj 35 59 t b b;
#X obj 62 132 moses 1;
#X obj 201 201 - 1;
#X obj 182 172 t b a a;
#X obj 372 357 tabwrite \$0-ids;
#X obj 372 332 f;
#X obj 372 308 t b a;
#X obj 201 222 t a a a;
#X connect 0 0 15 0;
#X connect 2 0 10 0;
#X connect 2 0 16 0;
#X connect 3 0 9 0;
#X connect 3 0 8 1;
#X connect 3 0 21 0;
#X connect 7 0 6 0;
#X connect 8 0 1 0;
#X connect 13 0 14 0;
#X connect 14 0 9 1;
#X connect 15 0 8 0;
#X connect 15 1 2 0;
#X connect 16 0 8 1;
#X connect 16 1 18 0;
#X connect 17 0 22 0;
#X connect 18 0 7 0;
#X connect 18 1 17 0;
#X connect 18 2 13 0;
#X connect 20 0 19 0;
#X connect 21 0 20 0;
#X connect 21 1 19 1;
#X connect 22 0 6 1;
#X connect 22 1 3 0;
#X connect 22 2 5 0;
#X connect 22 2 20 1;
#X restore 106 115 pd allocvoice;
#X floatatom 142 142 5 0 0 0 - - -;
#X obj 106 170 t a a;
#X obj 263 312 list prepend UPP-\$0;
#X obj 79 232 dilemma;
#X obj 79 696 outlet;
#X text 75 713 overflow;
#X obj 145 336 list prepend start;
#X obj 391 338 list prepend mod;
#X obj 263 386 list append;
#N canvas 0 22 464 441 itervoices 0;
#X obj 63 37 inlet;
#X obj 60 297 outlet;
#X obj 62 98 v \$0-freecnt;
#X obj 62 201 until;
#X obj 61 263 tabread \$0-assigned;
#X msg 131 199 0;
#X obj 61 234 f;
#X obj 88 234 + 1;
#X obj 63 125 - \$1;
#X obj 62 153 * -1;
#X obj 63 73 t b b;
#X connect 0 0 10 0;
#X connect 2 0 8 0;
#X connect 3 0 6 0;
#X connect 4 0 1 0;
#X connect 5 0 6 1;
#X connect 6 0 4 0;
#X connect 6 0 7 0;
#X connect 7 0 6 1;
#X connect 8 0 9 0;
#X connect 9 0 3 0;
#X connect 10 0 2 0;
#X connect 10 1 5 0;
#X restore 364 227 pd itervoices;
#X obj 300 476 r UPP-\$0;
#N canvas 119 502 548 319 freevoice 1;
#X obj 41 26 inlet;
#X obj 41 48 list split 1;
#X msg 41 243 -1;
#X obj 41 266 tabwrite \$0-assigned;
#X obj 320 114 v \$0-freecnt;
#X obj 320 265 v \$0-freecnt;
#X obj 198 266 tabwrite \$0-free;
#X obj 320 164 + 1;
#X obj 158 223 - \$1;
#X obj 158 244 * -1;
#X obj 41 70 t b a b;
#X obj 363 165 tabread \$0-ids;
#X obj 363 186 t b a;
#X obj 320 137 t a a a;
#X obj 363 234 tabwrite \$0-ids;
#X msg 363 212 -1;
#X obj 411 140 print FREECNT;
#X connect 0 0 1 0;
#X connect 1 0 10 0;
#X connect 2 0 3 0;
#X connect 4 0 13 0;
#X connect 7 0 5 0;
#X connect 8 0 9 0;
#X connect 9 0 3 1;
#X connect 10 0 2 0;
#X connect 10 1 6 0;
#X connect 10 2 4 0;
#X connect 11 0 12 0;
#X connect 12 0 15 0;
#X connect 12 1 6 1;
#X connect 12 1 8 0;
#X connect 13 0 7 0;
#X connect 13 1 11 0;
#X connect 13 2 14 1;
#X connect 13 2 16 0;
#X connect 15 0 14 0;
#X restore 339 537 pd freevoice;
#X obj 195 564 loadbang;
#X msg 193 587 0;
#X msg 263 336 symbol \$1-\$2;
#X obj 158 265 f;
#X obj 263 410 fwd;
#X obj 565 468 tabdump \$0-free;
#X obj 665 446 bng 15 250 50 0 empty empty empty 17 7 0 10 -262144
-1 -1;
#X obj 564 449 bng 15 250 50 0 empty empty empty 17 7 0 10 -262144
-1 -1;
#X obj 665 466 tabdump \$0-assigned;
#X obj 565 496 print FREELIST;
#X obj 665 494 print ASS;
#X obj 106 199 > 0;
#X text 361 247 active voices;
#X obj 630 175 t a b a;
#X obj 118 264 t b a;
#X obj 360 503 print FREE;
#X obj 407 274 print ACT;
#X obj 539 380 table \$0-ids \$1;
#X obj 567 519 bng 15 250 50 0 empty empty empty 17 7 0 10 -262144
-1 -1;
#X obj 567 544 tabdump \$0-ids;
#X obj 567 572 print IDS;
#X obj 685 284 tabwrite \$0-ids;
#X obj 62 81 t a a b a;
#X obj 364 160 t a a a a;
#X obj 300 503 t a b a a;
#X text 646 336 stack of free voices;
#X text 666 359 stack of assigned voices;
#X text 637 379 voice positions on assigned stack;
#X connect 0 0 63 0;
#X connect 4 0 64 0;
#X connect 5 0 10 1;
#X connect 6 0 10 0;
#X connect 7 0 11 0;
#X connect 9 0 10 0;
#X connect 10 0 5 0;
#X connect 10 0 7 0;
#X connect 16 0 24 0;
#X connect 18 0 19 0;
#X connect 19 0 20 0;
#X connect 19 0 54 0;
#X connect 20 0 19 1;
#X connect 21 0 18 0;
#X connect 21 0 22 0;
#X connect 24 0 21 0;
#X connect 24 1 25 0;
#X connect 25 0 19 1;
#X connect 26 0 24 0;
#X connect 27 0 23 0;
#X connect 27 0 62 0;
#X connect 28 0 29 0;
#X connect 28 0 30 0;
#X connect 30 0 52 0;
#X connect 30 1 44 1;
#X connect 31 0 43 0;
#X connect 32 0 33 0;
#X connect 32 1 55 0;
#X connect 35 0 37 1;
#X connect 36 0 37 1;
#X connect 37 0 45 0;
#X connect 38 0 31 0;
#X connect 38 0 57 0;
#X connect 39 0 56 0;
#X connect 39 0 65 0;
#X connect 41 0 42 0;
#X connect 42 0 5 0;
#X connect 42 0 7 0;
#X connect 43 0 37 0;
#X connect 44 0 31 0;
#X connect 46 0 50 0;
#X connect 47 0 49 0;
#X connect 48 0 46 0;
#X connect 49 0 51 0;
#X connect 52 0 32 1;
#X connect 54 0 17 0;
#X connect 54 1 27 0;
#X connect 54 2 17 1;
#X connect 54 2 23 1;
#X connect 54 2 62 1;
#X connect 55 0 44 0;
#X connect 55 0 9 0;
#X connect 55 1 35 0;
#X connect 59 0 60 0;
#X connect 60 0 61 0;
#X connect 63 0 59 0;
#X connect 63 0 47 0;
#X connect 63 1 32 0;
#X connect 63 2 28 0;
#X connect 63 3 59 0;
#X connect 63 3 47 0;
#X connect 64 1 38 0;
#X connect 64 2 36 0;
#X connect 65 0 2 0;
#X connect 65 0 47 0;
#X connect 65 0 59 0;
#X connect 65 1 6 0;
#X connect 65 2 40 0;
#X connect 65 3 47 0;
#X connect 65 3 59 0;
#X restore 69 103 pd comm;
#X obj 457 149 upp.dynchain;
#X msg 558 138 upp.comm UPP-\$2 \$1;
#X connect 0 0 19 0;
#X connect 5 0 19 1;
#X connect 10 0 15 0;
#X connect 14 0 20 0;
#X connect 15 0 16 0;
#X connect 15 1 14 0;
#X connect 17 0 20 1;
#X connect 18 0 21 0;
#X connect 19 0 1 0;
#X connect 19 1 2 0;
#X connect 19 2 7 0;
#X connect 20 1 18 0;
#X connect 21 0 17 0;
#X coords 0 0 1 1 100 50 0;
