#N canvas 0 22 208 212 10;
#X obj 35 50 t b a b;
#X obj 56 96 list prepend add2;
#X msg 80 73 set \, addsemi;
#X obj 53 122 list trim;
#X obj 35 24 inlet;
#X msg 36 152;
#X connect 0 0 5 0;
#X connect 0 1 1 0;
#X connect 0 2 2 0;
#X connect 1 0 3 0;
#X connect 2 0 5 0;
#X connect 3 0 5 0;
#X connect 4 0 0 0;
