#N canvas 0 23 367 239 10;
#X obj 77 46 inlet;
#X obj 77 77 list split 1;
#X obj 77 127 list append;
#X obj 77 164 outlet;
#X obj 145 164 outlet;
#X obj 193 45 inlet;
#X obj 111 102 list split \$1;
#X connect 0 0 1 0;
#X connect 1 0 2 0;
#X connect 1 1 6 0;
#X connect 2 0 3 0;
#X connect 5 0 6 1;
#X connect 6 0 4 0;
#X connect 6 1 2 1;
