#N canvas 454 388 453 411 10;
#X obj 41 86 inlet;
#X obj 41 343 outlet;
#X obj 151 344 outlet;
#X text 95 362 sub-block delay (samples);
#X obj 41 189 f \$1;
#X text 38 362 bang;
#X text 40 17 delay with DSP block boundary correction;
#X obj 268 345 outlet;
#X text 41 33 grrrr.org \, 2012-2016;
#X text 265 364 sub-sample loss (samples);
#X text 40 68 bang / delay (samples);
#N canvas 220 232 332 253 delay_blocks 0;
#X obj 40 30 inlet;
#X obj 41 209 outlet;
#X obj 229 33 inlet;
#X msg 229 139 stop;
#X obj 40 53 sel 0;
#X obj 161 32 inlet;
#X text 229 15 stop;
#X text 160 15 blocksize;
#X obj 166 178 delay;
#X obj 166 107 * 64;
#X obj 166 151 upp.s2ms;
#N canvas 0 22 288 302 blockdel 0;
#X obj 95 157 - 1;
#X obj 127 34 bang~;
#X obj 67 157 f;
#X obj 69 225 t b b;
#X obj 122 99 spigot;
#X obj 66 57 t a b;
#X msg 178 59 1;
#X msg 210 59 0;
#X obj 67 189 moses 0;
#X obj 69 259 outlet;
#X obj 66 24 inlet;
#X connect 0 0 2 1;
#X connect 1 0 4 0;
#X connect 2 0 8 0;
#X connect 3 0 9 0;
#X connect 3 1 7 0;
#X connect 4 0 2 0;
#X connect 5 0 0 0;
#X connect 5 1 6 0;
#X connect 6 0 4 1;
#X connect 7 0 4 1;
#X connect 8 0 3 0;
#X connect 8 1 0 0;
#X connect 10 0 5 0;
#X restore 67 138 pd blockdel;
#X obj 166 129 + 0.0001;
#X connect 0 0 4 0;
#X connect 2 0 3 0;
#X connect 3 0 8 0;
#X connect 4 0 1 0;
#X connect 4 1 9 0;
#X connect 5 0 9 1;
#X connect 8 0 1 0;
#X connect 9 0 12 0;
#X connect 10 0 8 0;
#X connect 11 0 1 0;
#X connect 12 0 10 0;
#X restore 41 257 pd delay_blocks;
#N canvas 96 92 332 300 whole_blocks 0;
#X obj 53 44 inlet;
#X obj 52 239 outlet;
#X obj 176 237 outlet;
#X obj 53 107 / 64;
#X obj 53 134 int;
#X obj 53 80 t a a;
#X obj 53 163 t a a;
#X obj 177 176 -;
#X obj 176 199 * -1;
#X text 77 136 whole blocks;
#X obj 80 189 * 64;
#X text 54 25 samples;
#X text 51 262 whole blocks;
#X text 175 259 remaining samples;
#X obj 171 46 inlet;
#X text 171 28 blocksize;
#X connect 0 0 5 0;
#X connect 3 0 4 0;
#X connect 4 0 6 0;
#X connect 5 0 3 0;
#X connect 5 1 7 1;
#X connect 6 0 1 0;
#X connect 6 1 10 0;
#X connect 7 0 8 0;
#X connect 8 0 2 0;
#X connect 10 0 7 0;
#X connect 14 0 3 1;
#X connect 14 0 10 1;
#X restore 41 219 pd whole_blocks;
#N canvas 0 22 341 256 whole_samples 0;
#X obj 53 179 outlet;
#X obj 54 109 int;
#X obj 168 114 -;
#X obj 168 176 outlet;
#X obj 54 134 t a a;
#X obj 168 136 * -1;
#X obj 54 80 t a a;
#X obj 56 48 inlet;
#X text 57 21 samples;
#X text 52 206 whole samples;
#X text 171 201 fractional samples;
#X connect 1 0 4 0;
#X connect 2 0 5 0;
#X connect 4 0 0 0;
#X connect 4 1 2 0;
#X connect 5 0 3 0;
#X connect 6 0 1 0;
#X connect 6 1 2 1;
#X connect 7 0 6 0;
#X restore 166 257 pd whole_samples;
#X obj 41 285 t b b b;
#X obj 151 319 f;
#X obj 268 321 f;
#X obj 126 87 inlet;
#X obj 41 114 route bang float stop;
#X text 211 70 blocksize (should be adaptive);
#X obj 216 88 loadbang;
#X obj 216 136 select 0;
#X msg 216 158 64;
#X obj 278 89 inlet;
#X obj 270 185 t a;
#X obj 216 115 f \$2;
#X connect 0 0 18 0;
#X connect 4 0 12 0;
#X connect 11 0 14 0;
#X connect 12 0 11 0;
#X connect 12 1 13 0;
#X connect 13 0 15 1;
#X connect 13 1 16 1;
#X connect 14 0 1 0;
#X connect 14 1 15 0;
#X connect 14 2 16 0;
#X connect 15 0 2 0;
#X connect 16 0 7 0;
#X connect 17 0 4 1;
#X connect 18 0 4 0;
#X connect 18 1 4 0;
#X connect 18 2 11 2;
#X connect 20 0 25 0;
#X connect 21 0 22 0;
#X connect 21 1 24 0;
#X connect 22 0 24 0;
#X connect 23 0 24 0;
#X connect 24 0 12 1;
#X connect 24 0 11 1;
#X connect 25 0 21 0;
