#N canvas 208 60 516 517 10;
#N canvas 0 22 239 213 print_dsp_blocks 0;
#X obj 143 168 print~;
#X obj 36 105 spigot;
#X obj 105 105 - 1;
#X obj 36 127 t a b;
#X obj 36 80 t a a;
#X obj 39 20 bang~;
#X obj 37 59 f;
#X obj 94 20 inlet;
#X obj 145 20 inlet~;
#X obj 94 42 t f b;
#X connect 1 0 3 0;
#X connect 2 0 6 1;
#X connect 3 0 2 0;
#X connect 3 1 0 0;
#X connect 4 0 1 0;
#X connect 4 1 1 1;
#X connect 5 0 6 0;
#X connect 6 0 4 0;
#X connect 7 0 9 0;
#X connect 8 0 0 0;
#X connect 9 0 6 1;
#X restore 28 327 pd print_dsp_blocks;
#X obj 85 120 print ============;
#X text 26 36 Time units are samples;
#X obj 28 97 hradio 15 1 0 3 empty empty examples 0 -8 0 10 -260097
-1 -1 2;
#X obj 28 120 t b a b;
#X obj 46 147 sel 0 1 2 3;
#X text 26 56 grrrr.org 2018;
#X msg 28 275 1;
#X msg 47 175 1 0;
#X msg 64 203 0.5 3;
#X msg 79 226 0.5 3 \, 0.7 7;
#X obj 64 275 upp.dirac~ 8;
#X text 25 430 - block size (default=64);
#X text 25 400 - voices (default=2): number of ramp parts within one
DSP block. Overflow will be signaled at right outlet if exceeded;
#X text 26 454 The block size can also be set through the right inlet
;
#X text 24 384 upp.dirac~ can be given two arguments:;
#X text 26 17 Dirac spike;
#X connect 3 0 4 0;
#X connect 4 0 7 0;
#X connect 4 1 5 0;
#X connect 4 2 1 0;
#X connect 5 0 8 0;
#X connect 5 1 9 0;
#X connect 5 2 10 0;
#X connect 7 0 0 0;
#X connect 8 0 11 0;
#X connect 9 0 11 0;
#X connect 10 0 11 0;
#X connect 11 0 0 1;
