#N canvas 723 113 429 389 10;
#X obj 51 60 inlet;
#X obj 51 331 outlet;
#X obj 232 61 inlet;
#X text 229 43 ls coords;
#X obj 259 329 outlet;
#N canvas 564 189 291 232 num-speakers 0;
#X obj 44 33 inlet;
#X obj 44 182 outlet;
#X obj 44 97 list length;
#X obj 44 123 - 1;
#X obj 44 150 /;
#X obj 125 98 list split 1;
#X obj 44 62 t a a;
#X obj 125 182 outlet;
#X text 125 203 dim;
#X text 44 204 count;
#X text 43 15 list;
#X obj 195 182 outlet;
#X text 196 203 coords;
#X obj 80 122 - 1;
#X connect 0 0 6 0;
#X connect 2 0 3 0;
#X connect 3 0 4 0;
#X connect 4 0 1 0;
#X connect 5 0 7 0;
#X connect 5 0 13 0;
#X connect 5 1 11 0;
#X connect 6 0 2 0;
#X connect 6 1 5 0;
#X connect 13 0 4 1;
#X restore 259 120 pd num-speakers;
#X text 334 139 coords;
#X text 289 140 dim;
#X text 245 139 num;
#X text 266 311 num speakers;
#X text 48 15 Compute inverse distances to loudspeaker coordinates
;
#X text 49 43 azimuth elevation spread;
#X obj 51 181 unpack 0 0 0;
#X obj 51 293 vbap/vbap 0 0 0;
#X obj 51 243 t b a;
#X obj 181 181 list prepend define_loudspeakers;
#X obj 181 204 list trim;
#X obj 232 87 t a a;
#X connect 0 0 12 0;
#X connect 2 0 17 0;
#X connect 5 0 4 0;
#X connect 12 0 14 0;
#X connect 12 1 13 2;
#X connect 12 2 13 3;
#X connect 13 0 1 0;
#X connect 14 0 13 0;
#X connect 14 1 13 1;
#X connect 15 0 16 0;
#X connect 16 0 13 0;
#X connect 17 0 15 0;
#X connect 17 1 5 0;
