#N canvas 0 23 246 217 10;
#X obj 42 25 inlet;
#X obj 42 176 outlet;
#X obj 42 48 t a b;
#X obj 69 71 samplerate~;
#X obj 42 108 /;
#X obj 42 151 * 1000;
#X connect 0 0 2 0;
#X connect 2 0 4 0;
#X connect 2 1 3 0;
#X connect 3 0 4 1;
#X connect 4 0 5 0;
#X connect 5 0 1 0;
