#N canvas 573 463 426 538 10;
#X obj 95 453 outlet;
#X obj 94 368 f;
#X obj 63 236 delay;
#X obj 72 287 spigot;
#X obj 73 98 t a a;
#X msg 72 183 0;
#X obj 73 70 inlet;
#X text 72 53 play 0/1;
#X obj 259 453 outlet;
#X obj 72 309 t b b;
#X text 92 474 trigger new grain;
#X obj 72 149 sel 1 0;
#X obj 249 74 inlet;
#X obj 233 275 f;
#X obj 158 72 inlet;
#X text 229 290 delay to next grain;
#X text 155 53 set pos;
#X text 246 55 offset;
#X obj 259 406 t b;
#X obj 94 404 t a b;
#X text 257 472 stop current grain;
#X connect 1 0 19 0;
#X connect 2 0 3 0;
#X connect 3 0 9 0;
#X connect 4 0 11 0;
#X connect 4 1 3 1;
#X connect 5 0 2 0;
#X connect 6 0 4 0;
#X connect 9 0 1 0;
#X connect 9 1 18 0;
#X connect 11 0 5 0;
#X connect 11 1 18 0;
#X connect 12 0 13 1;
#X connect 13 0 2 0;
#X connect 14 0 1 1;
#X connect 18 0 8 0;
#X connect 19 0 0 0;
#X connect 19 1 13 0;
