#N canvas 290 183 302 261 10;
#X obj 64 36 inlet~;
#X obj 118 36 inlet~;
#X obj 193 36 inlet~;
#X obj 64 202 outlet~;
#X text 70 18 A;
#X text 127 21 B;
#X text 202 21 M;
#X text 123 186 A*(1-M)+B*M;
#X obj 118 104 -~;
#X obj 118 135 *~;
#X obj 64 168 +~;
#X text 123 207 = A+(B-A)*M;
#X connect 0 0 8 1;
#X connect 0 0 10 0;
#X connect 1 0 8 0;
#X connect 2 0 9 1;
#X connect 8 0 9 0;
#X connect 9 0 10 1;
#X connect 10 0 3 0;
