#N canvas 1056 716 378 534 10;
#X obj 98 457 outlet;
#X obj 94 344 f;
#X obj 63 285 spigot;
#X obj 63 98 t a a;
#X obj 63 70 inlet;
#X text 62 53 play 0/1;
#X obj 242 69 inlet;
#X obj 150 70 inlet;
#X text 214 288 delay to next grain;
#X text 147 51 set pos;
#X text 239 50 offset;
#X obj 63 149 sel 1;
#X obj 79 233 upp.delay;
#X msg 63 183 0 0;
#X obj 160 233 t a;
#X obj 218 273 f \$1;
#X obj 200 422 f;
#X obj 79 380 t b a b;
#X obj 200 457 outlet;
#X text 55 475 new grain position;
#X text 191 476 sub-block delay (samples);
#X connect 1 0 17 0;
#X connect 2 0 1 0;
#X connect 3 0 11 0;
#X connect 3 1 2 1;
#X connect 4 0 3 0;
#X connect 6 0 15 1;
#X connect 7 0 1 1;
#X connect 11 0 13 0;
#X connect 12 0 2 0;
#X connect 12 1 14 0;
#X connect 12 1 16 1;
#X connect 13 0 12 0;
#X connect 14 0 12 2;
#X connect 15 0 12 0;
#X connect 16 0 18 0;
#X connect 17 0 15 0;
#X connect 17 1 0 0;
#X connect 17 2 16 0;
