#N canvas 396 109 780 637 10;
#X obj 69 38 inlet;
#X obj 367 420 t a b;
#X obj 69 562 outlet;
#X text 365 402 overflow;
#X obj 447 422 t b;
#X text 436 440 release;
#X obj 216 562 outlet;
#X obj 362 22 loadbang;
#X msg 362 44 0;
#X obj 50 95 cnv 15 200 100 empty empty empty 20 12 0 14 -233017 -66577
0;
#X text 186 166 if busy;
#X text 74 165 if vacant;
#X obj 198 111 tgl 15 0 empty empty empty 17 7 0 10 -262144 -1 -1 0
1;
#X text 164 108 busy;
#X msg 288 116 1;
#X text 287 99 set busy;
#X text 70 579 pass on;
#X text 212 579 release;
#X obj 429 259 spigot;
#X obj 178 38 inlet;
#X obj 294 386 t a;
#X msg 273 337 -1;
#X obj 260 423 nbx 5 14 -1e+37 1e+37 0 0 empty empty active 0 -8 0
10 -262144 -1 -1 0 256;
#X text 173 20 modulation message;
#X obj 256 254 t a b;
#X msg 238 338 1;
#X obj 260 385 +;
#X obj 306 567 outlet;
#X text 303 588 voices active;
#X text 67 20 event message;
#X obj 506 378 inlet pass_on;
#X obj 644 374 inlet release;
#X obj 506 332 outlet event_msg;
#X obj 643 330 outlet mod_msg;
#X text 648 21 grrrr.org 2012;
#X obj 135 143 upp.dilemma;
#X connect 0 0 35 0;
#X connect 1 0 2 0;
#X connect 1 1 14 0;
#X connect 1 1 21 0;
#X connect 4 0 6 0;
#X connect 4 0 8 0;
#X connect 4 0 21 0;
#X connect 7 0 8 0;
#X connect 8 0 12 0;
#X connect 8 0 26 0;
#X connect 12 0 35 1;
#X connect 14 0 12 0;
#X connect 18 0 33 0;
#X connect 19 0 18 0;
#X connect 20 0 26 1;
#X connect 21 0 26 0;
#X connect 22 0 27 0;
#X connect 24 0 32 0;
#X connect 24 1 25 0;
#X connect 25 0 26 0;
#X connect 26 0 20 0;
#X connect 26 0 22 0;
#X connect 26 0 18 1;
#X connect 30 0 1 0;
#X connect 31 0 4 0;
#X connect 35 0 24 0;
#X connect 35 1 2 0;
