#N canvas 301 52 429 270 10;
#X obj 47 210 print~;
#X obj 47 42 bng 15 250 50 0 empty empty empty 17 7 0 10 -262144 -1
-1;
#X obj 74 138 upp.ramp~;
#X obj 273 153 array set \$0-table;
#X obj 272 98 loadbang;
#X obj 74 163 upp.tabread4~ \$0-table;
#X msg 272 123 1 2 0 1 3 0;
#X obj 273 49 table \$0-table 6;
#X obj 47 77 t b b b;
#X msg 125 114 0.1;
#X connect 1 0 8 0;
#X connect 2 0 5 0;
#X connect 4 0 6 0;
#X connect 5 0 0 0;
#X connect 6 0 3 0;
#X connect 8 0 0 0;
#X connect 8 1 2 0;
#X connect 8 2 9 0;
#X connect 9 0 2 2;
