#N canvas 0 23 433 488 10;
#X obj 274 252 +~ 1;
#X obj 114 150 expr~ int($v1);
#X obj 146 275 -~;
#X obj 275 326 *~;
#X obj 69 328 -~ 1;
#X obj 40 356 *~;
#X obj 142 396 -~;
#X obj 275 326 *~;
#X obj 43 73 inlet~;
#X obj 142 430 outlet~;
#X text 42 10 linear interpolation for tabread~;
#X text 41 33 ATTN: tabread4~ does not correctly deliver first and
last samples of a table;
#X obj 187 66 inlet;
#X obj 228 149 route symbol;
#X obj 253 66 loadbang;
#X obj 40 293 tabread~;
#X obj 274 288 tabread~;
#X msg 229 173 set \$1;
#X text 123 293 fractional sample;
#N canvas 637 164 293 240 symbol_arg_\$1_not_0 0;
#X obj 33 74 symbol \$1;
#X obj 62 122 upp.cmpatom;
#X obj 102 71 symbol 0;
#X obj 34 51 t b b;
#X obj 34 96 t a a;
#X obj 34 175 spigot;
#X obj 62 144 == 0;
#X obj 35 21 inlet;
#X obj 35 204 outlet;
#X connect 0 0 4 0;
#X connect 1 0 6 0;
#X connect 2 0 1 1;
#X connect 3 0 0 0;
#X connect 3 1 2 0;
#X connect 4 0 5 0;
#X connect 4 1 1 0;
#X connect 5 0 8 0;
#X connect 6 0 5 1;
#X connect 7 0 3 0;
#X restore 253 96 pd symbol_arg_\$1_not_0;
#X obj 43 98 max~ 0;
#X connect 0 0 16 0;
#X connect 1 0 2 1;
#X connect 1 0 0 0;
#X connect 1 0 15 0;
#X connect 2 0 3 1;
#X connect 2 0 4 0;
#X connect 3 0 6 0;
#X connect 4 0 5 1;
#X connect 5 0 6 1;
#X connect 6 0 9 0;
#X connect 8 0 20 0;
#X connect 12 0 13 0;
#X connect 13 0 17 0;
#X connect 14 0 19 0;
#X connect 15 0 5 0;
#X connect 16 0 3 0;
#X connect 17 0 15 0;
#X connect 17 0 16 0;
#X connect 19 0 13 0;
#X connect 20 0 1 0;
#X connect 20 0 2 0;
