#N canvas 708 22 574 700 10;
#X obj 67 104 inlet;
#X obj 67 206 until;
#X msg 113 206 0;
#X obj 67 227 f;
#X obj 248 643 list trim;
#X msg 247 597 list obj 50 \$1;
#X obj 67 176 t a b a;
#X obj 61 333 moses 1;
#X obj 120 333 moses;
#X obj 177 306 - 1;
#X obj 71 413 t a a;
#X obj 72 456 pack;
#X msg 72 476 connect \$1 0 \$2 0 \, connect 1 0 \$2 1 \, connect \$2
1 3 0;
#X obj 159 412 t a a;
#X obj 160 455 pack;
#X msg 160 501 connect \$1 0 \$2 0 \, connect 1 0 \$2 1 \, connect
\$2 1 3 0 \, connect \$2 0 2 0;
#X msg 61 380 connect 0 0 \$1 0 \, connect 1 0 \$1 1 \, connect \$1
1 3 0;
#X obj 72 433 - 1;
#X obj 160 432 - 1;
#X obj 67 153 list split 1;
#X obj 61 695 list prepend;
#X obj 402 107 inlet;
#X obj 248 622 list append;
#X obj 97 227 + 1;
#X obj 275 703 outlet;
#X msg 158 208 symbol pd-\$1;
#X obj 370 701 outlet;
#X obj 67 249 t a a a a;
#X text 371 723 pre-creation;
#X text 257 723 post-creation;
#X text 63 34 arg1: offset index into sub-patch (= number of existing
objects in sub-patch);
#X text 401 86 object_to_create (list);
#X text 124 276 only connect if \$1 != 0;
#X text 62 16 dynamically creates (chained) voices;
#X obj 158 175 list split 1;
#X obj 61 289 spigot;
#X obj 62 355 +;
#X obj 118 357 +;
#X obj 156 358 +;
#X text 65 84 voice-count sub-patch existing_objects;
#X text 454 13 grrrr.org 2012;
#X obj 61 717 upp.fwd;
#X obj 247 568 + 50;
#X obj 247 549 * 20;
#X connect 0 0 19 0;
#X connect 1 0 3 0;
#X connect 2 0 3 1;
#X connect 3 0 23 0;
#X connect 3 0 27 0;
#X connect 4 0 20 0;
#X connect 5 0 22 0;
#X connect 6 0 1 0;
#X connect 6 1 2 0;
#X connect 6 2 9 0;
#X connect 7 0 36 0;
#X connect 7 1 8 0;
#X connect 8 0 37 0;
#X connect 8 1 38 0;
#X connect 9 0 8 1;
#X connect 10 0 17 0;
#X connect 10 1 11 1;
#X connect 11 0 12 0;
#X connect 12 0 20 0;
#X connect 13 0 18 0;
#X connect 13 1 14 1;
#X connect 14 0 15 0;
#X connect 15 0 20 0;
#X connect 16 0 20 0;
#X connect 17 0 11 0;
#X connect 18 0 14 0;
#X connect 19 0 6 0;
#X connect 19 1 34 0;
#X connect 20 0 41 0;
#X connect 21 0 22 1;
#X connect 22 0 4 0;
#X connect 23 0 3 1;
#X connect 25 0 20 1;
#X connect 27 0 35 0;
#X connect 27 1 24 0;
#X connect 27 2 43 0;
#X connect 27 3 26 0;
#X connect 34 0 25 0;
#X connect 34 1 35 1;
#X connect 34 1 36 1;
#X connect 34 1 37 1;
#X connect 34 1 38 1;
#X connect 35 0 7 0;
#X connect 36 0 16 0;
#X connect 37 0 10 0;
#X connect 38 0 13 0;
#X connect 42 0 5 0;
#X connect 43 0 42 0;
