#N canvas 59 426 544 332 10;
#X obj 46 34 inlet~;
#X text 46 17 signal;
#X text 305 63 loudspeaker definitions;
#X text 303 79 dimension (2/3) \, coordinates;
#N canvas 66 119 458 249 \$0-mult 0;
#X obj 20 14 inlet~;
#X obj 81 15 inlet;
#X restore 46 285 pd \$0-mult;
#N canvas 784 231 478 466 generate-mult 0;
#X obj 48 89 t b a b;
#X obj 70 122 until;
#X obj 70 147 f;
#X obj 96 147 + 1;
#X obj 47 417 upp.fwd;
#X msg 48 367 loadbang;
#X obj 172 204 * 20;
#X obj 70 168 t a a;
#X obj 88 195 * 3;
#X obj 70 260 pack 0 0 0 0 0;
#X msg 113 122 0;
#X obj 172 225 + 50;
#X obj 48 28 inlet;
#X obj 87 225 + 2;
#X obj 114 225 + 3;
#X obj 141 224 + 4;
#X obj 60 225 + 1;
#X obj 47 392 list prepend pd-\$0-mult;
#X msg 70 313 obj 40 \$6 *~ 0 \, obj 100 \$6 route \$2 \, obj 170 \$6
throw~ \$1-\$2 \, connect 0 0 \$3 0 \, connect 1 0 \$4 0 \, connect
\$3 0 \$5 0 \, connect \$4 0 \$3 1;
#X obj 70 282 list prepend \$2;
#X connect 0 0 5 0;
#X connect 0 1 1 0;
#X connect 0 2 10 0;
#X connect 1 0 2 0;
#X connect 2 0 3 0;
#X connect 2 0 7 0;
#X connect 3 0 2 1;
#X connect 5 0 17 0;
#X connect 6 0 11 0;
#X connect 7 0 16 0;
#X connect 7 1 6 0;
#X connect 7 1 8 0;
#X connect 8 0 13 0;
#X connect 8 0 14 0;
#X connect 8 0 15 0;
#X connect 9 0 19 0;
#X connect 10 0 2 1;
#X connect 11 0 9 4;
#X connect 12 0 0 0;
#X connect 13 0 9 1;
#X connect 14 0 9 2;
#X connect 15 0 9 3;
#X connect 16 0 9 0;
#X connect 17 0 4 0;
#X connect 18 0 17 0;
#X connect 19 0 18 0;
#X restore 299 282 pd generate-mult;
#X obj 103 35 inlet;
#X obj 103 58 unpack 0 0 0;
#X obj 103 194 vbap/vbap 0 0 0;
#X obj 272 102 t a a;
#X obj 272 126 list prepend define_loudspeakers;
#X obj 272 149 list trim;
#X obj 103 218 unpack 0 0;
#X obj 103 238 + 1;
#X obj 103 258 pack 0 0;
#X text 101 16 azimuth elevation spread;
#N canvas 564 189 247 233 num-speakers 0;
#X obj 44 27 inlet;
#X obj 45 182 outlet;
#X obj 44 97 list length;
#X obj 45 118 - 1;
#X obj 45 141 /;
#X obj 125 98 list split 1;
#X obj 125 120 - 1;
#X obj 44 62 t a a;
#X connect 0 0 7 0;
#X connect 2 0 3 0;
#X connect 3 0 4 0;
#X connect 4 0 1 0;
#X connect 5 0 6 0;
#X connect 6 0 4 1;
#X connect 7 0 2 0;
#X connect 7 1 5 0;
#X restore 299 219 pd num-speakers;
#X obj 272 70 \$1;
#X obj 272 36 loadbang;
#X text 305 200 determine number of speakers;
#X text 305 263 dynamically generate gain control;
#X obj 103 144 t b a;
#X connect 0 0 4 0;
#X connect 6 0 7 0;
#X connect 7 0 21 0;
#X connect 7 1 8 2;
#X connect 7 2 8 3;
#X connect 8 0 12 0;
#X connect 9 0 10 0;
#X connect 9 1 16 0;
#X connect 10 0 11 0;
#X connect 11 0 8 0;
#X connect 12 0 13 0;
#X connect 12 1 14 1;
#X connect 13 0 14 0;
#X connect 14 0 4 1;
#X connect 16 0 5 0;
#X connect 17 0 9 0;
#X connect 18 0 17 0;
#X connect 21 0 8 0;
#X connect 21 1 8 1;
