#N canvas 123 403 369 376 10;
#X obj 238 53 loadbang;
#X text 38 325 release;
#X obj 224 207 cnv 15 100 100 empty empty empty 20 12 0 14 -233017
-66577 0;
#X obj 256 280 switch~;
#X msg 273 233 1;
#X msg 238 233 0;
#X obj 256 259 tgl 15 0 empty empty empty 17 7 0 10 -262144 -1 -1 0
1;
#X obj 40 53 route start mod;
#X obj 40 25 r \$1-\$2;
#X obj 40 308 s \$1;
#X obj 40 210 \$3 \$4 \$5 \$6 \$7 \$8 \$9;
#X obj 40 282 list prepend \$2;
#X obj 115 90 spigot;
#X obj 40 179 t a a b;
#X text 236 23 grrrr.org 2012;
#X obj 40 257 t b b;
#X obj 115 132 upp._check;
#X obj 40 236 upp._release;
#X connect 0 0 5 0;
#X connect 4 0 6 0;
#X connect 5 0 6 0;
#X connect 6 0 3 0;
#X connect 6 0 12 1;
#X connect 7 0 13 0;
#X connect 7 1 12 0;
#X connect 8 0 7 0;
#X connect 10 0 17 0;
#X connect 11 0 9 0;
#X connect 12 0 16 0;
#X connect 13 0 10 0;
#X connect 13 1 16 1;
#X connect 13 2 4 0;
#X connect 15 0 11 0;
#X connect 15 1 5 0;
#X connect 16 0 10 1;
#X connect 17 0 15 0;
