#N canvas -14 177 946 671 10;
#X obj 177 24 inlet;
#X obj 585 192 bang~;
#X text 637 236 holds value at vector borders;
#X obj 672 255 + 64;
#X text 602 325 signal counting samples;
#X text 48 85 up (towards one);
#X text 282 89 down (towards zero);
#X obj 611 256 v \$0-pos;
#X obj 584 220 t b b;
#N canvas 0 22 500 300 start_end 0;
#X obj 79 26 inlet;
#X obj 79 86 unpack 0 0;
#X obj 136 111 t b a;
#X obj 136 136 v \$0-pos;
#X obj 136 160 +;
#X text 149 187 sample pos to start ramp up;
#X text 83 69 dur(smps) delay(smps);
#X obj 140 238 outlet;
#X obj 81 237 outlet;
#X text 73 216 dur;
#X connect 0 0 1 0;
#X connect 1 0 8 0;
#X connect 1 1 2 0;
#X connect 2 0 3 0;
#X connect 2 1 4 1;
#X connect 3 0 4 0;
#X connect 4 0 7 0;
#X restore 74 229 pd start_end;
#X text 137 248 start;
#X text 56 103 dur(smps) delay(smps);
#X text 282 106 dur(smps) delay(smps);
#X text 66 248 dur;
#N canvas 0 22 500 300 start_end 0;
#X obj 79 26 inlet;
#X obj 79 86 unpack 0 0;
#X obj 136 111 t b a;
#X obj 136 136 v \$0-pos;
#X obj 136 160 +;
#X text 148 216 sample pos to start ramp up;
#X text 83 69 dur(smps) delay(smps);
#X obj 138 239 outlet;
#X obj 79 151 t a a;
#X obj 65 239 outlet;
#X text 57 218 dur;
#X connect 0 0 1 0;
#X connect 1 0 8 0;
#X connect 1 1 2 0;
#X connect 2 0 3 0;
#X connect 2 1 4 1;
#X connect 3 0 4 0;
#X connect 4 0 7 0;
#X connect 8 0 9 0;
#X restore 296 235 pd start_end;
#X text 359 254 start;
#X text 290 254 dur;
#X obj 74 136 t a b;
#X obj 101 185 v \$0-pos;
#X msg 101 163 0;
#X obj 142 274 s \$0-upstart;
#X obj 520 397 r \$0-upstart;
#X obj 369 306 s \$0-dnstart;
#X obj 767 400 r \$0-dnstart;
#X text 78 497 clip((dnstart-upstart)/updur \, 0 \, 1);
#X obj 71 410 r \$0-dnstart;
#X obj 146 446 r \$0-upstart;
#X floatatom 146 577 5 0 0 0 - - -, f 5;
#X obj 549 624 outlet~;
#X obj 445 493 *~ 1;
#X obj 698 497 *~ 1;
#X obj 738 476 * -1;
#X msg 180 164 3e+38;
#X obj 180 186 s \$0-dnstart;
#N canvas 0 22 184 197 1/ 0;
#X obj 36 26 inlet;
#X obj 36 132 outlet;
#X obj 36 52 sel 0;
#X msg 68 73 1 \$1;
#X obj 68 94 /;
#X msg 36 73 1;
#X connect 0 0 2 0;
#X connect 2 0 5 0;
#X connect 2 1 3 0;
#X connect 3 0 4 0;
#X connect 4 0 1 0;
#X connect 5 0 1 0;
#X restore 51 278 pd 1/;
#X obj 51 305 s \$0-up1dur;
#X obj 466 470 r \$0-up1dur;
#N canvas 0 22 184 197 1/ 0;
#X obj 36 26 inlet;
#X obj 36 132 outlet;
#X obj 36 52 sel 0;
#X msg 68 73 1 \$1;
#X obj 68 94 /;
#X msg 36 73 1;
#X connect 0 0 2 0;
#X connect 2 0 5 0;
#X connect 2 1 3 0;
#X connect 3 0 4 0;
#X connect 4 0 1 0;
#X connect 5 0 1 0;
#X restore 295 281 pd 1/;
#X obj 294 306 s \$0-dn1dur;
#X obj 738 456 r \$0-dn1dur;
#X obj 232 446 r \$0-up1dur;
#X text 79 524 up-ramp final value;
#X obj 312 141 spigot;
#X obj 495 58 loadbang;
#X msg 493 82 0;
#X obj 493 106 s \$0-downon;
#X obj 361 142 r \$0-dnactive;
#X obj 181 229 s \$0-dnactive;
#X msg 180 209 1;
#X obj 290 165 t b a;
#X msg 211 209 0;
#X obj 576 488 expr~ $v1 >= 0;
#X obj 65 579 s \$0-final;
#X text 405 538 up part;
#X text 722 559 down part;
#X obj 62 330 nbx 8 14 -1e+37 1e+37 0 0 empty empty empty 0 -8 0 10
-262144 -1 -1 10 256;
#X obj 149 332 nbx 8 14 -1e+37 1e+37 0 0 empty empty empty 0 -8 0 10
-262144 -1 -1 0 256;
#X obj 285 332 nbx 8 14 -1e+37 1e+37 0 0 empty empty empty 0 -8 0 10
-262144 -1 -1 10 256;
#X obj 372 334 nbx 8 14 -1e+37 1e+37 0 0 empty empty empty 0 -8 0 10
-262144 -1 -1 30 256;
#X obj 549 569 upp.xfade~;
#X obj 549 596 clip~ 0 1;
#X text 705 259 block size;
#X obj 698 529 +~ 0;
#X text 567 467 mask for up part;
#X obj 520 420 t b a;
#X obj 483 420 -;
#X obj 445 421 +~ 0;
#X obj 698 422 +~ 0;
#X obj 767 422 t b a;
#X obj 735 422 -;
#X text 40 389 last value to be received;
#X obj 71 473 expr min(($f1-$f2)*$f3 \, 1);
#X obj 177 51 route up down;
#X obj 584 301 upp.endless_ramp_up~;
#X obj 821 456 r \$0-final;
#X obj 821 477 t b a;
#X obj 738 497 *;
#X connect 0 0 72 0;
#X connect 1 0 8 0;
#X connect 3 0 7 0;
#X connect 7 0 3 0;
#X connect 7 0 65 0;
#X connect 7 0 69 0;
#X connect 8 0 73 0;
#X connect 8 1 7 0;
#X connect 9 0 34 0;
#X connect 9 0 55 0;
#X connect 9 1 20 0;
#X connect 9 1 56 0;
#X connect 14 0 37 0;
#X connect 14 0 57 0;
#X connect 14 1 22 0;
#X connect 14 1 58 0;
#X connect 17 0 9 0;
#X connect 17 1 19 0;
#X connect 17 1 32 0;
#X connect 17 1 48 0;
#X connect 19 0 18 0;
#X connect 21 0 64 0;
#X connect 23 0 68 0;
#X connect 25 0 71 0;
#X connect 26 0 71 1;
#X connect 29 0 59 0;
#X connect 30 0 62 0;
#X connect 31 0 76 0;
#X connect 32 0 33 0;
#X connect 34 0 35 0;
#X connect 36 0 29 1;
#X connect 37 0 38 0;
#X connect 39 0 31 0;
#X connect 40 0 71 2;
#X connect 42 0 49 0;
#X connect 43 0 44 0;
#X connect 44 0 45 0;
#X connect 46 0 42 1;
#X connect 48 0 47 0;
#X connect 49 0 50 0;
#X connect 49 1 14 0;
#X connect 50 0 47 0;
#X connect 51 0 59 2;
#X connect 59 0 60 0;
#X connect 60 0 28 0;
#X connect 62 0 59 1;
#X connect 64 0 65 0;
#X connect 64 1 65 1;
#X connect 65 0 66 1;
#X connect 66 0 29 0;
#X connect 67 0 51 0;
#X connect 67 0 30 0;
#X connect 68 0 69 0;
#X connect 68 1 69 1;
#X connect 69 0 67 1;
#X connect 71 0 27 0;
#X connect 71 0 52 0;
#X connect 72 0 17 0;
#X connect 72 1 42 0;
#X connect 73 0 66 0;
#X connect 73 0 67 0;
#X connect 74 0 75 0;
#X connect 75 0 76 0;
#X connect 75 1 62 1;
#X connect 75 1 76 1;
#X connect 76 0 30 1;
