#N canvas 76 71 547 459 10;
#N canvas 0 22 450 300 snap 0;
#X obj 20 14 inlet~;
#X obj 20 165 outlet;
#X obj 21 98 snapshot~;
#X obj 98 69 metro 10;
#X obj 98 14 loadbang;
#X msg 98 42 1;
#X obj 101 103 nbx 10 14 -1e+37 1e+37 0 0 empty empty empty 0 -8 0
10 -262144 -1 -1 0 256;
#X connect 0 0 2 0;
#X connect 2 0 1 0;
#X connect 2 0 6 0;
#X connect 3 0 2 0;
#X connect 4 0 5 0;
#X connect 5 0 3 0;
#X coords 0 -1 1 1 100 20 1 100 100;
#X restore 28 171 pd snap;
#X msg 28 121 \$1 44100 0;
#X obj 31 199 hsl 128 15 0 2 0 0 empty empty empty -2 -8 0 10 -261682
-1 -1 0 1;
#N canvas 0 22 239 213 print_dsp_blocks 0;
#X obj 143 168 print~;
#X obj 36 105 spigot;
#X obj 105 105 - 1;
#X obj 36 127 t a b;
#X obj 36 80 t a a;
#X obj 39 20 bang~;
#X obj 37 59 f;
#X obj 94 20 inlet;
#X obj 145 20 inlet~;
#X obj 94 42 t f b;
#X connect 1 0 3 0;
#X connect 2 0 6 1;
#X connect 3 0 2 0;
#X connect 3 1 0 0;
#X connect 4 0 1 0;
#X connect 4 1 1 1;
#X connect 5 0 6 0;
#X connect 6 0 4 0;
#X connect 7 0 9 0;
#X connect 8 0 0 0;
#X connect 9 0 6 1;
#X restore 221 303 pd print_dsp_blocks;
#X obj 278 122 print ============;
#X msg 221 277 3;
#X obj 98 147 print OVF;
#X obj 343 277 print OVF;
#X text 26 56 grrrr.org 2016;
#X text 26 36 Time units are samples;
#X text 35 376 - block size (default=64);
#X text 34 330 upp.vline~ can be given two arguments:;
#X text 35 346 - voices (default=2): number of ramp parts within one
DSP block. Overflow will be signaled at right outlet if exceeded;
#X obj 221 99 hradio 15 1 0 4 empty empty examples 0 -8 0 10 -260097
-1 -1 3;
#X obj 221 122 t b a b;
#X obj 28 99 hradio 15 1 0 3 empty empty target_value 0 -8 0 10 -260097
-1 -1 0;
#X msg 257 199 1 10 10 \, 0.5 40 50 \, 0 20 120;
#X msg 274 221 0 \, 1 0 1 \, 0 0 2 \, 1 0 3 \, 0 0 4;
#X msg 240 177 1 0 20 \, 0 0 40 \, 1 2 60 \, 0 2 80;
#X text 26 17 Replacement for vline~ with line~-like slopes;
#X text 36 400 The block size can also be set through the right inlet
;
#X obj 28 146 upp.vline~;
#X obj 257 277 upp.vline~ 8;
#X obj 240 147 sel 0 1 2 3;
#X obj 368 243 upp.delay 64;
#X msg 287 243 0 \, 1 100 10;
#X msg 449 243 0 100 46;
#X connect 0 0 2 0;
#X connect 1 0 21 0;
#X connect 5 0 3 0;
#X connect 13 0 14 0;
#X connect 14 0 5 0;
#X connect 14 1 23 0;
#X connect 14 2 4 0;
#X connect 15 0 1 0;
#X connect 16 0 22 0;
#X connect 17 0 22 0;
#X connect 18 0 22 0;
#X connect 21 0 0 0;
#X connect 21 1 6 0;
#X connect 22 0 3 1;
#X connect 22 1 7 0;
#X connect 23 0 18 0;
#X connect 23 1 16 0;
#X connect 23 2 17 0;
#X connect 23 3 25 0;
#X connect 23 3 24 0;
#X connect 24 0 26 0;
#X connect 25 0 22 0;
#X connect 26 0 22 0;
