#N canvas 951 40 468 475 10;
#X obj 63 82 inlet~;
#X obj 248 79 inlet;
#X obj 64 426 outlet~;
#X obj 64 384 *~;
#X obj 225 380 *~;
#X text 237 295 only first and last sample;
#X obj 302 80 loadbang;
#X msg 81 278 set \$1;
#X obj 64 308 tabread4~;
#X obj 225 311 upp.tabread2~;
#X obj 247 224 array size;
#N canvas 0 22 260 227 first_or_last 0;
#X obj 37 44 inlet~;
#X obj 37 148 outlet~;
#X obj 189 43 inlet;
#X text 189 20 size;
#X text 26 172 first or last;
#X obj 190 87 - 2;
#X obj 37 118 expr~ $v1 < 1 || $v1 > $f2;
#X connect 0 0 6 0;
#X connect 2 0 5 0;
#X connect 5 0 6 1;
#X connect 6 0 1 0;
#X restore 154 247 pd first_or_last;
#X obj 248 136 route symbol;
#X text 62 18 Workaround for tabread4~;
#X text 62 35 Delivers linearly interpolated first and last samples
;
#N canvas 637 164 293 240 symbol_arg_\$1_not_0 0;
#X obj 35 73 symbol \$1;
#X obj 62 122 upp.cmpatom;
#X obj 106 73 symbol 0;
#X obj 35 47 t b b;
#X obj 34 96 t a a;
#X obj 34 175 spigot;
#X obj 62 144 == 0;
#X obj 35 21 inlet;
#X obj 35 204 outlet;
#X connect 0 0 4 0;
#X connect 1 0 6 0;
#X connect 2 0 1 1;
#X connect 3 0 0 0;
#X connect 3 1 2 0;
#X connect 4 0 5 0;
#X connect 4 1 1 0;
#X connect 5 0 8 0;
#X connect 6 0 5 1;
#X connect 7 0 3 0;
#X restore 302 102 pd symbol_arg_\$1_not_0;
#X obj 247 160 t b a;
#X obj 79 360 expr~ $v1 == 0;
#X connect 0 0 8 0;
#X connect 0 0 11 0;
#X connect 0 0 9 0;
#X connect 1 0 12 0;
#X connect 3 0 2 0;
#X connect 4 0 2 0;
#X connect 6 0 15 0;
#X connect 7 0 8 0;
#X connect 8 0 3 0;
#X connect 9 0 4 0;
#X connect 10 0 11 1;
#X connect 11 0 4 1;
#X connect 11 0 17 0;
#X connect 12 0 16 0;
#X connect 15 0 12 0;
#X connect 16 0 10 0;
#X connect 16 1 10 1;
#X connect 16 1 9 1;
#X connect 16 1 7 0;
#X connect 17 0 3 1;
