#N canvas 173 94 228 338 10;
#X obj 38 82 inlet;
#X obj 38 304 outlet~;
#X text 34 16 endless ramp up;
#X text 37 62 reset;
#X obj 38 268 rpole~ 1;
#X obj 103 81 inlet;
#X msg 38 236 set \$1 \, \$2;
#X obj 38 104 t b b;
#X obj 38 210 pack 0 0;
#X obj 83 145 f 1;
#X obj 146 81 inlet;
#X text 103 63 start;
#X text 146 63 inc;
#X obj 38 185 - 1;
#X obj 38 144 f 0;
#X connect 0 0 7 0;
#X connect 4 0 1 0;
#X connect 5 0 14 1;
#X connect 6 0 4 0;
#X connect 7 0 14 0;
#X connect 7 1 9 0;
#X connect 8 0 6 0;
#X connect 9 0 8 1;
#X connect 9 0 13 1;
#X connect 10 0 9 1;
#X connect 13 0 8 0;
#X connect 14 0 13 0;
