#N canvas 383 280 397 296 10;
#X obj 63 31 inlet;
#X obj 128 237 outlet;
#X obj 220 30 inlet;
#X obj 220 57 route float symbol;
#X msg 220 80 0;
#X msg 260 81 1;
#X msg 260 100 0;
#X msg 309 101 1;
#X msg 155 202 0;
#X obj 64 75 upp.dilemma;
#X obj 110 99 upp.dilemma;
#X obj 176 158 select s;
#X msg 102 201 1;
#X obj 64 158 select 0;
#X text 288 23 grrrr.org 2012;
#X connect 0 0 9 0;
#X connect 2 0 3 0;
#X connect 3 0 4 0;
#X connect 3 0 13 1;
#X connect 3 1 5 0;
#X connect 3 1 6 0;
#X connect 3 1 11 1;
#X connect 3 2 7 0;
#X connect 4 0 9 1;
#X connect 5 0 9 1;
#X connect 6 0 10 1;
#X connect 7 0 10 1;
#X connect 8 0 1 0;
#X connect 9 0 13 0;
#X connect 9 1 10 0;
#X connect 10 0 11 0;
#X connect 10 1 8 0;
#X connect 11 0 12 0;
#X connect 11 1 8 0;
#X connect 12 0 1 0;
#X connect 13 0 12 0;
#X connect 13 1 8 0;
