#N canvas 168 268 1111 572 10;
#X obj 177 24 inlet;
#X text 738 125 signal counting samples;
#X text 35 39 up (towards one);
#X text 282 89 down (towards zero);
#X text 135 249 start;
#X text 43 57 dur(smps) delay(smps);
#X text 282 106 dur(smps) delay(smps);
#X text 88 249 dur;
#X text 392 231 start;
#X text 361 231 dur, f 4;
#X obj 163 295 s \$0-upstart;
#X obj 595 223 r \$0-upstart;
#X obj 402 281 s \$0-dnstart;
#X obj 929 228 r \$0-dnstart;
#X text 69 469 clip((dnstart-upstart)/updur \, 0 \, 1);
#X obj 62 413 r \$0-dnstart;
#X obj 148 413 r \$0-upstart;
#X floatatom 143 523 5 0 0 0 - - -, f 5;
#X obj 728 508 outlet~;
#X obj 560 386 *~ 1;
#X obj 894 331 *~ 1;
#X obj 934 289 * -1;
#X msg 170 140 3e+38;
#X obj 169 161 s \$0-dnstart;
#N canvas 0 22 184 197 1/ 0;
#X obj 36 26 inlet;
#X obj 36 132 outlet;
#X obj 36 52 sel 0;
#X msg 68 73 1 \$1;
#X obj 68 94 /;
#X msg 36 73 1;
#X connect 0 0 2 0;
#X connect 2 0 5 0;
#X connect 2 1 3 0;
#X connect 3 0 4 0;
#X connect 4 0 1 0;
#X connect 5 0 1 0;
#X restore 51 278 pd 1/;
#X obj 51 305 s \$0-up1dur;
#X obj 581 306 r \$0-up1dur;
#N canvas 0 22 184 197 1/ 0;
#X obj 36 26 inlet;
#X obj 36 132 outlet;
#X obj 36 52 sel 0;
#X msg 68 73 1 \$1;
#X obj 68 94 /;
#X msg 36 73 1;
#X connect 0 0 2 0;
#X connect 2 0 5 0;
#X connect 2 1 3 0;
#X connect 3 0 4 0;
#X connect 4 0 1 0;
#X connect 5 0 1 0;
#X restore 328 256 pd 1/;
#X obj 327 281 s \$0-dn1dur;
#X obj 934 269 r \$0-dn1dur;
#X obj 234 413 r \$0-up1dur;
#X text 80 497 up-ramp final value;
#X obj 312 141 spigot;
#X obj 387 23 loadbang;
#X obj 361 142 r \$0-dnactive;
#X obj 206 227 s \$0-dnactive;
#X msg 205 207 1;
#X msg 236 207 0;
#X obj 784 289 expr~ $v1 >= 0;
#X obj 62 525 s \$0-final;
#X text 555 434 up part;
#X text 892 432 down part;
#X obj 51 330 nbx 8 14 -1e+37 1e+37 0 0 empty empty empty 0 -8 0 10
-262144 -1 -1 10 256;
#X obj 160 329 nbx 8 14 -1e+37 1e+37 0 0 empty empty empty 0 -8 0 10
-262144 -1 -1 7 256;
#X obj 316 306 nbx 8 14 -1e+37 1e+37 0 0 empty empty empty 0 -8 0 10
-262144 -1 -1 10 256;
#X obj 427 308 nbx 8 14 -1e+37 1e+37 0 0 empty empty empty 0 -8 0 10
-262144 -1 -1 20 256;
#X obj 728 462 upp.xfade~;
#X obj 894 361 +~ 0;
#X text 55 390 last value to be received;
#X obj 62 445 expr min(($f1-$f2)*$f3 \, 1);
#X obj 177 77 route up down;
#X obj 1017 269 r \$0-final;
#X obj 1017 290 t b a;
#X obj 934 331 *;
#X obj 88 279 s \$0-updur;
#X obj 371 256 s \$0-dndur;
#X obj 76 349 nbx 8 14 -1e+37 1e+37 0 0 empty empty empty 0 -8 0 10
-262144 -1 -1 0.1 256;
#X obj 333 326 nbx 8 14 -1e+37 1e+37 0 0 empty empty empty 0 -8 0 10
-262144 -1 -1 0.1 256;
#X obj 420 98 s \$0-dnactive;
#X msg 387 75 0 0;
#X obj 732 142 upp.endless_ramp_up~;
#X obj 933 360 *;
#X obj 975 348 != 0;
#X obj 75 144 t b a b;
#X obj 975 368 t b a;
#X obj 637 278 expr~ $v1 >= 0;
#X text 639 261 mask for up part;
#X text 778 271 mask for down part;
#X obj 540 42 s \$0-upstart;
#X obj 658 306 r \$0-updur;
#X obj 658 344 == 0;
#X obj 637 387 *~ 0;
#X obj 596 344 != 0;
#X obj 51 253 t a a;
#X obj 329 231 t a a;
#X obj 728 486 clip~ 0 1;
#X obj 581 365 *;
#X obj 74 112 spigot;
#X obj 123 113 r \$0-upactive;
#X obj 205 248 s \$0-upactive;
#X msg 267 207 1;
#X msg 177 207 0;
#X obj 507 98 s \$0-upactive;
#X msg 420 74 0;
#X msg 507 74 1;
#X msg 540 21 0;
#X obj 387 47 t b b;
#X obj 560 223 -~ 0;
#X obj 894 228 -~ 0;
#X obj 74 229 unpack 0 0;
#X obj 329 210 unpack 0 0;
#X obj 290 165 t b a;
#X obj 169 182 s \$0-start;
#X obj 732 21 r \$0-start;
#X obj 732 87 upp.delay;
#X obj 732 46 t b b b;
#X msg 854 43 0;
#X obj 855 87 v \$0-pos;
#X msg 799 87 64;
#X floatatom 942 54 5 0 0 0 - - -, f 5;
#X obj 942 32 upp.blocksize;
#X obj 854 65 f;
#X obj 880 65 + 64;
#X connect 0 0 50 0;
#X connect 11 0 87 1;
#X connect 13 0 88 1;
#X connect 15 0 49 0;
#X connect 16 0 49 1;
#X connect 19 0 46 0;
#X connect 20 0 47 0;
#X connect 21 0 53 0;
#X connect 22 0 23 0;
#X connect 24 0 25 0;
#X connect 24 0 56 0;
#X connect 26 0 76 0;
#X connect 27 0 28 0;
#X connect 27 0 57 0;
#X connect 29 0 21 0;
#X connect 29 0 62 0;
#X connect 30 0 49 2;
#X connect 32 0 91 0;
#X connect 33 0 86 0;
#X connect 34 0 32 1;
#X connect 36 0 35 0;
#X connect 37 0 35 0;
#X connect 38 0 46 2;
#X connect 46 0 75 0;
#X connect 47 0 46 1;
#X connect 49 0 17 0;
#X connect 49 0 39 0;
#X connect 50 0 77 0;
#X connect 50 1 32 0;
#X connect 51 0 52 0;
#X connect 52 0 53 0;
#X connect 52 1 53 1;
#X connect 52 1 61 0;
#X connect 53 0 20 1;
#X connect 59 0 90 0;
#X connect 60 0 87 0;
#X connect 60 0 88 0;
#X connect 61 0 47 1;
#X connect 62 0 64 0;
#X connect 63 0 36 0;
#X connect 63 0 81 0;
#X connect 63 1 89 0;
#X connect 63 2 22 0;
#X connect 63 2 92 0;
#X connect 64 0 61 0;
#X connect 64 1 61 1;
#X connect 65 0 71 0;
#X connect 69 0 70 0;
#X connect 69 0 72 0;
#X connect 70 0 71 1;
#X connect 71 0 46 0;
#X connect 72 0 76 1;
#X connect 73 0 24 0;
#X connect 73 1 54 0;
#X connect 73 1 42 0;
#X connect 74 0 27 0;
#X connect 74 1 55 0;
#X connect 74 1 44 0;
#X connect 75 0 18 0;
#X connect 76 0 19 1;
#X connect 77 0 63 0;
#X connect 78 0 77 1;
#X connect 80 0 79 0;
#X connect 81 0 79 0;
#X connect 83 0 58 0;
#X connect 84 0 82 0;
#X connect 85 0 68 0;
#X connect 86 0 59 0;
#X connect 86 1 83 0;
#X connect 86 1 85 0;
#X connect 86 1 84 0;
#X connect 87 0 19 0;
#X connect 87 0 65 0;
#X connect 88 0 38 0;
#X connect 88 0 20 0;
#X connect 89 0 73 0;
#X connect 89 1 10 0;
#X connect 89 1 43 0;
#X connect 90 0 74 0;
#X connect 90 1 12 0;
#X connect 90 1 45 0;
#X connect 91 0 37 0;
#X connect 91 0 80 0;
#X connect 91 1 90 0;
#X connect 93 0 95 0;
#X connect 94 0 98 0;
#X connect 94 0 60 0;
#X connect 95 1 94 0;
#X connect 95 2 96 0;
#X connect 95 2 60 0;
#X connect 96 0 101 0;
#X connect 98 0 94 0;
#X connect 100 0 99 0;
#X connect 101 0 97 0;
#X connect 101 0 102 0;
#X connect 102 0 101 1;
