#N canvas 53 85 434 432 10;
#X obj 252 282 +~ 1;
#X obj 43 89 inlet~;
#X obj 159 379 outlet~;
#X text 42 19 linear interpolation for tabread~;
#X obj 204 90 inlet;
#X obj 228 170 route symbol;
#X obj 253 90 loadbang;
#X obj 77 303 tabread~;
#X obj 252 307 tabread~;
#X msg 229 194 set \$1;
#N canvas 637 164 293 240 symbol_arg_\$1_not_0 0;
#X obj 33 74 symbol \$1;
#X obj 62 122 upp.cmpatom;
#X obj 102 71 symbol 0;
#X obj 34 51 t b b;
#X obj 34 96 t a a;
#X obj 34 175 spigot;
#X obj 62 144 == 0;
#X obj 35 21 inlet;
#X obj 35 204 outlet;
#X connect 0 0 4 0;
#X connect 1 0 6 0;
#X connect 2 0 1 1;
#X connect 3 0 0 0;
#X connect 3 1 2 0;
#X connect 4 0 5 0;
#X connect 4 1 1 0;
#X connect 5 0 8 0;
#X connect 6 0 5 1;
#X connect 7 0 3 0;
#X restore 253 120 pd symbol_arg_\$1_not_0;
#X obj 43 114 max~ 0;
#X obj 170 181 wrap~;
#X obj 143 218 -~;
#X text 36 180 fractional pos;
#X text 36 218 integer pos;
#X text 215 375 s1+f*(s2-s1);
#X text 44 39 Thomas Grill \, 2016 - grrrr.org;
#X text 200 72 table name;
#X text 40 71 position signal;
#X obj 159 350 upp.xfade~;
#X connect 0 0 8 0;
#X connect 1 0 11 0;
#X connect 4 0 5 0;
#X connect 5 0 9 0;
#X connect 6 0 10 0;
#X connect 7 0 20 0;
#X connect 8 0 20 1;
#X connect 9 0 7 0;
#X connect 9 0 8 0;
#X connect 10 0 5 0;
#X connect 11 0 12 0;
#X connect 11 0 13 0;
#X connect 12 0 13 1;
#X connect 12 0 20 2;
#X connect 13 0 0 0;
#X connect 13 0 7 0;
#X connect 20 0 2 0;
