#N canvas 0 22 246 217 10;
#X obj 42 34 inlet;
#X obj 42 152 outlet;
#X obj 113 33 upp.samplerate;
#X msg 113 60 1000 \$1;
#X obj 113 87 /;
#X text 119 104 ms/sample;
#X obj 42 125 *;
#X connect 0 0 6 0;
#X connect 2 0 3 0;
#X connect 3 0 4 0;
#X connect 4 0 6 1;
#X connect 6 0 1 0;
