#N canvas 84 85 874 673 10;
#X obj 75 79 inlet;
#X obj 586 60 bang~;
#X text 638 104 holds value at vector borders;
#X obj 673 123 + 64;
#X obj 585 201 +~ 0;
#X text 611 218 signal counting samples;
#X text 73 54 up (towards one);
#X obj 313 78 inlet;
#X text 303 56 down (towards zero);
#X obj 612 124 v \$0-pos;
#X obj 585 88 t b b;
#N canvas 0 22 500 300 start_end 0;
#X obj 79 26 inlet;
#X obj 79 86 unpack 0 0;
#X obj 136 111 t b a;
#X obj 136 136 v \$0-pos;
#X obj 136 160 +;
#X text 149 187 sample pos to start ramp up;
#X text 83 69 dur(smps) delay(smps);
#X obj 140 238 outlet;
#X obj 81 237 outlet;
#X text 73 216 dur;
#X connect 0 0 1 0;
#X connect 1 0 8 0;
#X connect 1 1 2 0;
#X connect 2 0 3 0;
#X connect 2 1 4 1;
#X connect 3 0 4 0;
#X connect 4 0 7 0;
#X restore 74 229 pd start_end;
#X text 137 248 start;
#X text 49 100 dur(smps) delay(smps);
#X text 261 101 dur(smps) delay(smps);
#X text 66 248 dur;
#N canvas 0 22 500 300 start_end 0;
#X obj 79 26 inlet;
#X obj 79 86 unpack 0 0;
#X obj 136 111 t b a;
#X obj 136 136 v \$0-pos;
#X obj 136 160 +;
#X text 148 216 sample pos to start ramp up;
#X text 83 69 dur(smps) delay(smps);
#X obj 138 239 outlet;
#X obj 79 151 t a a;
#X obj 65 239 outlet;
#X text 57 218 dur;
#X connect 0 0 1 0;
#X connect 1 0 8 0;
#X connect 1 1 2 0;
#X connect 2 0 3 0;
#X connect 2 1 4 1;
#X connect 3 0 4 0;
#X connect 4 0 7 0;
#X connect 8 0 9 0;
#X restore 296 235 pd start_end;
#X text 359 254 start;
#X text 290 254 dur;
#X obj 74 142 t a b;
#X obj 101 185 v \$0-pos;
#X msg 101 163 0;
#X obj 462 515 expr~ $v1 == 0;
#X obj 445 400 -~ 0;
#X obj 446 554 *~;
#X text 436 586 ramp up;
#X obj 445 470 clip~ 0 1;
#X obj 142 274 s \$0-upstart;
#X obj 480 373 r \$0-upstart;
#X obj 369 306 s \$0-dnstart;
#X obj 718 376 r \$0-dnstart;
#X obj 698 489 +~;
#X obj 698 402 -~ 0;
#X text 78 466 clip((dnstart-upstart)/updur \, 0 \, 1);
#X obj 71 379 r \$0-dnstart;
#X obj 129 402 r \$0-upstart;
#X floatatom 146 546 5 0 0 0 - - -, f 5;
#X obj 567 630 outlet~;
#X obj 567 603 +~;
#X obj 698 520 clip~ 0 1;
#X text 459 536 mask;
#X obj 445 435 *~ 1;
#X obj 698 462 *~ 1;
#X obj 745 432 * -1;
#X msg 180 164 3e+38;
#X obj 180 186 s \$0-dnstart;
#N canvas 0 22 184 197 1/ 0;
#X obj 36 26 inlet;
#X obj 36 132 outlet;
#X obj 36 52 sel 0;
#X msg 68 73 1 \$1;
#X obj 68 94 /;
#X msg 36 73 1;
#X connect 0 0 2 0;
#X connect 2 0 5 0;
#X connect 2 1 3 0;
#X connect 3 0 4 0;
#X connect 4 0 1 0;
#X connect 5 0 1 0;
#X restore 51 278 pd 1/;
#X obj 51 305 s \$0-up1dur;
#X obj 490 406 r \$0-up1dur;
#N canvas 0 22 184 197 1/ 0;
#X obj 36 26 inlet;
#X obj 36 132 outlet;
#X obj 36 52 sel 0;
#X msg 68 73 1 \$1;
#X obj 68 94 /;
#X msg 36 73 1;
#X connect 0 0 2 0;
#X connect 2 0 5 0;
#X connect 2 1 3 0;
#X connect 3 0 4 0;
#X connect 4 0 1 0;
#X connect 5 0 1 0;
#X restore 295 281 pd 1/;
#X obj 294 306 s \$0-dn1dur;
#X obj 745 411 r \$0-dn1dur;
#X obj 215 402 r \$0-up1dur;
#X obj 71 442 expr min(max(($f1-$f2)*$f3 \, 0) \, 1);
#X obj 698 568 *~;
#X text 79 493 up-ramp final value;
#X obj 312 141 spigot;
#X obj 495 58 loadbang;
#X msg 493 82 0;
#X obj 493 106 s \$0-downon;
#X obj 361 142 r \$0-dnactive;
#X obj 181 229 s \$0-dnactive;
#X msg 180 209 1;
#X obj 290 165 t b a;
#X msg 211 209 0;
#X text 701 588 ramp down;
#X obj 567 459 expr~ $v1 >= 0;
#X text 539 533 not;
#X obj 737 490 r \$0-final;
#X obj 65 548 s \$0-final;
#X text 756 452 downward;
#X text 491 341 up part;
#X text 697 339 down part;
#X obj 62 330 nbx 8 14 -1e+37 1e+37 0 0 empty empty empty 0 -8 0 10
-262144 -1 -1 0 256;
#X obj 149 332 nbx 8 14 -1e+37 1e+37 0 0 empty empty empty 0 -8 0 10
-262144 -1 -1 0 256;
#X obj 285 332 nbx 8 14 -1e+37 1e+37 0 0 empty empty empty 0 -8 0 10
-262144 -1 -1 0 256;
#X obj 372 334 nbx 8 14 -1e+37 1e+37 0 0 empty empty empty 0 -8 0 10
-262144 -1 -1 0 256;
#X obj 585 169 upp.endless_ramp_up;
#X connect 0 0 19 0;
#X connect 1 0 10 0;
#X connect 3 0 9 0;
#X connect 4 0 23 0;
#X connect 4 0 32 0;
#X connect 7 0 56 0;
#X connect 9 0 3 0;
#X connect 9 0 4 1;
#X connect 10 0 77 0;
#X connect 10 1 9 0;
#X connect 11 0 46 0;
#X connect 11 0 73 0;
#X connect 11 1 27 0;
#X connect 11 1 74 0;
#X connect 16 0 49 0;
#X connect 16 0 75 0;
#X connect 16 1 29 0;
#X connect 16 1 76 0;
#X connect 19 0 11 0;
#X connect 19 1 21 0;
#X connect 19 1 44 0;
#X connect 19 1 62 0;
#X connect 21 0 20 0;
#X connect 22 0 24 1;
#X connect 23 0 41 0;
#X connect 24 0 38 0;
#X connect 26 0 24 0;
#X connect 28 0 23 1;
#X connect 30 0 32 1;
#X connect 31 0 39 0;
#X connect 32 0 42 0;
#X connect 32 0 66 0;
#X connect 34 0 53 0;
#X connect 35 0 53 1;
#X connect 38 0 37 0;
#X connect 39 0 54 0;
#X connect 41 0 26 0;
#X connect 42 0 31 0;
#X connect 43 0 42 1;
#X connect 44 0 45 0;
#X connect 46 0 47 0;
#X connect 48 0 41 1;
#X connect 49 0 50 0;
#X connect 51 0 43 0;
#X connect 52 0 53 2;
#X connect 53 0 36 0;
#X connect 53 0 69 0;
#X connect 54 0 38 1;
#X connect 56 0 63 0;
#X connect 57 0 58 0;
#X connect 58 0 59 0;
#X connect 60 0 56 1;
#X connect 62 0 61 0;
#X connect 63 0 64 0;
#X connect 63 1 16 0;
#X connect 64 0 61 0;
#X connect 66 0 22 0;
#X connect 66 0 54 1;
#X connect 68 0 31 1;
#X connect 77 0 4 0;
