#N canvas 267 180 516 829 10;
#X obj 87 89 inlet;
#X obj 87 741 outlet;
#X obj 330 741 outlet;
#X obj 300 205 samplerate~;
#X obj 300 225 / 1000;
#X obj 87 238 *;
#X text 89 318 delay-time in samples;
#X obj 87 344 / 64;
#X obj 87 368 int;
#X text 114 368 truncate;
#X obj 87 402 * 64;
#X obj 87 549 /;
#X obj 345 507 -;
#X obj 345 554 * -1;
#X text 71 518 account for;
#X text 72 528 rounding errors;
#X text 333 581 total - blocks;
#X text 333 529 blocks - total;
#X text 50 385 number of whole blocks;
#X obj 327 92 inlet;
#X obj 87 292 t a a;
#X text 259 759 sub-block delay (samples);
#X text 64 588 whole block delay (ms);
#X obj 87 197 t a b;
#X text 326 74 additional samples;
#X obj 169 135 unpack;
#X obj 150 651 delay;
#X obj 87 629 moses 0.001;
#X obj 330 719 f;
#X obj 87 433 t a a;
#X obj 87 684 t b b;
#X text 57 650 delay=0;
#X obj 87 483 + 0.1;
#X text 70 501 add fraction of a sample;
#X obj 172 90 inlet;
#X text 86 71 bang / delay (ms);
#X obj 87 112 route bang float list;
#X obj 87 172 f \$1;
#X obj 96 265 + \$2;
#X text 84 760 bang;
#X text 361 31 grrrr.org \, 2012;
#X text 83 30 delay with DSP block boundary correction;
#X connect 0 0 36 0;
#X connect 3 0 4 0;
#X connect 4 0 5 1;
#X connect 4 0 11 1;
#X connect 5 0 38 0;
#X connect 7 0 8 0;
#X connect 8 0 10 0;
#X connect 10 0 29 0;
#X connect 11 0 27 0;
#X connect 12 0 13 0;
#X connect 13 0 28 1;
#X connect 19 0 38 1;
#X connect 20 0 7 0;
#X connect 20 1 12 1;
#X connect 23 0 5 0;
#X connect 23 1 3 0;
#X connect 25 0 37 0;
#X connect 25 1 38 1;
#X connect 26 0 30 0;
#X connect 27 0 30 0;
#X connect 27 1 26 0;
#X connect 28 0 2 0;
#X connect 29 0 32 0;
#X connect 29 1 12 0;
#X connect 30 0 1 0;
#X connect 30 1 28 0;
#X connect 32 0 11 0;
#X connect 34 0 37 1;
#X connect 36 0 37 0;
#X connect 36 1 37 0;
#X connect 36 2 25 0;
#X connect 37 0 23 0;
#X connect 38 0 20 0;
