#N canvas 673 103 467 513 10;
#X obj 63 101 inlet~;
#X obj 248 98 inlet;
#X obj 99 470 outlet~;
#X obj 302 99 loadbang;
#X msg 81 297 set \$1;
#X obj 64 327 tabread4~;
#X obj 219 330 upp.tabread2~;
#X obj 247 243 array size;
#N canvas 0 22 260 227 first_or_last 1;
#X obj 37 44 inlet~;
#X obj 37 148 outlet~;
#X obj 189 43 inlet;
#X text 189 20 size;
#X text 26 172 first or last;
#X obj 190 87 - 2;
#X obj 37 118 expr~ $v1 < 1 || $v1 > $f2;
#X connect 0 0 6 0;
#X connect 2 0 5 0;
#X connect 5 0 6 1;
#X connect 6 0 1 0;
#X restore 154 277 pd first_or_last;
#X obj 248 155 route symbol;
#X text 62 18 Workaround for tabread4~;
#X text 62 35 Delivers linearly interpolated first and last samples
;
#N canvas 637 164 293 240 symbol_arg_\$1_not_0 0;
#X obj 35 73 symbol \$1;
#X obj 62 122 upp.cmpatom;
#X obj 106 73 symbol 0;
#X obj 35 47 t b b;
#X obj 34 96 t a a;
#X obj 34 175 spigot;
#X obj 62 144 == 0;
#X obj 35 21 inlet;
#X obj 35 204 outlet;
#X connect 0 0 4 0;
#X connect 1 0 6 0;
#X connect 2 0 1 1;
#X connect 3 0 0 0;
#X connect 3 1 2 0;
#X connect 4 0 5 0;
#X connect 4 1 1 0;
#X connect 5 0 8 0;
#X connect 6 0 5 1;
#X connect 7 0 3 0;
#X restore 302 121 pd symbol_arg_\$1_not_0;
#X obj 247 179 t b a;
#X obj 118 385 -~;
#X obj 139 419 *~;
#X text 173 456 t4*(1-m)+t2*m;
#X text 217 352 only for first and last sample;
#X text 169 473 = t4+m*(t2-t4);
#X text 63 82 position signal;
#X text 251 80 table name;
#X text 62 54 Thomas Grill \, 2016 - grrrr.org;
#X connect 0 0 5 0;
#X connect 0 0 8 0;
#X connect 0 0 6 0;
#X connect 1 0 9 0;
#X connect 3 0 12 0;
#X connect 4 0 5 0;
#X connect 5 0 14 1;
#X connect 5 0 2 0;
#X connect 6 0 14 0;
#X connect 7 0 8 1;
#X connect 8 0 15 1;
#X connect 9 0 13 0;
#X connect 12 0 9 0;
#X connect 13 0 7 0;
#X connect 13 1 7 1;
#X connect 13 1 6 1;
#X connect 13 1 4 0;
#X connect 14 0 15 0;
#X connect 15 0 2 0;
