#N canvas 324 163 600 371 10;
#X obj 39 51 inlet;
#X obj 39 287 outlet;
#X obj 154 287 outlet;
#X obj 395 50 loadbang;
#X text 38 303 pass;
#X text 151 304 release;
#X obj 380 225 cnv 15 100 100 empty empty empty 20 12 0 14 -233017
-66577 0;
#X obj 412 277 switch~;
#X msg 429 230 1;
#X msg 394 230 0;
#X obj 413 255 tgl 15 0 empty empty empty 17 7 0 10 -262144 -1 -1 1
1;
#X obj 307 51 inlet;
#X obj 39 169 upp.flowctrl;
#X obj 307 76 spigot;
#X obj 154 106 t a b a;
#X text 491 28 grrrr.org 2012;
#X text 38 31 event message;
#X text 306 31 mod message;
#X obj 154 264 t b b;
#X obj 154 213 upp._release;
#X obj 307 147 upp._check;
#X obj 154 171 \$1 \$2 \$3 \$4 \$5 \$6 \$7 \$8 \$9;
#X connect 0 0 12 0;
#X connect 3 0 9 0;
#X connect 8 0 10 0;
#X connect 9 0 10 0;
#X connect 10 0 7 0;
#X connect 10 0 13 1;
#X connect 11 0 13 0;
#X connect 12 0 1 0;
#X connect 12 1 14 0;
#X connect 13 0 20 0;
#X connect 14 0 21 0;
#X connect 14 1 8 0;
#X connect 14 2 20 1;
#X connect 18 0 2 0;
#X connect 18 1 9 0;
#X connect 18 1 12 1;
#X connect 19 0 18 0;
#X connect 20 0 21 1;
#X connect 21 0 19 0;
