#N canvas 14 27 813 271 10;
#X obj 69 38 inlet;
#X obj 69 195 outlet;
#X obj 142 195 outlet;
#X text 70 212 pass on;
#X text 138 212 release;
#X obj 168 37 inlet;
#X text 170 19 modulation message;
#X obj 207 195 outlet;
#X text 204 213 voices active;
#X text 67 20 event message;
#X obj 429 35 loadbang;
#X text 428 209 explicit loadbang after everything has been set up
;
#X obj 429 63 t b b;
#X obj 402 35 bng 15 250 50 0 empty empty empty 17 7 0 10 -262144 -1
-1;
#X text 154 128 dynamically created voices;
#X text 454 122 two-level dynamic patch generation;
#X text 655 31 grrrr.org 2012;
#N canvas 335 116 610 470 populate 0;
#X obj 54 33 inlet;
#N canvas 0 22 285 284 rep 0;
#X obj 98 47 inlet;
#X obj 100 219 outlet;
#X obj 101 155 f;
#X msg 157 122 0;
#X obj 98 73 t a b;
#X obj 101 122 until;
#X obj 143 154 + 1;
#X connect 0 0 4 0;
#X connect 2 0 6 0;
#X connect 2 0 1 0;
#X connect 3 0 2 1;
#X connect 4 0 5 0;
#X connect 4 1 3 0;
#X connect 5 0 2 0;
#X connect 6 0 2 1;
#X restore 54 223 pd rep;
#X obj 54 286 list append 1;
#X obj 54 364 list append;
#X obj 54 250 t b a;
#X obj 142 398 t b;
#X obj 54 161 t a a a;
#N canvas 703 203 419 452 sub 0;
#X obj 51 43 inlet;
#X obj 292 410 outlet;
#X obj 292 40 inlet;
#X text 295 22 pre-creation;
#X text 49 28 post-creation;
#X msg 51 148 \; pd-\$1 vis 0 \; pd-\$1 obj 10 10 inlet \; pd-\$1 obj
100 10 inlet \; pd-\$1 obj 200 10 outlet \; pd-\$1 obj 300 10 outlet
\; pd-\$1 obj 30 100 upp._xhelper \; pd-\$1 obj 130 100 pd \$2 \; pd-\$2
vis 0 \; pd-\$1 connect 0 0 4 0 \; pd-\$1 connect 1 0 4 1 \; pd-\$1
connect 4 0 2 0 \; pd-\$1 connect 4 1 3 0 \; pd-\$2 obj 10 10 inlet
\; pd-\$2 obj 100 10 inlet \; pd-\$2 obj 200 10 outlet \; pd-\$2 obj
300 10 outlet \; pd-\$1 connect 4 3 5 0 \; pd-\$1 connect 4 4 5 1 \;
pd-\$1 connect 5 0 4 2 \; pd-\$1 connect 5 1 4 3 \;;
#X obj 51 79 list prepend \$0;
#X msg 51 100 list \$1-c-\$2 \$1-v-\$2;
#X obj 292 79 list prepend \$0;
#X msg 292 100 pd \$1-c-\$2;
#X connect 0 0 6 0;
#X connect 2 0 8 0;
#X connect 6 0 7 0;
#X connect 7 0 5 0;
#X connect 8 0 9 0;
#X connect 9 0 1 0;
#X restore 521 418 pd sub;
#X obj 142 418 list append upp.flow \$2 \$3 \$4 \$5 \$6 \$7 \$8 \$9
;
#X obj 54 80 sqrt;
#X obj 54 101 + 1;
#X obj 54 123 int;
#X obj 54 57 f \$1;
#X obj 54 407 upp.dynchain;
#X obj 430 418 upp.dynchain;
#X obj 430 322 list prepend \$0;
#X msg 430 344 list \$2 \$1-root 4;
#X obj 117 321 list prepend \$0;
#X msg 117 342 list \$1-v-\$2 4;
#X connect 0 0 12 0;
#X connect 1 0 4 0;
#X connect 2 0 3 0;
#X connect 3 0 13 0;
#X connect 4 0 2 0;
#X connect 4 1 17 0;
#X connect 5 0 8 0;
#X connect 6 0 1 0;
#X connect 6 1 2 1;
#X connect 6 2 15 0;
#X connect 7 0 14 1;
#X connect 8 0 13 1;
#X connect 9 0 10 0;
#X connect 10 0 11 0;
#X connect 11 0 6 0;
#X connect 12 0 9 0;
#X connect 13 1 5 0;
#X connect 14 0 7 0;
#X connect 14 1 7 1;
#X connect 15 0 16 0;
#X connect 16 0 14 0;
#X connect 17 0 18 0;
#X connect 18 0 3 1;
#X restore 456 103 pd populate;
#X obj 69 110 upp._xhelper;
#N canvas 607 231 450 300 \$0-root 0;
#X obj 37 26 inlet;
#X obj 110 26 inlet;
#X obj 197 26 outlet;
#X obj 267 25 outlet;
#X restore 156 109 pd \$0-root;
#X obj 429 156 f \$0;
#X msg 429 177 \; pd-\$1-root loadbang;
#X connect 0 0 18 0;
#X connect 5 0 18 1;
#X connect 10 0 12 0;
#X connect 12 0 20 0;
#X connect 12 1 17 0;
#X connect 13 0 12 0;
#X connect 18 0 1 0;
#X connect 18 1 2 0;
#X connect 18 2 7 0;
#X connect 18 3 19 0;
#X connect 18 4 19 1;
#X connect 19 0 18 2;
#X connect 19 1 18 3;
#X connect 20 0 21 0;
#X coords 0 0 1 1 100 50 0;
