#N canvas 0 22 450 300 10;
#X obj 225 57 inlet;
#X obj 59 59 inlet;
#X obj 59 221 outlet;
#X text 57 41 message;
#X obj 59 193 spigot;
#X obj 86 116 list split 1;
#X text 176 39 single atom (float or symbol);
#X obj 225 112 list split 1;
#X obj 59 89 t a a;
#X obj 86 160 upp.cmpatom;
#X connect 0 0 7 0;
#X connect 1 0 8 0;
#X connect 4 0 2 0;
#X connect 5 0 9 0;
#X connect 7 0 9 1;
#X connect 8 0 4 0;
#X connect 8 1 5 0;
#X connect 9 0 4 1;
