#N canvas 0 22 295 204 10;
#N canvas 484 237 243 216 delwrite 0;
#X obj 47 32 inlet~;
#X obj 46 132 outlet~;
#X obj 47 67 delwrite~ \$0-delay 10;
#X connect 0 0 2 0;
#X restore 34 82 pd delwrite;
#N canvas 0 22 307 200 delread 0;
#X obj 70 37 inlet~;
#X obj 69 128 outlet~;
#X obj 187 36 inlet;
#X obj 69 97 delread~ \$0-delay;
#X connect 2 0 3 0;
#X connect 3 0 1 0;
#X restore 34 113 pd delread;
#X obj 34 46 inlet~;
#X obj 34 153 outlet~;
#X obj 162 45 inlet;
#X text 155 66 delay(ms);
#X text 161 13 grrrr.org \, 2012;
#X connect 0 0 1 0;
#X connect 1 0 3 0;
#X connect 2 0 0 0;
#X connect 4 0 1 1;
