#N canvas 0 22 289 188 10;
#X obj 67 35 inlet;
#X obj 136 63 / 1000;
#X obj 67 90 *;
#X obj 66 118 outlet;
#X text 142 80 samples/ms;
#X obj 136 35 upp.samplerate;
#X connect 0 0 2 0;
#X connect 1 0 2 1;
#X connect 2 0 3 0;
#X connect 5 0 1 0;
