#N canvas 614 417 889 269 10;
#X obj 69 38 inlet;
#X obj 69 195 outlet;
#X obj 142 195 outlet;
#X text 70 212 pass on;
#X text 138 212 release;
#X obj 168 37 inlet;
#X text 170 19 modulation message;
#X obj 207 195 outlet;
#X text 204 213 voices active;
#X text 67 20 event message;
#X obj 430 19 loadbang;
#X text 428 224 explicit loadbang after everything has been set up
;
#X obj 559 127 t b;
#X text 155 120 dynamically created voices;
#N canvas 94 219 384 779 voices 0;
#X obj 37 26 inlet;
#X obj 113 25 inlet;
#X obj 195 25 outlet;
#X obj 275 27 outlet;
#X restore 158 102 pd voices;
#X obj 430 51 t b b;
#X msg 430 192 \; pd-voices loadbang;
#X obj 558 147 list append upp.flow \$2 \$3 \$4 \$5 \$6 \$7 \$8 \$9
;
#X obj 457 88 list append \$1 voices 4;
#X obj 457 136 upp.dynchain;
#X text 740 27 grrrr.org 2012;
#X obj 69 103 upp._xhelper;
#X connect 0 0 21 0;
#X connect 5 0 21 1;
#X connect 10 0 15 0;
#X connect 12 0 17 0;
#X connect 14 0 21 2;
#X connect 14 1 21 3;
#X connect 15 0 16 0;
#X connect 15 1 18 0;
#X connect 17 0 19 1;
#X connect 18 0 19 0;
#X connect 19 1 12 0;
#X connect 21 0 1 0;
#X connect 21 1 2 0;
#X connect 21 2 7 0;
#X connect 21 3 14 0;
#X connect 21 4 14 1;
#X coords 0 0 1 1 100 50 0;
