#N canvas 0 22 367 239 10;
#X obj 77 46 inlet;
#X obj 77 77 list split 1;
#X obj 77 127 list append;
#X obj 77 164 outlet;
#X obj 145 164 outlet;
#X obj 193 45 inlet;
#X obj 193 70 f \$1;
#X obj 111 102 list split;
#X obj 236 44 loadbang;
#X connect 0 0 1 0;
#X connect 1 0 2 0;
#X connect 1 1 7 0;
#X connect 2 0 3 0;
#X connect 5 0 6 0;
#X connect 6 0 7 1;
#X connect 7 0 4 0;
#X connect 7 1 2 1;
#X connect 8 0 6 0;
