#N canvas 0 23 398 335 10;
#X obj 37 80 inlet;
#X obj 77 284 outlet~;
#X text 32 34 grrrr.org 2018;
#X text 32 14 Dirac spike;
#X obj 275 90 inlet;
#X obj 77 201 pack 0 0 1;
#X obj 134 179 + 1;
#X obj 37 105 route bang float list;
#X obj 77 155 unpack;
#X text 34 63 bang or volume;
#X msg 77 231 0 \, \$1 0 \$2 \, 0 0 \$3;
#X text 273 70 block size;
#X obj 77 254 upp.vline~ \$1 \$2;
#X msg 37 126 1 0;
#X msg 78 125 \$1 0;
#X connect 0 0 7 0;
#X connect 4 0 12 1;
#X connect 5 0 10 0;
#X connect 6 0 5 2;
#X connect 7 0 13 0;
#X connect 7 1 14 0;
#X connect 7 2 8 0;
#X connect 8 0 5 0;
#X connect 8 1 6 0;
#X connect 8 1 5 1;
#X connect 10 0 12 0;
#X connect 12 0 1 0;
#X connect 13 0 8 0;
#X connect 14 0 8 0;
