#N canvas 495 420 339 319 10;
#X obj 50 36 inlet;
#X obj 96 268 outlet;
#X obj 96 232 delay;
#X obj 50 66 route bang float;
#X obj 96 206 upp.s2ms;
#X msg 50 90 0;
#X obj 96 180 + 64;
#X text 131 180 1 DSP block safety;
#X connect 0 0 3 0;
#X connect 2 0 1 0;
#X connect 3 0 5 0;
#X connect 3 1 6 0;
#X connect 4 0 2 0;
#X connect 5 0 6 0;
#X connect 6 0 4 0;
