#N canvas 63 30 603 827 10;
#X obj 87 73 inlet;
#X obj 87 741 outlet;
#X obj 330 741 outlet;
#X obj 300 185 samplerate~;
#X obj 300 205 / 1000;
#X obj 87 198 *;
#X text 89 349 delay-time in samples;
#X obj 87 368 / 64;
#X obj 87 392 int;
#X text 114 392 truncate;
#X obj 87 426 * 64;
#X obj 87 573 /;
#X obj 345 507 -;
#X obj 345 554 * -1;
#X text 71 542 account for;
#X text 72 552 rounding errors;
#X text 333 581 total - blocks;
#X text 333 529 blocks - total;
#X text 50 409 number of whole blocks;
#X obj 327 76 inlet;
#X obj 87 330 t a a;
#X text 259 759 sub-block delay (samples);
#X text 64 594 whole block delay (ms);
#X text 326 58 additional samples;
#X obj 159 123 unpack;
#X obj 150 661 delay;
#X obj 330 719 f;
#X obj 87 471 t a a;
#X obj 87 690 t b b;
#X text 57 656 delay=0;
#X text 70 525 add fraction of a sample;
#X obj 172 74 inlet;
#X text 86 55 bang / delay (ms);
#X obj 87 155 f \$1;
#X obj 87 307 + \$2;
#X text 84 760 bang;
#X text 361 25 grrrr.org \, 2012;
#X text 83 24 delay with DSP block boundary correction;
#X obj 87 635 moses 1e-20;
#X obj 87 507 + 1e-05;
#X obj 87 101 route bang float list stop;
#X msg 208 634 stop;
#X obj 346 614 + 0.5;
#X obj 345 637 int;
#X text 50 445 number of samples;
#X obj 87 249 int;
#X obj 442 350 -;
#X obj 442 407 /;
#X obj 444 738 outlet;
#X obj 87 271 t a a;
#X obj 442 372 * -1;
#X text 441 757 sub-sample loss (ms);
#X obj 87 224 t a a;
#X obj 87 176 t a b;
#X obj 30 218 + 0.001;
#X connect 0 0 40 0;
#X connect 3 0 4 0;
#X connect 4 0 5 1;
#X connect 4 0 11 1;
#X connect 4 0 47 1;
#X connect 5 0 54 0;
#X connect 7 0 8 0;
#X connect 8 0 10 0;
#X connect 10 0 27 0;
#X connect 11 0 38 0;
#X connect 12 0 13 0;
#X connect 13 0 42 0;
#X connect 19 0 34 1;
#X connect 20 0 7 0;
#X connect 20 1 12 1;
#X connect 24 0 33 0;
#X connect 24 1 34 1;
#X connect 25 0 28 0;
#X connect 26 0 2 0;
#X connect 27 0 39 0;
#X connect 27 1 12 0;
#X connect 28 0 1 0;
#X connect 28 1 26 0;
#X connect 31 0 33 1;
#X connect 33 0 53 0;
#X connect 34 0 20 0;
#X connect 38 0 28 0;
#X connect 38 1 25 0;
#X connect 39 0 11 0;
#X connect 40 0 33 0;
#X connect 40 1 33 0;
#X connect 40 2 24 0;
#X connect 40 3 41 0;
#X connect 41 0 25 0;
#X connect 42 0 43 0;
#X connect 43 0 26 1;
#X connect 45 0 49 0;
#X connect 46 0 50 0;
#X connect 47 0 48 0;
#X connect 49 0 34 0;
#X connect 49 1 46 0;
#X connect 50 0 47 0;
#X connect 52 0 45 0;
#X connect 52 1 46 1;
#X connect 53 0 5 0;
#X connect 53 1 3 0;
#X connect 54 0 52 0;
