#N canvas 123 403 369 376 10;
#X obj 238 53 loadbang;
#X text 38 325 release;
#X obj 224 207 cnv 15 100 100 empty empty empty 20 12 0 14 -233017
-66577 0;
#X obj 256 280 switch~;
#X msg 273 233 1;
#X msg 238 233 0;
#X obj 256 259 tgl 15 0 empty empty empty 17 7 0 10 -262144 -1 -1 0
1;
#X obj 40 53 route start mod;
#X obj 40 25 r \$1-\$2;
#X obj 40 308 s \$1;
#X obj 40 210 \$3 \$4 \$5 \$6 \$7 \$8 \$9;
#X obj 40 282 list prepend \$2;
#X obj 115 90 spigot;
#N canvas 359 418 377 266 check 0;
#X obj 215 47 inlet;
#X obj 49 49 inlet;
#X obj 49 211 outlet;
#X text 47 31 message;
#X obj 49 183 spigot;
#X obj 76 106 list split 1;
#X text 166 29 single atom (float or symbol);
#X obj 76 150 cmpatom;
#X obj 215 102 list split 1;
#X obj 49 79 t a a;
#X connect 0 0 8 0;
#X connect 1 0 9 0;
#X connect 4 0 2 0;
#X connect 5 0 7 0;
#X connect 7 0 4 1;
#X connect 8 0 7 1;
#X connect 9 0 4 0;
#X connect 9 1 5 0;
#X restore 115 132 pd check;
#X obj 40 179 t a a b;
#X text 236 23 grrrr.org 2012;
#N canvas 0 22 221 197 release 0;
#X obj 55 25 inlet;
#X obj 55 135 outlet;
#X obj 101 99 delay;
#X obj 55 55 route bang float;
#X obj 101 79 + 1;
#X text 126 78 safety;
#X connect 0 0 3 0;
#X connect 2 0 1 0;
#X connect 3 0 1 0;
#X connect 3 1 4 0;
#X connect 4 0 2 0;
#X restore 40 236 pd release;
#X obj 40 257 t b b;
#X connect 0 0 5 0;
#X connect 4 0 6 0;
#X connect 5 0 6 0;
#X connect 6 0 3 0;
#X connect 6 0 12 1;
#X connect 7 0 14 0;
#X connect 7 1 12 0;
#X connect 8 0 7 0;
#X connect 10 0 16 0;
#X connect 11 0 9 0;
#X connect 12 0 13 0;
#X connect 13 0 10 1;
#X connect 14 0 10 0;
#X connect 14 1 13 1;
#X connect 14 2 4 0;
#X connect 16 0 17 0;
#X connect 17 0 11 0;
#X connect 17 1 5 0;
