#N canvas 0 22 555 353 10;
#X obj 186 51 loadbang;
#X text 184 290 explicit loadbang after everything has been set up
;
#X obj 213 178 upp.dynchain;
#X obj 186 234 f \$0;
#X obj 186 89 t b b;
#N canvas 0 22 526 277 \$0-dynsub 0;
#X restore 44 154 pd \$0-dynsub;
#X msg 186 258 \; pd-\$1-dynsub loadbang;
#X obj 308 199 outlet;
#X obj 308 158 inlet;
#X text 306 216 index;
#X text 308 141 object to create (list);
#X obj 213 111 list append \$1 \$0-dynsub 0;
#X connect 0 0 4 0;
#X connect 2 1 7 0;
#X connect 3 0 6 0;
#X connect 4 0 3 0;
#X connect 4 1 11 0;
#X connect 8 0 2 1;
#X connect 11 0 2 0;
