#N canvas 324 163 606 356 10;
#X obj 39 51 inlet;
#X obj 39 287 outlet;
#X obj 154 287 outlet;
#X obj 395 50 loadbang;
#X text 38 303 pass;
#X text 151 304 release;
#X obj 380 225 cnv 15 100 100 empty empty empty 20 12 0 14 -233017
-66577 0;
#X obj 412 277 switch~;
#X msg 429 230 1;
#X msg 394 230 0;
#X obj 413 255 tgl 15 0 empty empty empty 17 7 0 10 -262144 -1 -1 0
1;
#X obj 307 51 inlet;
#X obj 39 169 upp.flowctrl;
#X obj 307 76 spigot;
#N canvas 359 418 377 266 check 0;
#X obj 215 47 inlet;
#X obj 49 49 inlet;
#X obj 49 211 outlet;
#X text 47 31 message;
#X obj 49 183 spigot;
#X obj 76 106 list split 1;
#X text 166 29 single atom (float or symbol);
#X obj 76 150 cmpatom;
#X obj 215 102 list split 1;
#X obj 49 79 t a a;
#X connect 0 0 8 0;
#X connect 1 0 9 0;
#X connect 4 0 2 0;
#X connect 5 0 7 0;
#X connect 7 0 4 1;
#X connect 8 0 7 1;
#X connect 9 0 4 0;
#X connect 9 1 5 0;
#X restore 307 147 pd check;
#X obj 154 106 t a b a;
#X obj 154 171 \$1 \$2 \$3 \$4 \$5 \$6 \$7 \$8 \$9;
#X text 491 28 grrrr.org 2012;
#X text 38 31 event message;
#X text 306 31 mod message;
#X obj 154 264 t b b;
#N canvas 0 22 221 197 release 0;
#X obj 55 25 inlet;
#X obj 55 135 outlet;
#X obj 101 99 delay;
#X obj 55 55 route bang float;
#X obj 101 79 + 1;
#X text 126 78 safety;
#X connect 0 0 3 0;
#X connect 2 0 1 0;
#X connect 3 0 1 0;
#X connect 3 1 4 0;
#X connect 4 0 2 0;
#X restore 154 213 pd release;
#X connect 0 0 12 0;
#X connect 3 0 9 0;
#X connect 8 0 10 0;
#X connect 9 0 10 0;
#X connect 10 0 7 0;
#X connect 10 0 13 1;
#X connect 11 0 13 0;
#X connect 12 0 1 0;
#X connect 12 1 15 0;
#X connect 13 0 14 0;
#X connect 14 0 16 1;
#X connect 15 0 16 0;
#X connect 15 1 8 0;
#X connect 15 2 14 1;
#X connect 16 0 21 0;
#X connect 20 0 2 0;
#X connect 20 1 9 0;
#X connect 20 1 12 1;
#X connect 21 0 20 0;
