#N canvas 528 100 359 435 10;
#X obj 45 366 outlet;
#X obj 48 257 spigot;
#X obj 63 86 t a a;
#X obj 48 48 inlet;
#X text 47 31 play 0/1;
#X obj 227 47 inlet;
#X text 202 230 delay to next grain;
#X text 224 28 offset;
#X obj 48 136 sel 1;
#X obj 48 223 upp.delay;
#X obj 206 213 f \$1;
#X obj 204 331 f;
#X obj 204 366 outlet;
#X text 194 384 sub-block delay (samples);
#X obj 48 303 t b b b;
#X text 35 385 bang at block boundary;
#X obj 48 200 + 0;
#X msg 48 162 0 0;
#X connect 1 0 14 0;
#X connect 2 0 8 0;
#X connect 2 1 1 1;
#X connect 3 0 2 0;
#X connect 5 0 10 1;
#X connect 8 0 17 0;
#X connect 9 0 1 0;
#X connect 9 1 11 1;
#X connect 9 1 16 1;
#X connect 10 0 16 0;
#X connect 11 0 12 0;
#X connect 14 0 10 0;
#X connect 14 1 0 0;
#X connect 14 2 11 0;
#X connect 16 0 9 0;
#X connect 17 0 16 0;
