#N canvas 26 43 889 269 10;
#X obj 69 38 inlet;
#X obj 69 195 outlet;
#X obj 142 195 outlet;
#X text 70 212 pass on;
#X text 138 212 release;
#X obj 168 37 inlet;
#X text 170 19 modulation message;
#X obj 207 195 outlet;
#X text 204 213 voices active;
#X text 67 20 event message;
#X obj 430 19 loadbang;
#X text 428 224 explicit loadbang after everything has been set up
;
#X obj 559 127 t b;
#X text 155 120 dynamically created voices;
#X obj 430 51 t b b;
#X obj 558 147 list append upp.flow \$2 \$3 \$4 \$5 \$6 \$7 \$8 \$9
;
#X obj 457 136 upp.dynchain;
#X text 741 27 grrrr.org 2012;
#X obj 69 103 upp._xhelper;
#N canvas 94 219 384 779 \$0-voices 0;
#X obj 37 26 inlet;
#X obj 113 25 inlet;
#X obj 195 25 outlet;
#X obj 275 27 outlet;
#X obj 50 50 upp.flow spat-mono 9117-bus syn-sample-var 9117-wnd 1024
0 0 0;
#X obj 50 70 upp.flow spat-mono 9117-bus syn-sample-var 9117-wnd 1024
0 0 0;
#X obj 50 90 upp.flow spat-mono 9117-bus syn-sample-var 9117-wnd 1024
0 0 0;
#X obj 50 110 upp.flow spat-mono 9117-bus syn-sample-var 9117-wnd 1024
0 0 0;
#X obj 50 130 upp.flow spat-mono 9117-bus syn-sample-var 9117-wnd 1024
0 0 0;
#X obj 50 150 upp.flow spat-mono 9117-bus syn-sample-var 9117-wnd 1024
0 0 0;
#X obj 50 170 upp.flow spat-mono 9117-bus syn-sample-var 9117-wnd 1024
0 0 0;
#X obj 50 190 upp.flow spat-mono 9117-bus syn-sample-var 9117-wnd 1024
0 0 0;
#X obj 50 210 upp.flow spat-mono 9117-bus syn-sample-var 9117-wnd 1024
0 0 0;
#X obj 50 230 upp.flow spat-mono 9117-bus syn-sample-var 9117-wnd 1024
0 0 0;
#X connect 0 0 4 0;
#X connect 1 0 4 1;
#X connect 1 0 5 1;
#X connect 1 0 6 1;
#X connect 1 0 7 1;
#X connect 1 0 8 1;
#X connect 1 0 9 1;
#X connect 1 0 10 1;
#X connect 1 0 11 1;
#X connect 1 0 12 1;
#X connect 1 0 13 1;
#X connect 4 0 5 0;
#X connect 4 1 3 0;
#X connect 5 0 6 0;
#X connect 5 1 3 0;
#X connect 6 0 7 0;
#X connect 6 1 3 0;
#X connect 7 0 8 0;
#X connect 7 1 3 0;
#X connect 8 0 9 0;
#X connect 8 1 3 0;
#X connect 9 0 10 0;
#X connect 9 1 3 0;
#X connect 10 0 11 0;
#X connect 10 1 3 0;
#X connect 11 0 12 0;
#X connect 11 1 3 0;
#X connect 12 0 13 0;
#X connect 12 1 3 0;
#X connect 13 0 2 0;
#X connect 13 1 3 0;
#X restore 158 102 pd \$0-voices;
#X obj 430 170 f \$0;
#X msg 430 192 \; pd-\$1-voices loadbang;
#X obj 457 88 list append \$1 \$0-voices 4;
#X connect 0 0 18 0;
#X connect 5 0 18 1;
#X connect 10 0 14 0;
#X connect 12 0 15 0;
#X connect 14 0 20 0;
#X connect 14 1 22 0;
#X connect 15 0 16 1;
#X connect 16 1 12 0;
#X connect 18 0 1 0;
#X connect 18 1 2 0;
#X connect 18 2 7 0;
#X connect 18 3 19 0;
#X connect 18 4 19 1;
#X connect 19 0 18 2;
#X connect 19 1 18 3;
#X connect 20 0 21 0;
#X connect 22 0 16 0;
#X coords 0 0 1 1 100 50 0;
