#N canvas 396 401 439 263 10;
#X obj 47 210 print~;
#X obj 47 42 bng 15 250 50 0 empty empty empty 17 7 0 10 -262144 -1
-1;
#X obj 74 135 upp.ramp~;
#X obj 74 163 upp.tabread2~ \$0-table;
#X obj 273 153 array set \$0-table;
#X msg 272 123 1 2 0;
#X obj 273 49 table \$0-table 3;
#X obj 272 98 loadbang;
#X obj 47 77 t b b b;
#X msg 125 111 0.1;
#X connect 1 0 8 0;
#X connect 2 0 3 0;
#X connect 3 0 0 0;
#X connect 5 0 4 0;
#X connect 7 0 5 0;
#X connect 8 0 0 0;
#X connect 8 1 2 0;
#X connect 8 2 9 0;
#X connect 9 0 2 2;
