#N canvas 210 407 214 218 10;
#X obj 39 114 samplerate~;
#X obj 39 36 r pd;
#X obj 39 63 route dsp audio-dialog;
#X obj 78 37 loadbang;
#X obj 39 140 change;
#X obj 39 168 outlet;
#X obj 39 88 t b;
#X obj 148 38 inlet;
#X connect 0 0 4 0;
#X connect 1 0 2 0;
#X connect 2 0 6 0;
#X connect 2 1 6 0;
#X connect 3 0 6 0;
#X connect 4 0 5 0;
#X connect 6 0 0 0;
#X connect 7 0 6 0;
