#N canvas 137 374 476 376 10;
#X obj 39 80 inlet;
#X obj 39 316 outlet;
#X obj 218 316 outlet;
#X text 38 332 pass;
#X text 215 333 release;
#X obj 108 317 switch~;
#X obj 371 80 inlet;
#X obj 39 119 upp.flowctrl;
#X obj 371 105 spigot;
#X text 38 60 event message;
#X text 370 60 mod message;
#X obj 218 293 t b b;
#X obj 218 242 upp._release;
#X obj 371 193 upp._check;
#X obj 218 217 \$1 \$2 \$3 \$4 \$5 \$6 \$7 \$8 \$9;
#X obj 218 156 t a a;
#X text 89 333 busy controls DSP;
#X text 257 294 release voice;
#X text 39 28 grrrr.org 2012-16;
#X connect 0 0 7 0;
#X connect 6 0 8 0;
#X connect 7 0 1 0;
#X connect 7 1 15 0;
#X connect 7 2 8 1;
#X connect 7 2 5 0;
#X connect 8 0 13 0;
#X connect 11 0 2 0;
#X connect 11 1 7 1;
#X connect 12 0 11 0;
#X connect 13 0 14 1;
#X connect 14 0 12 0;
#X connect 15 0 14 0;
#X connect 15 1 13 1;
