#N canvas 253 119 483 211 10;
#X obj 39 67 flowctrl;
#X obj 39 23 inlet;
#X obj 39 143 outlet;
#X obj 142 142 outlet;
#X obj 211 22 t a b;
#X obj 384 149 switch~;
#X msg 401 102 1;
#X msg 366 102 0;
#X obj 385 127 tgl 15 0 empty empty empty 17 7 0 10 -262144 -1 -1 0
1;
#X obj 365 24 loadbang;
#X text 38 159 pass;
#X text 140 159 release;
#X obj 142 74 \$1 \$2 \$3 \$4 \$5 \$6 \$7 \$8 \$9;
#X obj 311 23 inlet;
#X text 306 40 dummy;
#X connect 0 0 2 0;
#X connect 0 1 4 0;
#X connect 1 0 0 0;
#X connect 4 0 12 0;
#X connect 4 1 6 0;
#X connect 6 0 8 0;
#X connect 7 0 8 0;
#X connect 8 0 5 0;
#X connect 9 0 7 0;
#X connect 12 0 0 1;
#X connect 12 0 7 0;
#X connect 12 0 3 0;
