#N canvas 191 160 488 204 10;
#X obj 39 23 inlet;
#X obj 39 143 outlet;
#X obj 197 144 throw~ \$1;
#X obj 39 77 \$2 \$3 \$4 \$5 \$6 \$7 \$8 \$9;
#X obj 173 21 inlet;
#X text 170 38 dummy;
#X text 38 159 release;
#X connect 0 0 3 0;
#X connect 3 0 1 0;
#X connect 3 1 2 0;
