#N canvas 304 392 494 255 10;
#X obj 39 118 flowctrl;
#X obj 39 23 inlet;
#X obj 39 195 outlet;
#X obj 142 194 outlet;
#X obj 156 28 t a b;
#X obj 384 198 switch~;
#X msg 401 137 1;
#X msg 366 137 0;
#X obj 385 162 tgl 15 0 empty empty empty 17 7 0 10 -262144 -1 -1 0
1;
#X obj 365 24 loadbang;
#X text 38 211 pass;
#X obj 144 86 list split 1;
#N canvas 359 418 465 379 check 0;
#X obj 250 70 inlet;
#X obj 84 72 inlet;
#X obj 101 310 outlet;
#X text 82 54 message;
#X obj 77 245 spigot;
#X obj 85 116 list split 1;
#X obj 84 218 t b a;
#X obj 100 276 list;
#X text 201 54 single atom (float or symbol);
#X obj 84 178 cmpatom;
#X msg 284 124 list sym 1 2 3;
#X obj 288 250 bng 15 250 50 0 empty empty empty 17 7 0 10 -262144
-1 -1;
#X obj 351 246 bng 15 250 50 0 empty empty empty 17 7 0 10 -262144
-1 -1;
#X obj 286 213 select sym;
#X obj 285 187 route symbol float;
#X obj 282 154 route list;
#X connect 0 0 9 1;
#X connect 1 0 5 0;
#X connect 4 0 7 0;
#X connect 5 0 9 0;
#X connect 5 1 7 1;
#X connect 6 0 4 0;
#X connect 6 1 4 1;
#X connect 7 0 2 0;
#X connect 9 0 6 0;
#X connect 10 0 15 0;
#X connect 13 0 11 0;
#X connect 13 1 12 0;
#X connect 14 0 13 0;
#X connect 15 0 14 0;
#X restore 291 84 pd check;
#X obj 306 54 spigot;
#X obj 307 24 inlet;
#X text 140 211 release;
#X obj 143 111 \$1 \$2 \$3 \$4 \$5 \$6 \$7 \$8 \$9;
#X obj 246 194 outlet;
#X text 245 213 active;
#X obj 341 113 bng 15 250 50 0 empty empty empty 17 7 0 10 -262144
-1 -1;
#X connect 0 0 2 0;
#X connect 0 1 4 0;
#X connect 1 0 0 0;
#X connect 4 0 11 0;
#X connect 4 1 6 0;
#X connect 6 0 8 0;
#X connect 7 0 8 0;
#X connect 8 0 5 0;
#X connect 8 0 13 1;
#X connect 8 0 17 0;
#X connect 9 0 7 0;
#X connect 11 0 12 1;
#X connect 11 1 16 0;
#X connect 12 0 16 1;
#X connect 12 0 19 0;
#X connect 13 0 12 0;
#X connect 14 0 13 0;
#X connect 16 0 0 1;
#X connect 16 0 7 0;
#X connect 16 0 3 0;
