#N canvas 238 96 266 291 10;
#X obj 42 120 until;
#X obj 42 148 f;
#X obj 74 148 + 1;
#X msg 84 120 0;
#X obj 42 170 t a a;
#X text 34 229 value;
#X text 95 229 index;
#X obj 42 26 loadbang;
#X obj 42 247 tabwrite \$1;
#X obj 42 195 / \$2;
#X obj 42 47 f \$2;
#X obj 136 88 array size \$1;
#X obj 162 28 table \$1;
#X obj 42 92 t a b a;
#X obj 43 69 + 1;
#X connect 0 0 1 0;
#X connect 1 0 2 0;
#X connect 1 0 4 0;
#X connect 2 0 1 1;
#X connect 3 0 1 1;
#X connect 4 0 9 0;
#X connect 4 1 8 1;
#X connect 7 0 10 0;
#X connect 9 0 8 0;
#X connect 10 0 14 0;
#X connect 13 0 0 0;
#X connect 13 1 3 0;
#X connect 13 2 11 0;
#X connect 14 0 13 0;
