#N canvas 238 96 263 346 10;
#X obj 62 76 t a b;
#X obj 62 100 until;
#X obj 62 128 f;
#X obj 94 128 + 1;
#X msg 104 100 0;
#X obj 62 150 t a a;
#X text 47 236 value;
#X text 108 236 index;
#X obj 56 211 expr sin($f1*1.5708);
#X obj 62 19 loadbang;
#X obj 55 254 tabwrite \$1;
#X obj 54 292 table \$1 \$2;
#X obj 62 175 / \$2;
#X obj 62 50 f \$2;
#X text 150 17 grrrr.org 2012;
#X connect 0 0 1 0;
#X connect 0 1 4 0;
#X connect 1 0 2 0;
#X connect 2 0 3 0;
#X connect 2 0 5 0;
#X connect 3 0 2 1;
#X connect 4 0 2 1;
#X connect 5 0 12 0;
#X connect 5 1 10 1;
#X connect 8 0 10 0;
#X connect 9 0 13 0;
#X connect 12 0 8 0;
#X connect 13 0 0 0;
