#N canvas 289 112 705 632 10;
#X obj 69 38 inlet;
#X obj 68 511 t a b;
#X obj 185 562 outlet;
#X text 66 493 overflow;
#X obj 331 369 t b;
#X text 320 387 release;
#X obj 332 562 outlet;
#X obj 239 38 loadbang;
#X msg 239 60 0;
#X obj 50 95 cnv 15 200 130 empty empty empty 20 12 0 14 -233017 -66577
0;
#X text 186 163 if busy;
#X text 74 165 if vacant;
#X obj 198 111 tgl 15 0 empty empty empty 17 7 0 10 -262144 -1 -1 0
1;
#X text 164 108 busy;
#X msg 289 143 1;
#X text 288 126 set busy;
#X text 186 579 pass on;
#X text 328 579 release;
#X obj 68 243 \$1 \$2 \$3 \$4 \$5 \$6 \$7 \$8 \$9;
#X obj 135 143 dilemma;
#X obj 417 162 spigot;
#X obj 418 41 inlet;
#X obj 585 168 t a;
#X msg 564 119 -1;
#X obj 551 205 nbx 5 14 -1e+37 1e+37 0 0 empty empty active 0 -8 0
10 -262144 -1 -1 1 256;
#X text 413 23 modulation message;
#X obj 68 216 t a b;
#X msg 529 120 1;
#X obj 68 265 \$1 \$2 \$3 \$4 \$5 \$6 \$7 \$8 \$9;
#X obj 68 287 \$1 \$2 \$3 \$4 \$5 \$6 \$7 \$8 \$9;
#X obj 68 309 \$1 \$2 \$3 \$4 \$5 \$6 \$7 \$8 \$9;
#X obj 68 331 \$1 \$2 \$3 \$4 \$5 \$6 \$7 \$8 \$9;
#X obj 68 353 \$1 \$2 \$3 \$4 \$5 \$6 \$7 \$8 \$9;
#X obj 68 375 \$1 \$2 \$3 \$4 \$5 \$6 \$7 \$8 \$9;
#X obj 68 397 \$1 \$2 \$3 \$4 \$5 \$6 \$7 \$8 \$9;
#X obj 68 419 \$1 \$2 \$3 \$4 \$5 \$6 \$7 \$8 \$9;
#X obj 68 440 \$1 \$2 \$3 \$4 \$5 \$6 \$7 \$8 \$9;
#X obj 68 462 \$1 \$2 \$3 \$4 \$5 \$6 \$7 \$8 \$9;
#X obj 551 167 +;
#X obj 551 556 outlet;
#X text 548 577 voices active;
#X connect 0 0 19 0;
#X connect 1 0 2 0;
#X connect 1 1 14 0;
#X connect 1 1 23 0;
#X connect 4 0 6 0;
#X connect 4 0 8 0;
#X connect 4 0 23 0;
#X connect 7 0 8 0;
#X connect 8 0 12 0;
#X connect 8 0 38 0;
#X connect 12 0 19 1;
#X connect 14 0 12 0;
#X connect 18 0 28 0;
#X connect 18 1 4 0;
#X connect 19 0 26 0;
#X connect 19 1 2 0;
#X connect 20 0 18 1;
#X connect 20 0 28 1;
#X connect 20 0 29 1;
#X connect 20 0 30 1;
#X connect 20 0 31 1;
#X connect 20 0 32 1;
#X connect 20 0 33 1;
#X connect 20 0 34 1;
#X connect 20 0 35 1;
#X connect 20 0 36 1;
#X connect 20 0 37 1;
#X connect 21 0 20 0;
#X connect 22 0 38 1;
#X connect 23 0 38 0;
#X connect 24 0 39 0;
#X connect 26 0 18 0;
#X connect 26 1 27 0;
#X connect 27 0 38 0;
#X connect 28 0 29 0;
#X connect 28 1 4 0;
#X connect 29 0 30 0;
#X connect 29 1 4 0;
#X connect 30 0 31 0;
#X connect 30 1 4 0;
#X connect 31 0 32 0;
#X connect 31 1 4 0;
#X connect 32 0 33 0;
#X connect 32 1 4 0;
#X connect 33 0 34 0;
#X connect 33 1 4 0;
#X connect 34 0 35 0;
#X connect 34 1 4 0;
#X connect 35 0 36 0;
#X connect 35 1 4 0;
#X connect 36 0 37 0;
#X connect 36 1 4 0;
#X connect 37 0 1 0;
#X connect 37 1 4 0;
#X connect 38 0 22 0;
#X connect 38 0 24 0;
#X connect 38 0 20 1;
