#N canvas 500 644 889 269 10;
#X obj 69 38 inlet;
#X obj 69 195 outlet;
#X obj 142 195 outlet;
#X text 70 212 pass on;
#X text 138 212 release;
#X obj 168 37 inlet;
#X text 170 19 modulation message;
#X obj 207 195 outlet;
#X text 204 213 voices active;
#X text 67 20 event message;
#X obj 430 19 loadbang;
#X text 428 224 explicit loadbang after everything has been set up
;
#X obj 564 127 t b;
#X obj 69 103 x-helper;
#X text 146 120 dynamically created voices;
#N canvas 638 110 676 989 voices 0;
#X obj 37 26 inlet;
#X obj 113 25 inlet;
#X obj 195 25 outlet;
#X obj 275 27 outlet;
#X restore 149 102 pd voices;
#X obj 463 88 list append \$1 voices;
#X obj 430 51 t b b;
#X msg 430 192 \; pd-voices loadbang;
#X obj 462 136 dyn-chain 4;
#X obj 563 147 list append flow \$2 \$3 \$4 \$5 \$6 \$7 \$8 \$9;
#X connect 0 0 13 0;
#X connect 5 0 13 1;
#X connect 10 0 17 0;
#X connect 12 0 20 0;
#X connect 13 0 1 0;
#X connect 13 1 2 0;
#X connect 13 2 7 0;
#X connect 13 3 15 0;
#X connect 13 4 15 1;
#X connect 15 0 13 2;
#X connect 15 1 13 3;
#X connect 16 0 19 0;
#X connect 17 0 18 0;
#X connect 17 1 16 0;
#X connect 19 1 12 0;
#X connect 20 0 19 1;
#X coords 0 0 1 1 100 50 0;
