#N canvas 619 175 889 269 10;
#X obj 69 38 inlet;
#X obj 69 195 outlet;
#X obj 142 195 outlet;
#X text 70 212 pass on;
#X text 138 212 release;
#X obj 168 37 inlet;
#X text 170 19 modulation message;
#X obj 207 195 outlet;
#X text 204 213 voices active;
#X text 67 20 event message;
#X obj 430 19 loadbang;
#X text 428 224 explicit loadbang after everything has been set up
;
#X text 217 121 dynamically created voices;
#N canvas 638 110 476 743 voices 0;
#X restore 220 103 pd voices;
#X obj 457 76 list append \$1 voices;
#X obj 430 51 t b b;
#X msg 430 192 \; pd-voices loadbang;
#X obj 558 160 list append \$2 \$3 \$4 \$5 \$6 \$7 \$8 \$9;
#X obj 558 116 pack 0 \$0;
#X msg 558 138 comm UPP-\$2 \$1;
#N canvas 673 286 854 788 comm 0;
#X obj 79 48 inlet;
#X text 296 460 release;
#X obj 300 701 outlet;
#X text 296 718 release;
#X obj 364 56 inlet;
#X obj 153 589 t a;
#X msg 153 542 -1;
#X obj 118 626 nbx 5 14 -1e+37 1e+37 0 0 empty empty active 0 -8 0
10 -262144 -1 -1 15 256;
#X text 360 38 modulation message;
#X msg 118 543 1;
#X obj 118 588 +;
#X obj 491 702 outlet;
#X text 488 723 voices active;
#X text 77 30 event message;
#X obj 594 345 table \$0-free \$1;
#X obj 594 376 table \$0-assigned \$1;
#X obj 628 47 loadbang;
#X obj 627 212 tabwrite \$0-free;
#X obj 628 123 until;
#X obj 629 151 f;
#X obj 656 152 + 1;
#X obj 628 98 f \$1;
#X obj 565 261 v \$0-freecnt;
#X obj 654 261 tabwrite \$0-assigned;
#X obj 628 72 t b b;
#X msg 675 122 0;
#X obj 606 47 bng 15 250 50 0 empty empty empty 17 7 0 10 -262144 -1
-1;
#X msg 653 239 -1;
#N canvas 673 153 631 420 allocvoice 0;
#X obj 35 30 inlet;
#X obj 40 357 outlet;
#X obj 62 81 v \$0-freecnt;
#X obj 345 250 tabread \$0-free;
#X text 343 268 voice #;
#X obj 316 355 v \$0-freecnt;
#X obj 169 358 tabwrite \$0-free;
#X msg 168 336 -1;
#X obj 40 334 f;
#X obj 427 355 tabwrite \$0-assigned;
#X floatatom 128 115 5 0 0 0 - - -;
#X text 426 334 val;
#X text 531 337 pos;
#X obj 537 254 - \$1;
#X obj 538 275 * -1;
#X obj 35 59 t b b;
#X obj 62 132 moses 1;
#X obj 201 201 - 1;
#X obj 182 172 t b a a;
#X connect 0 0 15 0;
#X connect 2 0 10 0;
#X connect 2 0 16 0;
#X connect 3 0 9 0;
#X connect 3 0 8 1;
#X connect 7 0 6 0;
#X connect 8 0 1 0;
#X connect 13 0 14 0;
#X connect 14 0 9 1;
#X connect 15 0 8 0;
#X connect 15 1 2 0;
#X connect 16 0 8 1;
#X connect 16 1 18 0;
#X connect 17 0 3 0;
#X connect 17 0 6 1;
#X connect 17 0 5 0;
#X connect 18 0 7 0;
#X connect 18 1 17 0;
#X connect 18 2 13 0;
#X restore 106 115 pd allocvoice;
#X obj 79 82 t a b;
#X floatatom 142 142 5 0 0 0 - - -;
#X obj 106 170 t a a;
#X obj 263 312 list prepend UPP-\$0;
#X obj 79 232 dilemma;
#X obj 79 696 outlet;
#X text 75 713 overflow;
#X obj 145 336 list prepend start;
#X obj 391 338 list prepend mod;
#X obj 364 160 t a a;
#X obj 263 386 list append;
#N canvas 0 22 464 441 itervoices 0;
#X obj 63 37 inlet;
#X obj 60 297 outlet;
#X obj 62 98 v \$0-freecnt;
#X obj 62 201 until;
#X obj 61 263 tabread \$0-assigned;
#X msg 131 199 0;
#X obj 61 234 f;
#X obj 88 234 + 1;
#X obj 63 125 - \$1;
#X obj 62 153 * -1;
#X obj 63 73 t b b;
#X connect 0 0 10 0;
#X connect 2 0 8 0;
#X connect 3 0 6 0;
#X connect 4 0 1 0;
#X connect 5 0 6 1;
#X connect 6 0 4 0;
#X connect 6 0 7 0;
#X connect 7 0 6 1;
#X connect 8 0 9 0;
#X connect 9 0 3 0;
#X connect 10 0 2 0;
#X connect 10 1 5 0;
#X restore 364 227 pd itervoices;
#X obj 300 476 r UPP-\$0;
#N canvas 738 227 551 339 freevoice 0;
#X obj 47 17 inlet;
#X obj 47 44 list split 1;
#X msg 45 234 -1;
#X obj 45 257 tabwrite \$0-assigned;
#X obj 290 94 v \$0-freecnt;
#X obj 409 257 v \$0-freecnt;
#X obj 258 256 tabwrite \$0-free;
#X obj 288 149 + 1;
#X obj 161 210 - \$1;
#X obj 162 231 * -1;
#X obj 47 70 t b a b;
#X obj 289 122 t a a;
#X connect 0 0 1 0;
#X connect 1 0 10 0;
#X connect 2 0 3 0;
#X connect 4 0 11 0;
#X connect 7 0 5 0;
#X connect 7 0 8 0;
#X connect 8 0 9 0;
#X connect 9 0 3 1;
#X connect 10 0 2 0;
#X connect 10 1 6 0;
#X connect 10 2 4 0;
#X connect 11 0 7 0;
#X connect 11 1 6 1;
#X restore 339 537 pd freevoice;
#X obj 300 503 t a b a;
#X obj 195 564 loadbang;
#X msg 193 587 0;
#X msg 263 336 symbol \$1-\$2;
#X obj 158 265 f;
#X obj 263 410 fwd;
#X obj 610 496 tabdump \$0-free;
#X obj 610 471 bng 15 250 50 0 empty empty empty 17 7 0 10 -262144
-1 -1;
#X obj 710 469 bng 15 250 50 0 empty empty empty 17 7 0 10 -262144
-1 -1;
#X obj 710 494 tabdump \$0-assigned;
#X obj 610 524 print FREELIST;
#X obj 710 522 print ASS;
#X obj 106 199 > 0;
#X text 361 247 active voices;
#X obj 630 175 t a b a;
#X obj 118 264 t b a;
#X connect 0 0 29 0;
#X connect 4 0 38 0;
#X connect 5 0 10 1;
#X connect 6 0 10 0;
#X connect 7 0 11 0;
#X connect 9 0 10 0;
#X connect 10 0 5 0;
#X connect 10 0 7 0;
#X connect 16 0 24 0;
#X connect 18 0 19 0;
#X connect 19 0 20 0;
#X connect 19 0 57 0;
#X connect 20 0 19 1;
#X connect 21 0 18 0;
#X connect 21 0 22 0;
#X connect 24 0 21 0;
#X connect 24 1 25 0;
#X connect 25 0 19 1;
#X connect 26 0 24 0;
#X connect 27 0 23 0;
#X connect 28 0 30 0;
#X connect 28 0 31 0;
#X connect 29 0 33 0;
#X connect 29 1 28 0;
#X connect 31 0 55 0;
#X connect 31 1 47 1;
#X connect 32 0 46 0;
#X connect 33 0 34 0;
#X connect 33 1 58 0;
#X connect 36 0 39 1;
#X connect 37 0 39 1;
#X connect 38 0 40 0;
#X connect 38 1 37 0;
#X connect 39 0 48 0;
#X connect 40 0 32 0;
#X connect 41 0 43 0;
#X connect 43 0 2 0;
#X connect 43 1 6 0;
#X connect 43 2 42 0;
#X connect 44 0 45 0;
#X connect 45 0 5 0;
#X connect 45 0 7 0;
#X connect 46 0 39 0;
#X connect 47 0 32 0;
#X connect 49 0 53 0;
#X connect 50 0 49 0;
#X connect 51 0 52 0;
#X connect 52 0 54 0;
#X connect 55 0 33 1;
#X connect 57 0 17 0;
#X connect 57 1 27 0;
#X connect 57 2 17 1;
#X connect 57 2 23 1;
#X connect 58 0 47 0;
#X connect 58 0 9 0;
#X connect 58 1 36 0;
#X restore 69 103 pd comm;
#X obj 457 149 dyn-chain;
#X connect 0 0 20 0;
#X connect 5 0 20 1;
#X connect 10 0 15 0;
#X connect 14 0 21 0;
#X connect 15 0 16 0;
#X connect 15 1 14 0;
#X connect 17 0 21 1;
#X connect 18 0 19 0;
#X connect 19 0 17 0;
#X connect 20 0 1 0;
#X connect 20 1 2 0;
#X connect 20 2 7 0;
#X connect 21 1 18 0;
#X coords 0 0 1 1 100 50 0;
