#N canvas 6 26 559 510 10;
#X declare -path .. -path .;
#X obj 27 11 cnv 15 500 40 empty empty Universal_Polyphonic_Player
10 10 0 14 -233017 -66577 0;
#X text 34 34 playing notes with a formant-defined timbre;
#X text 403 104 to find voice patch;
#X obj 379 85 declare -path .. -path .;
#X text 412 14 grrrr.org \, 2012-15;
#X floatatom 47 184 5 0 0 1 MIDI_note - -, f 5;
#X obj 47 89 kbd;
#X obj 47 456 bng 15 250 50 0 empty empty overflow 17 7 0 10 -262144
-1 -1;
#X text 113 219 partials;
#N canvas 812 212 637 584 timbre 0;
#X obj 90 28 inlet;
#X obj 82 538 outlet;
#N canvas 0 22 450 300 (subpatch) 0;
#X array timbre 150 float 1;
#A 0 87.6777 88.9635 89.6064 90.035 90.2493 90.8921 91.9636 92.6065
93.678 94.7494 94.9637 95.6066 95.8209 96.0352 96.4638 96.6781 96.8924
97.5353 97.9639 98.1781 98.6067 98.6067 99.2496 99.2496 99.2496 99.2496
99.2496 99.2496 99.2496 99.2496 99.2496 99.2496 99.2496 99.2496 99.2496
99.2496 99.2496 99.2496 99.0353 98.821 98.6067 98.6067 98.6067 98.2853
97.9639 97.9639 97.8924 97.821 97.7495 97.5353 97.321 97.2495 97.1781
97.1067 96.6067 96.5352 96.4638 96.2495 96.0352 95.8209 95.7138 95.6066
95.178 94.9637 94.3208 94.1066 93.0351 92.6065 92.1779 91.535 91.2136
90.8921 90.4635 89.8207 89.8207 89.2849 88.7492 88.642 88.5349 87.892
87.6777 87.4634 87.2491 87.0348 86.8205 86.6062 86.392 86.1777 85.9634
85.7491 85.5348 85.3205 84.8919 84.6776 84.4633 84.249 84.0347 83.7668
83.499 83.0168 82.8025 82.5882 82.3739 82.0525 81.7311 81.4453 81.1596
80.8739 80.6596 80.4453 80.231 79.8024 79.6953 79.1595 78.9452 78.7309
78.5166 78.5166 78.5166 78.1952 78.1952 78.1952 78.1952 78.0523 77.9095
77.7666 77.7666 77.5523 77.5523 77.5523 77.5523 77.5523 77.5523 77.5523
77.5523 77.5523 77.5523 77.5523 77.5523 77.5523 77.5523 77.5523 77.1237
77.1237 77.1237 77.1237 77.1237 77.1237 77.1237 77.1237;
#X coords 0 100 149 70 300 140 1;
#X restore 280 35 graph;
#X floatatom 53 137 5 0 0 0 - - -, f 5;
#X floatatom 171 135 5 0 0 0 - - -, f 5;
#X obj 54 247 until;
#X obj 54 203 f;
#X obj 53 224 t a b;
#X obj 52 280 f;
#X obj 86 279 + 1;
#X obj 67 167 t b a;
#X obj 84 328 *;
#X msg 108 249 1;
#X obj 83 399 t a a;
#X obj 83 511 pack;
#X obj 115 448 dbtopow;
#X obj 91 61 unpack;
#X text 171 116 partials;
#X text 223 35 dB;
#X text 458 178 MIDI note 0...150;
#X text 116 281 count partials;
#X text 49 346 partial frequencies;
#X text 226 424 fetch gain from table;
#X obj 53 94 mtof;
#X text 24 117 fundamental frq;
#X obj 83 372 ftom;
#X text 45 491 midinote volume;
#X obj 115 425 tabread timbre;
#X msg 469 222 \; timbre const 80;
#X obj 565 20 bng 15 250 50 0 empty empty clear -35 7 0 10 -204786
-1 -1;
#X text 222 52 70..100;
#X connect 0 0 16 0;
#X connect 3 0 10 0;
#X connect 4 0 6 1;
#X connect 5 0 8 0;
#X connect 6 0 7 0;
#X connect 7 0 5 0;
#X connect 7 1 12 0;
#X connect 8 0 9 0;
#X connect 8 0 11 0;
#X connect 9 0 8 1;
#X connect 10 0 6 0;
#X connect 10 1 11 1;
#X connect 11 0 25 0;
#X connect 12 0 8 1;
#X connect 13 0 14 0;
#X connect 13 1 27 0;
#X connect 14 0 1 0;
#X connect 15 0 14 1;
#X connect 16 0 23 0;
#X connect 16 1 4 0;
#X connect 23 0 3 0;
#X connect 25 0 13 0;
#X connect 27 0 15 0;
#X connect 29 0 28 0;
#X coords 0 -1 1 1 300 155 2 280 20;
#X restore 47 251 pd timbre;
#X obj 47 218 pack 0 8;
#X obj 47 131 unpack;
#X obj 47 152 spigot;
#X obj 375 432 out-mono;
#X text 248 409 ---> frequency;
#X text 13 267 gain;
#X text 31 280 ^;
#X text 31 285 |;
#X text 31 298 |;
#X obj 375 406 catch~ \$0-bus;
#N canvas 0 22 1314 340 50voices 0;
#X obj 26 21 inlet;
#X obj 1046 293 outlet;
#X obj 25 56 upp.flow spat-mono \$0-bus note_alt_vol;
#X obj 25 78 upp.flow spat-mono \$0-bus note_alt_vol;
#X obj 25 100 upp.flow spat-mono \$0-bus note_alt_vol;
#X obj 25 122 upp.flow spat-mono \$0-bus note_alt_vol;
#X obj 25 144 upp.flow spat-mono \$0-bus note_alt_vol;
#X obj 25 166 upp.flow spat-mono \$0-bus note_alt_vol;
#X obj 25 188 upp.flow spat-mono \$0-bus note_alt_vol;
#X obj 25 210 upp.flow spat-mono \$0-bus note_alt_vol;
#X obj 25 232 upp.flow spat-mono \$0-bus note_alt_vol;
#X obj 25 254 upp.flow spat-mono \$0-bus note_alt_vol;
#X obj 278 56 upp.flow spat-mono \$0-bus note_alt_vol;
#X obj 278 78 upp.flow spat-mono \$0-bus note_alt_vol;
#X obj 278 100 upp.flow spat-mono \$0-bus note_alt_vol;
#X obj 278 122 upp.flow spat-mono \$0-bus note_alt_vol;
#X obj 278 144 upp.flow spat-mono \$0-bus note_alt_vol;
#X obj 278 166 upp.flow spat-mono \$0-bus note_alt_vol;
#X obj 278 188 upp.flow spat-mono \$0-bus note_alt_vol;
#X obj 278 210 upp.flow spat-mono \$0-bus note_alt_vol;
#X obj 278 232 upp.flow spat-mono \$0-bus note_alt_vol;
#X obj 278 254 upp.flow spat-mono \$0-bus note_alt_vol;
#X obj 1046 54 upp.flow spat-mono \$0-bus note_alt_vol;
#X obj 1046 76 upp.flow spat-mono \$0-bus note_alt_vol;
#X obj 1046 98 upp.flow spat-mono \$0-bus note_alt_vol;
#X obj 1046 120 upp.flow spat-mono \$0-bus note_alt_vol;
#X obj 1046 142 upp.flow spat-mono \$0-bus note_alt_vol;
#X obj 1046 164 upp.flow spat-mono \$0-bus note_alt_vol;
#X obj 1046 186 upp.flow spat-mono \$0-bus note_alt_vol;
#X obj 1046 208 upp.flow spat-mono \$0-bus note_alt_vol;
#X obj 1046 230 upp.flow spat-mono \$0-bus note_alt_vol;
#X obj 1046 252 upp.flow spat-mono \$0-bus note_alt_vol;
#X text 74 20 message;
#X obj 533 55 upp.flow spat-mono \$0-bus note_alt_vol;
#X obj 533 77 upp.flow spat-mono \$0-bus note_alt_vol;
#X obj 533 99 upp.flow spat-mono \$0-bus note_alt_vol;
#X obj 533 121 upp.flow spat-mono \$0-bus note_alt_vol;
#X obj 533 143 upp.flow spat-mono \$0-bus note_alt_vol;
#X obj 533 165 upp.flow spat-mono \$0-bus note_alt_vol;
#X obj 533 187 upp.flow spat-mono \$0-bus note_alt_vol;
#X obj 533 209 upp.flow spat-mono \$0-bus note_alt_vol;
#X obj 533 231 upp.flow spat-mono \$0-bus note_alt_vol;
#X obj 533 253 upp.flow spat-mono \$0-bus note_alt_vol;
#X obj 788 54 upp.flow spat-mono \$0-bus note_alt_vol;
#X obj 788 76 upp.flow spat-mono \$0-bus note_alt_vol;
#X obj 788 98 upp.flow spat-mono \$0-bus note_alt_vol;
#X obj 788 120 upp.flow spat-mono \$0-bus note_alt_vol;
#X obj 788 142 upp.flow spat-mono \$0-bus note_alt_vol;
#X obj 788 164 upp.flow spat-mono \$0-bus note_alt_vol;
#X obj 788 186 upp.flow spat-mono \$0-bus note_alt_vol;
#X obj 788 208 upp.flow spat-mono \$0-bus note_alt_vol;
#X obj 788 230 upp.flow spat-mono \$0-bus note_alt_vol;
#X obj 788 252 upp.flow spat-mono \$0-bus note_alt_vol;
#X text 1100 294 overflow;
#X text 1198 15 grrrr.org 2012;
#X connect 0 0 2 0;
#X connect 2 0 3 0;
#X connect 3 0 4 0;
#X connect 4 0 5 0;
#X connect 5 0 6 0;
#X connect 6 0 7 0;
#X connect 7 0 8 0;
#X connect 8 0 9 0;
#X connect 9 0 10 0;
#X connect 10 0 11 0;
#X connect 11 0 12 0;
#X connect 12 0 13 0;
#X connect 13 0 14 0;
#X connect 14 0 15 0;
#X connect 15 0 16 0;
#X connect 16 0 17 0;
#X connect 17 0 18 0;
#X connect 18 0 19 0;
#X connect 19 0 20 0;
#X connect 20 0 21 0;
#X connect 21 0 33 0;
#X connect 22 0 23 0;
#X connect 23 0 24 0;
#X connect 24 0 25 0;
#X connect 25 0 26 0;
#X connect 26 0 27 0;
#X connect 27 0 28 0;
#X connect 28 0 29 0;
#X connect 29 0 30 0;
#X connect 30 0 31 0;
#X connect 31 0 1 0;
#X connect 33 0 34 0;
#X connect 34 0 35 0;
#X connect 35 0 36 0;
#X connect 36 0 37 0;
#X connect 37 0 38 0;
#X connect 38 0 39 0;
#X connect 39 0 40 0;
#X connect 40 0 41 0;
#X connect 41 0 42 0;
#X connect 42 0 43 0;
#X connect 43 0 44 0;
#X connect 44 0 45 0;
#X connect 45 0 46 0;
#X connect 46 0 47 0;
#X connect 47 0 48 0;
#X connect 48 0 49 0;
#X connect 49 0 50 0;
#X connect 50 0 51 0;
#X connect 51 0 52 0;
#X connect 52 0 22 0;
#X restore 47 429 pd 50voices;
#X connect 5 0 10 0;
#X connect 6 0 11 0;
#X connect 9 0 20 0;
#X connect 10 0 9 0;
#X connect 11 0 12 0;
#X connect 11 1 12 1;
#X connect 12 0 5 0;
#X connect 19 0 13 0;
#X connect 20 0 7 0;
