#N canvas 75 118 600 529 10;
#X declare -path .. -path .;
#X obj 27 11 cnv 15 550 40 empty empty Universal_Polyphonic_Player
10 10 0 14 -233017 -66577 0;
#X text 34 34 synchronous granular playing through audio buffer;
#X text 441 121 to find voice patch;
#X obj 412 100 declare -path .. -path .;
#X text 455 14 grrrr.org \, 2012-15;
#X text 405 276 half window for one grain;
#X obj 96 321 moses;
#X obj 158 321 spigot;
#X obj 340 106 tgl 15 0 empty empty loop 17 7 0 10 -204786 -1 -1 0
1;
#X obj 308 185 sample \$0-sample;
#X obj 35 478 bng 15 250 50 0 empty empty overflow 17 7 0 10 -262144
-1 -1;
#X floatatom 326 480 5 0 0 0 voices_active - -, f 5;
#X obj 35 108 tgl 25 0 empty empty play 0 -8 0 10 -258113 -1 -1 0 1
;
#X obj 179 125 nbx 5 14 0.01 10 1 0 empty empty empty 0 -8 0 10 -204786
-1 -1 0.964388 256;
#X obj 182 107 hsl 128 15 0.01 10 1 1 empty empty speed -2 -8 0 10
-204786 -1 -1 8467 1;
#X obj 100 109 nbx 5 14 1 1000 1 1 empty empty grain_length 0 -8 0
10 -204786 -1 -1 100 256;
#X obj 100 129 / 2;
#X msg 58 180 0;
#X obj 35 289 nbx 8 14 0 1e+37 0 0 empty empty pos_in_buffer_(ms) 0
-8 0 10 -262144 -1 -1 0 256;
#X text 189 410 tag;
#N canvas 190 125 603 538 play 0;
#X obj 63 448 outlet;
#X text 257 150 attack+sustain;
#X obj 63 60 inlet;
#X obj 496 62 inlet;
#X text 62 43 play 0/1;
#X text 494 44 speed;
#X obj 409 454 outlet;
#X text 407 474 release old grain;
#X text 60 469 trigger new grain;
#X obj 257 61 inlet;
#X obj 336 61 inlet;
#X obj 424 62 inlet;
#X text 257 40 attack;
#X text 337 41 sustain;
#X text 420 42 release;
#X obj 337 86 t b a;
#X obj 169 60 inlet;
#X obj 288 129 + 0;
#X text 166 41 set pos;
#X obj 289 256 * 1;
#X obj 495 102 t b a;
#X text 287 273 playpos increment;
#X obj 169 344 +;
#X obj 63 276 upp.onward;
#X obj 73 103 sel 0;
#X obj 63 418 pack 0 0 0;
#X msg 409 403 0;
#X obj 409 426 pack 0 0;
#X obj 63 371 t a a;
#X obj 63 322 f;
#X connect 2 0 23 0;
#X connect 2 0 24 0;
#X connect 3 0 20 0;
#X connect 9 0 17 0;
#X connect 9 0 25 2;
#X connect 10 0 15 0;
#X connect 11 0 27 1;
#X connect 15 0 17 0;
#X connect 15 1 17 1;
#X connect 16 0 29 1;
#X connect 17 0 19 0;
#X connect 17 0 23 1;
#X connect 19 0 22 1;
#X connect 20 0 19 0;
#X connect 20 1 19 1;
#X connect 22 0 29 1;
#X connect 23 0 29 0;
#X connect 23 1 25 1;
#X connect 23 1 27 0;
#X connect 24 0 26 0;
#X connect 25 0 0 0;
#X connect 26 0 27 0;
#X connect 27 0 6 0;
#X connect 28 0 25 0;
#X connect 28 1 22 0;
#X connect 29 0 28 0;
#X restore 35 202 pd play ___________;
#X obj 180 166 nbx 5 14 -1e+37 1e+37 0 0 empty empty pitch-shift_(halftones)
0 -8 0 10 -204786 -1 -1 0 256;
#X obj 134 370 expr pow(2 \, $f1/12);
#X obj 35 371 list append 1;
#X obj 35 411 list prepend \$0-sample;
#X obj 241 412 list prepend \$0-sample;
#X obj 35 230 t a a;
#X obj 427 431 catch~ \$0-bus;
#X obj 427 457 out-mono;
#X obj 100 179 upp.ms2s;
#X obj 308 248 upp.ms2s;
#X obj 440 295 wnd-lin \$0-wnd 1024;
#X obj 35 452 upp 10 spat-mono \$0-bus syn-sample-varcorr \$0-wnd;
#X connect 6 1 7 0;
#X connect 7 0 17 0;
#X connect 8 0 7 1;
#X connect 9 0 30 0;
#X connect 12 0 20 0;
#X connect 13 0 20 5;
#X connect 14 0 13 0;
#X connect 15 0 16 0;
#X connect 16 0 29 0;
#X connect 17 0 20 1;
#X connect 18 0 6 0;
#X connect 20 0 26 0;
#X connect 20 1 25 0;
#X connect 21 0 22 0;
#X connect 22 0 23 1;
#X connect 23 0 24 0;
#X connect 24 0 32 0;
#X connect 25 0 32 1;
#X connect 26 0 18 0;
#X connect 26 1 23 0;
#X connect 27 0 28 0;
#X connect 29 0 20 2;
#X connect 29 0 20 4;
#X connect 30 0 6 1;
#X connect 32 0 10 0;
#X connect 32 2 11 0;
