#N canvas 62 60 468 381 10;
#X obj 210 31 inlet;
#X obj 65 281 outlet;
#X text 61 209 total duration;
#X obj 190 144 cnv 15 250 200 empty empty empty 20 12 0 14 -233017
-66577 0;
#X obj 237 204 osc~;
#X obj 237 253 *~;
#X obj 306 203 vline~;
#X text 311 162 attack+decay;
#X text 309 221 volume envelope;
#X text 203 204 sine;
#X obj 237 281 outlet~;
#X obj 237 178 mtof;
#X text 231 302 audio out;
#X obj 210 53 t b a;
#X text 208 14 midinote vol;
#X obj 375 33 inlet;
#X text 373 16 dummy;
#X msg 65 232 820;
#X text 62 301 release time;
#X obj 237 102 unpack;
#X msg 305 180 \$1 20 \, 0 800 20;
#X obj 65 258 upp.ms2s;
#X connect 0 0 13 0;
#X connect 4 0 5 0;
#X connect 5 0 10 0;
#X connect 6 0 5 1;
#X connect 11 0 4 0;
#X connect 13 0 17 0;
#X connect 13 1 19 0;
#X connect 17 0 21 0;
#X connect 19 0 11 0;
#X connect 19 1 20 0;
#X connect 20 0 6 0;
#X connect 21 0 1 0;
