#N canvas 481 589 212 241 10;
#X obj 33 150 dbtopow;
#X obj 33 82 nbx 4 16 -100 27 0 0 empty empty empty 0 -8 0 10 -262144
-1 -1 -9.37008 256;
#X obj 36 98 hsl 128 16 -50 0 0 0 empty empty volume(dB) 70 -8 0 10
-204786 -1 -1 10320 1;
#X msg 128 152 set \$1;
#X msg 127 132 set \$1;
#X obj 33 131 + 100;
#X obj 73 9 loadbang;
#X msg 73 29 -20;
#X obj 33 10 inlet;
#N canvas 101 274 374 446 \$0-out 0;
#X obj 10 10 inlet;
#X restore 33 186 pd \$0-out;
#N canvas 661 44 492 466 gen-outs 0;
#X obj 48 89 t b a b;
#X obj 70 122 until;
#X obj 70 147 f;
#X obj 96 147 + 1;
#X obj 47 417 upp.fwd;
#X msg 48 367 loadbang;
#X obj 172 204 * 20;
#X obj 47 392 list prepend pd-\$0-out;
#X obj 48 28 loadbang;
#X obj 70 168 t a a;
#X obj 70 282 list prepend \$1;
#X obj 48 57 f \$2;
#X obj 87 225 + 1;
#X obj 114 225 + 2;
#X obj 88 195 * 3;
#X obj 70 260 pack 0 0 0 0 0;
#X msg 113 122 0;
#X obj 141 224 + 3;
#X obj 60 225 + 1;
#X obj 172 225 + 50;
#X msg 70 313 obj 10 \$6 catch~ \$1-\$2 \, obj 135 \$6 *~ 0 \, obj
170 \$6 dac~ \$2 \, connect \$3 0 \$4 0 \, connect \$4 0 \$5 0 \, connect
0 0 \$4 1;
#X connect 0 0 5 0;
#X connect 0 1 1 0;
#X connect 0 2 16 0;
#X connect 1 0 2 0;
#X connect 2 0 3 0;
#X connect 2 0 9 0;
#X connect 3 0 2 1;
#X connect 5 0 7 0;
#X connect 6 0 19 0;
#X connect 7 0 4 0;
#X connect 8 0 11 0;
#X connect 9 0 18 0;
#X connect 9 1 6 0;
#X connect 9 1 14 0;
#X connect 10 0 20 0;
#X connect 11 0 0 0;
#X connect 12 0 15 1;
#X connect 13 0 15 2;
#X connect 14 0 12 0;
#X connect 14 0 13 0;
#X connect 14 0 17 0;
#X connect 15 0 10 0;
#X connect 16 0 2 1;
#X connect 17 0 15 3;
#X connect 18 0 15 0;
#X connect 19 0 15 4;
#X connect 20 0 7 0;
#X restore 101 187 pd gen-outs;
#X connect 0 0 9 0;
#X connect 1 0 5 0;
#X connect 1 0 4 0;
#X connect 2 0 5 0;
#X connect 2 0 3 0;
#X connect 3 0 1 0;
#X connect 4 0 2 0;
#X connect 5 0 0 0;
#X connect 6 0 7 0;
#X connect 7 0 1 0;
#X connect 8 0 1 0;
#X coords 0 -1 1 1 140 60 1 30 60;
