#N canvas 587 106 337 240 10;
#X obj 45 31 inlet~;
#X obj 103 148 dbtopow;
#X obj 45 202 dac~;
#X text 82 205 audio out;
#X obj 103 84 nbx 4 16 -100 27 0 0 empty empty empty 0 -8 0 10 -262144
-1 -1 -1.9685 256;
#X obj 106 102 hsl 128 16 -50 0 0 0 empty empty gain(dB) 75 -8 0 10
-204786 -1 -1 12200 1;
#X msg 261 153 set \$1;
#X msg 260 133 set \$1;
#X obj 103 129 + 100;
#X obj 174 32 loadbang;
#X msg 174 52 -20;
#X obj 103 31 inlet;
#X obj 103 188 line~;
#X obj 45 153 *~;
#X obj 103 168 pack 0 20;
#X connect 0 0 13 0;
#X connect 1 0 14 0;
#X connect 4 0 8 0;
#X connect 4 0 7 0;
#X connect 5 0 8 0;
#X connect 5 0 6 0;
#X connect 6 0 4 0;
#X connect 7 0 5 0;
#X connect 8 0 1 0;
#X connect 9 0 10 0;
#X connect 10 0 4 0;
#X connect 11 0 4 0;
#X connect 12 0 13 1;
#X connect 13 0 2 0;
#X connect 13 0 2 1;
#X connect 14 0 12 0;
#X coords 0 -1 1 1 140 40 2 100 80;
