#N canvas 587 106 457 282 10;
#X obj 45 31 inlet~;
#X obj 45 153 *~ 0;
#X obj 202 153 dbtopow;
#X obj 60 203 dac~;
#X text 97 206 audio out;
#X obj 202 84 nbx 4 16 -100 27 0 0 empty empty empty 0 -8 0 10 -262144
-1 -1 -17.7165 256;
#X obj 205 102 hsl 128 16 -50 0 0 0 empty empty gain(dB) 75 -8 0 10
-204786 -1 -1 8200 1;
#X msg 360 153 set \$1;
#X msg 359 133 set \$1;
#X obj 202 134 + 100;
#X obj 273 32 loadbang;
#X msg 273 52 -20;
#X obj 101 31 inlet~;
#X obj 101 153 *~ 0;
#X obj 158 30 inlet;
#X connect 0 0 1 0;
#X connect 1 0 3 0;
#X connect 2 0 1 1;
#X connect 2 0 13 1;
#X connect 5 0 9 0;
#X connect 5 0 8 0;
#X connect 6 0 9 0;
#X connect 6 0 7 0;
#X connect 7 0 5 0;
#X connect 8 0 6 0;
#X connect 9 0 2 0;
#X connect 10 0 11 0;
#X connect 11 0 5 0;
#X connect 12 0 13 0;
#X connect 13 0 3 1;
#X connect 14 0 5 0;
#X coords 0 -1 1 1 140 40 2 200 80;
